<?xml version="1.0" encoding="UTF-8"?>
<svg width="8px" height="11px" viewBox="0 0 8 11" version="1.1" xmlns="http://www.w3.org/2000/svg" xmlns:xlink="http://www.w3.org/1999/xlink">
    <!-- Generator: Sketch 52.2 (67145) - http://www.bohemiancoding.com/sketch -->
    <title>分组_slice</title>
    <desc>Created with Sketch.</desc>
    <defs>
        <polygon id="path-1" points="0 0.65624 4.92325 0.65624 4.92325 7.79224 0 7.79224"></polygon>
        <polygon id="path-3" points="0.350057143 0.66258 1.01485714 0.66258 1.01485714 1.288953 0.350057143 1.288953"></polygon>
        <polygon id="path-5" points="0.260742857 0.074196 5.30057143 0.074196 5.30057143 7.279956 0.260742857 7.279956"></polygon>
        <polygon id="path-7" points="0.101657143 0.6024 5.16565714 0.6024 5.16565714 7.73832 0.101657143 7.73832"></polygon>
    </defs>
    <g id="Page-1" stroke="none" stroke-width="1" fill="none" fill-rule="evenodd">
        <g id="Artboard" transform="translate(-1187.000000, -305.000000)">
            <g id="分组" transform="translate(1187.000000, 305.000000)">
                <g transform="translate(0.000000, 2.000000)">
                    <mask id="mask-2" fill="white">
                        <use xlink:href="#path-1"></use>
                    </mask>
                    <g id="Clip-2"></g>
                    <path d="M4.41825,0.65624 L0.736583333,0.65624 C0.329916667,0.65624 -8.33333333e-05,1.00744 -8.33333333e-05,1.44184 L-8.33333333e-05,7.20424 C-8.33333333e-05,7.43944 0.0990833333,7.64824 0.25325,7.79224 L4.92325,0.87304 C4.78741667,0.73384 4.60658333,0.65624 4.41825,0.65624" id="Fill-1" fill="#F7D426" mask="url(#mask-2)"></path>
                </g>
                <g transform="translate(0.000000, 2.000000)">
                    <g transform="translate(4.285714, 0.000000)">
                        <mask id="mask-4" fill="white">
                            <use xlink:href="#path-3"></use>
                        </mask>
                        <g id="Clip-4"></g>
                        <path d="M0.778628571,0.883548 L0.778628571,0.884358 L0.778628571,0.883548 Z" id="Fill-3" fill="#EA5514" mask="url(#mask-4)"></path>
                    </g>
                    <g transform="translate(0.000000, 0.810000)">
                        <mask id="mask-6" fill="white">
                            <use xlink:href="#path-5"></use>
                        </mask>
                        <g id="Clip-6"></g>
                        <path d="M5.28531429,0.485676 C5.2836,0.478386 5.28102857,0.471906 5.27931429,0.465426 C5.26902857,0.419256 5.25531429,0.374706 5.23731429,0.331776 L5.23474286,0.326106 C5.19445714,0.231336 5.13617143,0.146286 5.06502857,0.074196 L5.06417143,0.074196 L0.260742857,7.079886 C0.262457143,7.082316 0.265028571,7.083126 0.266742857,7.084746 C0.298457143,7.113096 0.331028571,7.139016 0.367028571,7.162506 L0.371314286,7.164936 C0.407314286,7.187616 0.445028571,7.207056 0.4836,7.224066 C0.496457143,7.228926 0.509314286,7.232166 0.522171429,7.236216 C0.552171429,7.247556 0.582171429,7.258086 0.613885714,7.264566 C0.660171429,7.273476 0.708171429,7.279956 0.757028571,7.279956 L4.54474286,7.279956 C4.96302857,7.279146 5.3016,6.923556 5.3016,6.483726 L5.3016,0.650106 C5.3016,0.593406 5.2956,0.538326 5.28531429,0.485676" id="Fill-5" fill="#FFC408" mask="url(#mask-6)"></path>
                    </g>
                </g>
                <g transform="translate(2.000000, 0.000000)">
                    <path d="M4.77514286,1.15232 L4.77514286,1.15312 L4.77514286,1.15232 Z" id="Fill-7" fill="#EA5514"></path>
                    <g>
                        <mask id="mask-8" fill="white">
                            <use xlink:href="#path-7"></use>
                        </mask>
                        <g id="Clip-10"></g>
                        <path d="M4.64622857,0.60232 L0.859371429,0.60232 C0.441085714,0.60232 0.101657143,0.95352 0.101657143,1.38792 L0.101657143,7.15032 C0.101657143,7.38552 0.203657143,7.59512 0.363085714,7.73832 L5.16565714,0.81912 C5.02594286,0.67992 4.83994286,0.60232 4.64622857,0.60232" id="Fill-9" fill="#FF5317" mask="url(#mask-8)"></path>
                    </g>
                    <path d="M5.38697143,1.22576 C5.38525714,1.21856 5.38268571,1.21216 5.38097143,1.20576 C5.37068571,1.16016 5.35697143,1.11616 5.33982857,1.07376 L5.3364,1.06816 C5.29611429,0.97536 5.23782857,0.89056 5.16668571,0.81936 L5.16582857,0.81936 L0.363257143,7.73856 L0.3624,7.73936 C0.364114286,7.74096 0.366685714,7.74176 0.3684,7.74336 C0.400114286,7.77136 0.433542857,7.79776 0.468685714,7.82016 L0.472971429,7.82256 C0.508971429,7.84496 0.546685714,7.86496 0.585257143,7.88096 C0.598114286,7.88576 0.610971429,7.88896 0.623828571,7.89296 C0.653828571,7.90416 0.683828571,7.91456 0.715542857,7.92096 C0.761828571,7.92976 0.809828571,7.93616 0.859542857,7.93616 L4.6464,7.93616 C5.06468571,7.93536 5.40325714,7.58416 5.40325714,7.14976 L5.40325714,1.38816 C5.40325714,1.33216 5.39811429,1.27776 5.38697143,1.22576" id="Fill-11" fill="#E83D0F"></path>
                </g>
            </g>
        </g>
    </g>
</svg>