<?xml version="1.0" encoding="UTF-8"?>
<svg width="9px" height="9px" viewBox="0 0 9 9" version="1.1" xmlns="http://www.w3.org/2000/svg" xmlns:xlink="http://www.w3.org/1999/xlink">
    <!-- Generator: Sketch 52.2 (67145) - http://www.bohemiancoding.com/sketch -->
    <title>分组_slice</title>
    <desc>Created with Sketch.</desc>
    <g id="Page-1" stroke="none" stroke-width="1" fill="none" fill-rule="evenodd">
        <g id="Artboard" transform="translate(-1038.000000, -306.000000)">
            <g id="分组" transform="translate(1038.000000, 306.000000)">
                <path d="M1.47969327,6.97132519 L1.47969327,1 L2.52030673,1 L2.52030673,6.97132519 L3.16330588,6.23307125 C3.23904194,6.14688359 3.36249172,6.14688359 3.43822778,6.23307125 L3.94262993,6.8120086 C4.01912336,6.89993743 4.01912336,7.04184237 3.94262993,7.1297712 L2.5362113,8.74470169 C2.23932595,9.08509944 1.76067405,9.08509944 1.46454606,8.74470169 L1.21991858,8.46437413 L0.0573700653,7.1297712 C-0.0191233551,7.04184237 -0.0191233551,6.89993743 0.0573700653,6.8120086 L0.561772224,6.23307125 C0.637508284,6.14688359 0.760958061,6.14688359 0.836694121,6.23307125 L1.47969327,6.97132519 Z" id="Fill-1" fill="#FF4B1A"></path>
                <path d="M6.47858667,2.02786243 L6.47858667,8 L7.52122362,8 L7.52122362,2.02786243 L8.15864359,2.7575098 C8.23832108,2.84893339 8.36808157,2.84893339 8.44775907,2.7575098 L8.94024188,2.1941663 C9.01991937,2.10274271 9.01991937,1.95298215 8.94024188,1.86155855 L7.53791795,0.255986069 C7.2404553,-0.0853286896 6.75935499,-0.0853286896 6.46189234,0.255986069 L5.06032725,1.86155855 C4.97989092,1.95298215 4.97989092,2.10274271 5.06032725,2.1941663 L5.55205122,2.7575098 C5.63172872,2.84893339 5.76148921,2.84893339 5.84192554,2.7575098 L6.47858667,2.02786243 Z" id="Fill-3" fill="#22B573"></path>
            </g>
        </g>
    </g>
</svg>