<?xml version="1.0" encoding="utf-8"?>
<!-- Generator: Adobe Illustrator 22.1.0, SVG Export Plug-In . SVG Version: 6.00 Build 0)  -->
<svg version="1.1" id="Layer_1" xmlns="http://www.w3.org/2000/svg" xmlns:xlink="http://www.w3.org/1999/xlink" x="0px" y="0px"
	 viewBox="0 0 12 11" style="enable-background:new 0 0 12 11;" xml:space="preserve">
<style type="text/css">
	.st0{filter:url(#Adobe_OpacityMaskFilter);}
	.st1{fill:#FFFFFF;}
	.st2{fill:#22B573;}
	.st3{fill:#EA5514;}
</style>
<g id="分组-copy-3">
	<g id="Clip-2">
	</g>
	<defs>
		<filter id="Adobe_OpacityMaskFilter" filterUnits="userSpaceOnUse" x="0" y="0" width="11" height="11">
			<feColorMatrix  type="matrix" values="1 0 0 0 0  0 1 0 0 0  0 0 1 0 0  0 0 0 1 0"/>
		</filter>
	</defs>
	<mask maskUnits="userSpaceOnUse" x="0" y="0" width="11" height="11" id="mask-2_1_">
		<g class="st0">
			<polygon id="path-1_1_" class="st1" points="0,0 11,0 11,11 0,11 			"/>
		</g>
	</mask>
	<path id="Fill-1" class="st2" d="M8.4,4.5l-1,0.2c0,0-0.1-0.1-0.1-0.1L5.8,3.5c0,0-0.1-0.1-0.2-0.1l-0.1-1c0,0,0,0,0,0l-0.1,1
		c-0.1,0-0.1,0-0.2,0.1L3.7,4.7c0,0-0.1,0.1-0.1,0.1l-1-0.2c0,0,0,0,0,0L3.5,5c0,0.1,0,0.1,0,0.2L4.1,7c0,0.1,0,0.1,0.1,0.1L3.7,8
		c0,0,0,0,0,0l0.6-0.8c0.1,0,0.1,0,0.2,0h1.9c0.1,0,0.1,0,0.2,0L7.3,8c0,0,0,0,0,0L6.8,7.1c0,0,0.1-0.1,0.1-0.1l0.6-1.8
		c0-0.1,0-0.1,0-0.2L8.4,4.5C8.4,4.6,8.4,4.5,8.4,4.5z M8,8.6c-0.2,0-0.3,0.1-0.4,0.3l-0.4,1.4c-0.5,0.2-1.1,0.3-1.7,0.3
		c-0.6,0-1.2-0.1-1.7-0.3L3.4,8.9C3.3,8.7,3.1,8.6,3,8.6H1.5c-0.7-0.8-1-1.9-1-3.1c0,0,0-0.1,0-0.1l1.2-0.8C1.8,4.4,1.9,4.2,1.8,4
		L1.4,2.7C2,1.7,3,1,4.1,0.7l1.2,0.8c0.1,0.1,0.4,0.1,0.5,0l1.2-0.8C8,1,9,1.7,9.6,2.7L9.2,4c-0.1,0.2,0,0.4,0.2,0.5l1.2,0.8
		c0,0,0,0.1,0,0.1c0,1.2-0.4,2.2-1,3.1L8,8.6L8,8.6z M5.6,0L5.6,0C5.6,0,5.5,0,5.5,0c0,0-0.1,0-0.1,0h0C2.4,0.1,0,2.5,0,5.5
		c0,3,2.5,5.5,5.5,5.5c3,0,5.5-2.5,5.5-5.5C11,2.5,8.6,0.1,5.6,0z"/>
</g>
<g id="Group" transform="translate(5.000000, 4.000000)">
	<circle id="椭圆形" class="st1" cx="3.5" cy="3.5" r="3.5"/>
	<g id="分组" transform="translate(1.000000, 1.000000)">
		<path id="Fill-3" class="st3" d="M1.3,3.6C1.1,3.4,1.1,3.2,1.3,3l0.5-0.5L1.3,1.9c-0.1-0.1-0.1-0.4,0-0.5l0.1-0.1
			c0.1-0.1,0.4-0.1,0.5,0l0.6,0.6l0.6-0.6c0.1-0.1,0.4-0.1,0.5,0l0.1,0.1c0.1,0.1,0.1,0.4,0,0.5L3.1,2.5L3.7,3
			c0.1,0.1,0.1,0.4,0,0.5L3.6,3.7C3.4,3.9,3.2,3.9,3,3.7L2.5,3.2L1.9,3.7c-0.1,0.1-0.4,0.1-0.5,0L1.3,3.6z M4.3,0.7
			c-1-1-2.6-1-3.5,0s-1,2.6,0,3.5c1,1,2.6,1,3.5,0S5.2,1.7,4.3,0.7z"/>
	</g>
</g>
</svg>
