<?xml version="1.0" encoding="UTF-8"?>
<svg width="7px" height="10px" viewBox="0 0 7 10" version="1.1" xmlns="http://www.w3.org/2000/svg" xmlns:xlink="http://www.w3.org/1999/xlink">
    <!-- Generator: Sketch 52.2 (67145) - http://www.bohemiancoding.com/sketch -->
    <title>分组_slice</title>
    <desc>Created with Sketch.</desc>
    <defs>
        <polygon id="path-1" points="0 0.0348 6.65364 0.0348 6.65364 9.7178 0 9.7178"></polygon>
        <polygon id="path-3" points="0.342626667 0.32875 6.96593333 0.32875 6.96593333 9.98575 0.342626667 9.98575"></polygon>
    </defs>
    <g id="Page-1" stroke="none" stroke-width="1" fill="none" fill-rule="evenodd">
        <g id="Artboard" transform="translate(-188.000000, -246.000000)">
            <g id="分组" transform="translate(188.000000, 246.000000)">
                <g>
                    <mask id="mask-2" fill="white">
                        <use xlink:href="#path-1"></use>
                    </mask>
                    <g id="Clip-2"></g>
                    <path d="M5.97090667,0.0348 L0.995306667,0.0348 C0.445573333,0.0348 0.000373333333,0.5123 -9.33333333e-05,1.1008 L-9.33333333e-05,8.9198 C-9.33333333e-05,9.2393 0.134306667,9.5233 0.342906667,9.7178 L6.65364,0.3288 C6.46977333,0.1403 6.22524,0.0348 5.97090667,0.0348" id="Fill-1" fill="#FF5317" mask="url(#mask-2)"></path>
                </g>
                <g>
                    <mask id="mask-4" fill="white">
                        <use xlink:href="#path-3"></use>
                    </mask>
                    <g id="Clip-4"></g>
                    <path d="M6.94409333,0.88075 C6.94222667,0.87125 6.93802667,0.86275 6.93616,0.85325 C6.92309333,0.79175 6.90489333,0.73175 6.88202667,0.67425 L6.87782667,0.66725 C6.82462667,0.54025 6.74902667,0.42525 6.65429333,0.32925 L6.65382667,0.32875 L0.342626667,9.71825 L0.342626667,9.71875 C0.34496,9.72125 0.34776,9.72275 0.350093333,9.72475 C0.39116,9.76275 0.435493333,9.79825 0.48216,9.82875 L0.48776,9.83225 C0.534893333,9.86325 0.58436,9.88975 0.635226667,9.91175 C0.652026667,9.91825 0.669293333,9.92225 0.685626667,9.92825 C0.725293333,9.94275 0.76496,9.95675 0.806493333,9.96525 C0.867626667,9.97825 0.930626667,9.98575 0.995026667,9.98575 L5.97109333,9.98575 C6.52036,9.98575 6.96556,9.50825 6.96602667,8.91975 L6.96602667,1.10075 C6.96602667,1.02525 6.95809333,0.95175 6.94409333,0.88075" id="Fill-3" fill="#E83D0F" mask="url(#mask-4)"></path>
                </g>
            </g>
        </g>
    </g>
</svg>