<?xml version="1.0" encoding="UTF-8"?>
<svg width="16px" height="15px" viewBox="0 0 16 15" version="1.1" xmlns="http://www.w3.org/2000/svg" xmlns:xlink="http://www.w3.org/1999/xlink">
    <!-- Generator: Sketch 52.1 (67048) - http://www.bohemiancoding.com/sketch -->
    <title>Group 8</title>
    <desc>Created with Sketch.</desc>
    <g id="Page-1" stroke="none" stroke-width="1" fill="none" fill-rule="evenodd">
        <g id="Index---Already-Logged-In---Personal-Center" transform="translate(-940.000000, -625.000000)" fill="#AEADAE">
            <g id="Personal-Center">
                <g id="Main-Menu" transform="translate(909.000000, 45.000000)">
                    <g id="Navigation" transform="translate(0.000000, 174.000000)">
                        <g id="Item-9" transform="translate(0.000000, 392.000000)">
                            <g id="Group-8" transform="translate(31.000000, 14.000000)">
                                <path d="M12,2 L7,2 L8.58084317,0.387466565 C9.09045569,-0.129155522 9.91124941,-0.129155522 10.4191568,0.387466565 L12,2 Z" id="Fill-1"></path>
                                <path d="M11.9986871,7.9734361 L15.9982495,7.9734361 L15.9982495,5.22258023 C15.9982495,4.54715047 15.4019694,4 14.6645514,4 L1.33369803,4 C0.596280088,4.00161104 0,4.54896289 0,5.22258023 L0,13.7772184 C0,14.4526482 0.596280088,15 1.33369803,15 L14.666302,15 C15.4019694,15 16,14.4526482 16,13.7772184 L16,11.0281749 L11.9986871,11.0281749 C11.0824945,11.0281749 10.3328228,10.3412665 10.3328228,9.50010069 C10.3328228,8.66034454 11.0824945,7.9734361 11.9986871,7.9734361" id="Fill-3"></path>
                                <path d="M11,9.00009884 C11,9.35722993 11.1905262,9.68747735 11.4999344,9.86617468 C11.8093426,10.0446084 12.1906574,10.0446084 12.5000656,9.86617468 C12.8094738,9.68747735 13,9.35722993 13,9.00009884 C13,8.64270418 12.8094738,8.31272032 12.5000656,8.134023 C12.1906574,7.95532567 11.8093426,7.95532567 11.4999344,8.134023 C11.1905262,8.31272032 11,8.64270418 11,9.00009884" id="Fill-6"></path>
                            </g>
                        </g>
                    </g>
                </g>
            </g>
        </g>
    </g>
</svg>