<?xml version="1.0" encoding="UTF-8"?>
<svg width="16px" height="17px" viewBox="0 0 16 17" version="1.1" xmlns="http://www.w3.org/2000/svg" xmlns:xlink="http://www.w3.org/1999/xlink">
    <!-- Generator: Sketch 52.1 (67048) - http://www.bohemiancoding.com/sketch -->
    <title>Fill 1</title>
    <desc>Created with Sketch.</desc>
    <g id="Page-1" stroke="none" stroke-width="1" fill="none" fill-rule="evenodd">
        <g id="Index---Already-Logged-In---Personal-Center" transform="translate(-940.000000, -676.000000)" fill="#AEADAE">
            <g id="Personal-Center">
                <g id="Main-Menu" transform="translate(909.000000, 45.000000)">
                    <g id="Navigation" transform="translate(0.000000, 174.000000)">
                        <g id="Item-9-Copy" transform="translate(0.000000, 441.000000)">
                            <path d="M38.4090485,18.7626569 C38.4090485,18.7626569 34.4349173,15.9337839 33.6266679,16.0011856 C32.8184185,16.0683017 33.0880253,18.7626569 33.0880253,18.7626569 L38.4090485,18.7626569 Z M39.4195031,18.7626569 C39.4195031,18.7626569 43.3933486,15.9337839 44.201598,16.0011856 C45.0098475,16.0683017 44.7405262,18.7626569 44.7405262,18.7626569 L39.4195031,18.7626569 Z M45.5487756,19.4361029 L32.2123742,19.4361029 C31.5386426,19.4361029 31,19.9750311 31,20.6484771 C31,21.3222087 31.5386426,21.8608513 32.2123742,21.8608513 L32.4142937,21.8608513 L32.4142937,30.1458365 C32.4142937,31.4930141 33.4918645,32.5705848 34.8390421,32.5705848 L38.4090485,32.5705848 L38.4090485,19.4361029 L39.5543065,19.4361029 L39.5543065,32.5705848 L43.1240273,32.5705848 C44.4712049,32.5705848 45.5487756,31.4930141 45.5487756,30.1458365 L45.5487756,21.8608513 L45.7509808,21.8608513 C46.4244268,21.8608513 46.963355,21.3222087 46.963355,20.6484771 C46.963355,19.9750311 46.2222216,19.4361029 45.5487756,19.4361029 Z" id="Fill-1"></path>
                        </g>
                    </g>
                </g>
            </g>
        </g>
    </g>
</svg>