<?xml version="1.0" encoding="UTF-8"?>
<svg width="19px" height="18px" viewBox="0 0 19 18" version="1.1" xmlns="http://www.w3.org/2000/svg" xmlns:xlink="http://www.w3.org/1999/xlink">
    <!-- Generator: Sketch 52.1 (67048) - http://www.bohemiancoding.com/sketch -->
    <title>Combined Shape</title>
    <desc>Created with Sketch.</desc>
    <g id="Page-1" stroke="none" stroke-width="1" fill="none" fill-rule="evenodd" opacity="0.300000012">
        <g id="Index---Already-Logged-In---Personal-Center" transform="translate(-937.000000, -430.000000)" fill="#000000" fill-rule="nonzero">
            <g id="Personal-Center">
                <g id="Main-Menu" transform="translate(909.000000, 45.000000)">
                    <g id="Navigation" transform="translate(0.000000, 174.000000)">
                        <g id="Item-5" transform="translate(0.000000, 196.000000)">
                            <path d="M45.3482214,22.7708958 C44.8922205,21.7442253 44.150848,20.8641098 43.2172485,20.2421571 L43.2172485,17.7587192 L42.6528509,17.7587192 C42.2265376,17.7587192 41.8180368,17.8624029 41.4544384,18.0481665 C41.1697718,19.7393621 39.705099,21.0313344 37.9462226,21.0313344 C36.6777103,21.0313344 35.5622745,20.3591844 34.9320448,19.350081 C32.3802136,19.7950538 30.3869539,21.9022551 30.0949396,24.5204743 C29.5309503,24.3054446 29.1287581,23.7560032 29.1287581,23.1135678 L29.1287581,21.886482 L28,21.886482 L28,23.1135678 C28,24.3825533 28.8933357,25.4450683 30.079799,25.6973255 C30.1814047,26.87014 30.6298723,27.9964575 31.368239,28.9136135 C32.104342,29.8280037 33.100508,30.5035923 34.2083735,30.8477968 L34.2083735,33 L37.4611279,33 L37.4611279,31.1089497 L38.4552157,31.1089497 L38.4552157,33 L41.7079701,33 L41.7079701,30.8471614 C42.499626,30.6015574 43.2373989,30.1864861 43.8627673,29.6320736 C44.497042,29.0697371 45.0055899,28.3734042 45.3489265,27.6010466 L47,27.6010466 L47,22.7708958 L45.3482214,22.7708958 Z M40.2830787,22.7677188 L35.6332278,22.7677188 L35.6332278,21.6308235 L40.2830787,21.6308235 L40.2830787,22.7677188 Z M42.6139602,24.101329 C42.2027133,24.101329 41.8680974,23.7643008 41.8680974,23.3500893 C41.8680974,22.9358777 42.2027133,22.5988496 42.6139602,22.5988496 C43.0252442,22.5988496 43.359823,22.9358777 43.359823,23.3500893 C43.3597859,23.7643008 43.0252071,24.101329 42.6139602,24.101329 Z M37.9462597,15 C39.2860592,15 40.3760378,16.0977989 40.3760007,17.4472196 C40.3760007,18.7966402 39.286022,19.8944765 37.9462597,19.8944765 C36.6064973,19.8944765 35.5165186,18.7966402 35.5165186,17.4472196 C35.5165186,16.0978363 36.6064973,15 37.9462597,15 Z" id="Combined-Shape"></path>
                        </g>
                    </g>
                </g>
            </g>
        </g>
    </g>
</svg>