<?xml version="1.0" encoding="UTF-8"?>
<svg width="18px" height="16px" viewBox="0 0 18 16" version="1.1" xmlns="http://www.w3.org/2000/svg" xmlns:xlink="http://www.w3.org/1999/xlink">
    <!-- Generator: Sketch 52.1 (67048) - http://www.bohemiancoding.com/sketch -->
    <title>Chat</title>
    <desc>Created with Sketch.</desc>
    <defs>
        <path d="M36.2729533,17.4369812 C40.2898614,17.4369812 43.5459066,20.1639631 43.5459066,23.5294342 C43.5459066,26.8961237 40.2898614,29.6218871 36.2729533,29.6218871 C35.412507,29.6218871 34.5889849,29.4963826 33.8236464,29.2673064 C32.9027786,30.0276445 31.4459501,31 30.0204513,31 C30.7365575,30.2628132 30.9838379,28.8944483 31.0576863,27.7758739 C29.78436,26.6792324 29,25.1792704 29,23.5294342 C29,20.1639631 32.2560453,17.4369812 36.2729533,17.4369812 Z M45.9403866,24.1228391 C45.9135327,25.1926738 45.9862622,27.5151169 47,28.5630188 C45.5745011,28.5630188 44.1154348,27.5882263 43.1968049,26.8278882 C44.1221483,25.7300282 44.6648225,24.3787221 44.6648225,22.9201889 C44.6648225,19.2196329 41.1581401,16.2184906 36.8324113,16.2184906 C36.1946292,16.2184906 35.5747498,16.2842891 34.9817244,16.4061381 C36.2416237,15.5288249 37.8618139,15 39.629701,15 C43.6466091,15 46.9026543,17.726982 46.9026543,21.092453 C46.9026543,22.1964055 46.5524336,23.2321225 45.9403866,24.1228391 Z" id="path-1"></path>
    </defs>
    <g id="Page-1" stroke="none" stroke-width="1" fill="none" fill-rule="evenodd">
        <g id="Index---Already-Logged-In---Personal-Center" transform="translate(-938.000000, -577.000000)">
            <g id="Personal-Center">
                <g id="Main-Menu" transform="translate(909.000000, 45.000000)">
                    <g id="Navigation" transform="translate(0.000000, 174.000000)">
                        <g id="Item-8" transform="translate(0.000000, 343.000000)">
                            <mask id="mask-2" fill="white">
                                <use xlink:href="#path-1"></use>
                            </mask>
                            <use id="Chat" fill="#030104" fill-rule="nonzero" opacity="0.300000012" xlink:href="#path-1"></use>
                        </g>
                    </g>
                </g>
            </g>
        </g>
    </g>
</svg>