<?xml version="1.0" encoding="UTF-8"?>
<svg width="13px" height="16px" viewBox="0 0 13 16" version="1.1" xmlns="http://www.w3.org/2000/svg" xmlns:xlink="http://www.w3.org/1999/xlink">
    <!-- Generator: Sketch 52.2 (67145) - http://www.bohemiancoding.com/sketch -->
    <title>合并形状</title>
    <desc>Created with Sketch.</desc>
    <g id="首页" stroke="none" stroke-width="1" fill="none" fill-rule="evenodd">
        <g id="Main-Menu" transform="translate(-30.000000, -435.000000)" fill="#ADADAD">
            <g id="Navigation" transform="translate(0.000000, 174.000000)">
                <g id="Item-6" transform="translate(0.000000, 245.000000)">
                    <path d="M40.9937501,17.1165813 C42.1006447,17.1165813 43.0020019,18.013245 42.9999967,19.1158316 L42.9999967,29.9997501 C42.9999967,31.1023366 42.1006447,32 40.9937501,32 L32.0042413,32 C30.920407,32 30.0360944,31.1393228 30,30.0687242 L30,19.0468574 C30.0360944,17.9762589 30.920407,17.1165813 32.0042413,17.1165813 L33.4460118,17.1165813 L33.4460118,16 L34.2481094,16 L34.2481094,17.1165813 L38.7829686,17.1165813 L38.7829686,16 L39.5850662,16 L39.5850662,17.1165813 L40.9937501,17.1165813 Z M32.6830164,28.205423 L37.6459953,28.205423 L37.6459953,27.4057229 L32.6830164,27.4057229 L32.6830164,28.205423 Z M32.6829162,21.7898288 L40.2147128,21.7898288 L40.2147128,20.9901287 L32.6829162,20.9901287 L32.6829162,21.7898288 Z M32.6829162,24.9636386 L40.2147128,24.9636386 L40.2147128,24.1629389 L32.6829162,24.1629389 L32.6829162,24.9636386 Z" id="合并形状"></path>
                </g>
            </g>
        </g>
    </g>
</svg>