<?xml version="1.0" encoding="UTF-8"?>
<svg width="12px" height="12px" viewBox="0 0 12 12" version="1.1" xmlns="http://www.w3.org/2000/svg" xmlns:xlink="http://www.w3.org/1999/xlink">
    <!-- Generator: Sketch 52.1 (67048) - http://www.bohemiancoding.com/sketch -->
    <title>Edit</title>
    <desc>Created with Sketch.</desc>
    <g id="组件" stroke="none" stroke-width="1" fill="none" fill-rule="evenodd" opacity="0.400000006">
        <g id="Top-Header/News-Item" transform="translate(-30.000000, -97.000000)" fill="#000000">
            <g id="Date" transform="translate(30.000000, 97.000000)">
                <path d="M8.95195651,2.73130268 L6.73182522,0.965215728 L7.08499809,0.525650511 C7.57077489,-0.0782625324 8.45698934,-0.176088619 9.06355389,0.306520076 L9.08586023,0.324780946 C9.69375082,0.807389641 9.79221909,1.68782442 9.30644229,2.29043312 L8.95195651,2.73130268 Z M6.79483441,6.43695616 C6.78303135,6.32999964 6.81191537,6.21781268 6.88541209,6.12782573 L8.55019546,4.06043442 L8.14319327,3.73695616 L2.99527205,10.1282605 L0.775140758,8.36217355 L6.4521517,1.31217355 L8.67097008,3.07956486 L8.6696703,3.08086921 L9.07667249,3.40434747 L9.31429612,3.10956486 C9.45871625,2.93086921 9.72262435,2.89173877 9.90643179,3.02999964 C10.0968038,3.1734779 10.1296265,3.4434779 9.98126767,3.62739095 L7.54581909,6.6534779 C7.40008605,6.83478225 7.13356527,6.8634779 6.95105761,6.71869529 C6.86047993,6.64565182 6.80663748,6.54389964 6.79483441,6.43695616 Z M2.62634426,10.4543475 C2.51999853,10.5117257 2.42546899,10.5508562 2.4267819,10.5508562 L0.291989773,11.5160736 C0.13837927,11.5865083 -0.0296732465,11.4521736 0.00446242092,11.2878127 L0.483674675,9.00781268 C0.483674675,9.00781268 0.500742508,8.90607355 0.534878176,8.7899866 L2.62634426,10.4543475 Z M11.6933106,10.8626057 C11.8390436,10.8626057 11.9545666,10.9486927 11.9887285,11.0804449 C12.0097351,11.1613014 11.9926672,11.2513014 11.9454025,11.3243449 C11.9020633,11.3908796 11.8364178,11.4339231 11.761595,11.4456623 L11.7602821,11.4456623 L11.7589561,11.4456623 L7.4092843,11.996084 L7.40797139,11.996084 L7.40664535,11.996084 C7.39876789,11.9974014 7.38959065,11.9974014 7.38171319,11.9974014 C7.30950312,11.9974014 7.24121866,11.9687057 7.18738934,11.9139362 C7.08235651,11.808284 7.06136308,11.6034883 7.15195389,11.4808796 C7.18477664,11.4365318 7.2175994,11.3908796 7.25042216,11.3465449 C7.35151625,11.2056623 7.23335432,11.0126188 7.06136308,11.0387057 L2.02240028,11.7913144 C2.00533244,11.7939101 1.98957752,11.7952275 1.9738226,11.7952275 C1.89242216,11.7952275 1.81758627,11.7626188 1.76375695,11.7039231 C1.71780509,11.6543579 1.68892106,11.5878362 1.68366942,11.5174014 C1.67054032,11.3595753 1.77557314,11.2278362 1.93180947,11.2043579 L3.31036527,10.9982579 L3.81583573,10.9226188 L8.04340684,10.2913144 C8.06047467,10.2887057 8.0762296,10.2873883 8.09198452,10.2873883 C8.32305673,10.2873883 8.48979634,10.5547796 8.36506986,10.7556492 C8.31780509,10.8313144 8.27054032,10.9069536 8.22197577,10.9813144 C8.13269787,11.1221709 8.24823397,11.302184 8.41366067,11.2813144 L11.6394681,10.8665188 C11.657862,10.8639231 11.6749429,10.8626057 11.6933106,10.8626057 Z" id="Edit"></path>
            </g>
        </g>
    </g>
</svg>