<?xml version="1.0" encoding="UTF-8"?>
<svg width="15px" height="16px" viewBox="0 0 15 16" version="1.1" xmlns="http://www.w3.org/2000/svg" xmlns:xlink="http://www.w3.org/1999/xlink">
    <!-- Generator: Sketch 52.1 (67048) - http://www.bohemiancoding.com/sketch -->
    <title>Power</title>
    <desc>Created with Sketch.</desc>
    <defs>
        <path d="M37.5003003,32 C33.3645002,32 30,28.6500266 30,24.5334435 C30,22.4042419 30.9170802,20.3708885 32.5170949,18.9541995 C32.9590995,18.5625058 33.6360981,18.6020761 34.0294505,19.0416764 C34.4229795,19.4813118 34.3832309,20.1563293 33.9410849,20.5479878 C32.7985151,21.5604261 32.1429631,23.0125702 32.1429631,24.5334435 C32.1429631,27.4751564 34.5464299,29.8667886 37.5003357,29.8667886 C40.45463,29.8667886 42.8570015,27.4751564 42.8570015,24.5334435 C42.8570015,23.0126054 42.2022269,21.5604613 41.0616357,20.5479878 C40.618041,20.1563293 40.5781158,19.4834222 40.9717508,19.0416764 C41.3648559,18.6020761 42.043091,18.5625058 42.4846718,18.9541995 C44.0835204,20.3708885 45,22.4042419 45,24.5334435 C45,28.6500266 41.6351112,32 37.5003003,32 Z M38.5713226,22.4000563 L38.5713226,17.0667112 C38.5713226,16.4771305 38.0921132,16 37.5003003,16 C36.9086288,16 36.4287834,16.4771305 36.4287834,17.0667112 L36.4287834,22.4000563 C36.4287834,22.9897073 36.9084875,23.4667675 37.5003003,23.4667675 C38.0921132,23.4667323 38.5713226,22.9897073 38.5713226,22.4000563 Z" id="path-1"></path>
    </defs>
    <g id="Page-1" stroke="none" stroke-width="1" fill="none" fill-rule="evenodd">
        <g id="Index---Already-Logged-In---Personal-Center" transform="translate(-939.000000, -725.000000)">
            <g id="Personal-Center">
                <g id="Main-Menu" transform="translate(909.000000, 45.000000)">
                    <g id="Navigation" transform="translate(0.000000, 174.000000)">
                        <g id="Item-10-Copy" transform="translate(0.000000, 490.000000)">
                            <mask id="mask-2" fill="white">
                                <use xlink:href="#path-1"></use>
                            </mask>
                            <use id="Power" fill="#000000" fill-rule="nonzero" opacity="0.300000012" xlink:href="#path-1"></use>
                        </g>
                    </g>
                </g>
            </g>
        </g>
    </g>
</svg>