<?xml version="1.0" encoding="UTF-8"?>
<svg width="14px" height="14px" viewBox="0 0 14 14" version="1.1" xmlns="http://www.w3.org/2000/svg" xmlns:xlink="http://www.w3.org/1999/xlink">
    <!-- Generator: Sketch 52.1 (67048) - http://www.bohemiancoding.com/sketch -->
    <title>Refresh</title>
    <desc>Created with Sketch.</desc>
    <g id="Page-1" stroke="none" stroke-width="1" fill="none" fill-rule="evenodd">
        <g id="Index---Already-Logged-In---Personal-Center" transform="translate(-1091.000000, -174.000000)" fill="#1E5ADC" fill-rule="nonzero">
            <g id="Personal-Center">
                <g id="Main-Menu" transform="translate(909.000000, 45.000000)">
                    <path d="M195.824916,129.777957 C195.941983,129.896764 196,130.037342 196,130.199856 L196,134.400023 C196,134.562537 195.941628,134.703147 195.824916,134.821888 C195.70814,134.940662 195.569752,135 195.409883,135 L191.278095,135 C191.118226,135 190.979838,134.940662 190.862868,134.821888 C190.746317,134.703147 190.687752,134.562504 190.687752,134.400023 C190.687752,134.237509 190.74635,134.0968 190.862868,133.978026 L192.135812,132.684321 C191.225763,131.828046 190.152905,131.399875 188.916948,131.399875 C188.093117,131.399875 187.324588,131.603075 186.611266,132.009309 C185.898009,132.415577 185.326208,132.975 184.895863,133.687511 C184.828156,133.793807 184.665282,134.159421 184.407082,134.784388 C184.357852,134.928053 184.26569,134.999967 184.130372,134.999967 L182.295091,134.999967 C182.215172,134.999967 182.146043,134.970315 182.087607,134.910911 C182.02917,134.851607 182,134.781235 182,134.699995 L182,134.634418 C182.399657,132.95927 183.229658,131.601564 184.490166,130.560971 C185.750641,129.520247 187.226192,129 188.917077,129 C189.814787,129 190.688107,129.173383 191.536457,129.520214 C192.384871,129.867013 193.138152,130.356196 193.796009,130.987533 L194.994882,129.777957 C195.111853,129.659348 195.250046,129.599846 195.409883,129.599846 C195.569784,129.599846 195.708172,129.659348 195.824916,129.777957 Z M195.703189,137.000394 C195.783606,137.000394 195.853152,137.030177 195.911891,137.089249 C195.970566,137.148847 196,137.21892 196,137.300289 C196,137.331418 195.997079,137.35332 195.990881,137.365798 C195.595382,139.040717 194.767679,140.398634 193.507611,141.439154 C192.247543,142.479707 190.771342,143 189.078779,143 C188.177019,143 187.304532,142.828298 186.461383,142.484436 C185.618233,142.140704 184.866145,141.649964 184.205184,141.012609 L183.009988,142.222073 C182.892575,142.340645 182.753646,142.400309 182.59307,142.400309 C182.432463,142.400309 182.293468,142.340612 182.176023,142.222073 C182.058642,142.103369 182,141.962599 182,141.800223 L182,137.600217 C182,137.437742 182.058642,137.29694 182.17599,137.178335 C182.293339,137.059467 182.432333,137 182.593038,137 L186.743947,137 C186.904555,137 187.043484,137.059467 187.160865,137.178335 C187.278181,137.296907 187.336888,137.437709 187.336888,137.600184 C187.336888,137.762593 187.278181,137.903395 187.160865,138.022033 L185.891483,139.306331 C186.329982,139.718855 186.827285,140.037663 187.383197,140.262855 C187.939045,140.487785 188.516635,140.600184 189.115742,140.600184 C189.943412,140.600184 190.715491,140.397222 191.432141,139.990871 C192.148498,139.584652 192.722973,139.025054 193.155436,138.312734 C193.223294,138.206443 193.387115,137.841006 193.646411,137.215998 C193.695706,137.072207 193.788358,137.000394 193.92427,137.000394 L195.703189,137.000394 Z" id="Refresh"></path>
                </g>
            </g>
        </g>
    </g>
</svg>