<?xml version="1.0" encoding="UTF-8"?>
<svg width="13px" height="16px" viewBox="0 0 13 16" version="1.1" xmlns="http://www.w3.org/2000/svg" xmlns:xlink="http://www.w3.org/1999/xlink">
    <!-- Generator: Sketch 52.1 (67048) - http://www.bohemiancoding.com/sketch -->
    <title>Fill 1</title>
    <desc>Created with Sketch.</desc>
    <g id="Page-1" stroke="none" stroke-width="1" fill="none" fill-rule="evenodd">
        <g id="Index---Already-Logged-In---Personal-Center" transform="translate(-940.000000, -529.000000)" fill="#ADADAD">
            <g id="Personal-Center">
                <g id="Main-Menu" transform="translate(909.000000, 45.000000)">
                    <g id="Navigation" transform="translate(0.000000, 174.000000)">
                        <g id="Item-7" transform="translate(0.000000, 294.000000)">
                            <path d="M36.9363333,25.8402664 C36.8293964,25.9472033 36.6562316,25.9472033 36.5492947,25.8402664 L34.3158938,23.606744 C34.2089569,23.4999286 34.035549,23.4999286 33.9287337,23.606744 L33.6221408,23.9134584 C33.5153254,24.0201522 33.5153254,24.1934386 33.6221408,24.3003754 L36.5492947,27.2275294 C36.6562316,27.3344662 36.8295179,27.3344662 36.9363333,27.2275294 L41.8721992,22.2916634 C41.9791361,22.1848481 41.9791361,22.0115617 41.8721992,21.9047464 L41.5654848,21.598032 C41.4586695,21.4910951 41.2855046,21.4910951 41.1785678,21.598032 L36.9363333,25.8402664 Z M37.8569626,16.1461956 C37.9591602,16.2471781 38.052973,16.3298111 38.1382795,16.3944593 C39.3283168,17.2934582 41.4883201,17.8861072 43.458389,18.0151606 C43.5306929,18.0200213 43.6237766,18.0247606 43.7376401,18.0293783 C43.8840707,18.0354543 44,18.1617127 44,18.3153129 L44,24.1607499 C44,25.5508078 43.4274016,27.0078227 42.5053141,28.0079255 C42.0266501,28.676281 41.4146795,29.3033199 40.7729367,29.9211234 C39.0767721,31.7608022 36.1981043,31.7529035 34.3527141,30.1240605 C33.6274876,29.4837759 32.9637499,28.7358254 32.3615009,27.8799658 C31.4861982,26.8887339 31,25.5883572 31,24.2381576 L31,18.325399 C31,18.1719203 31.1158078,18.0456619 31.2623599,18.0395859 C31.3955449,18.0339961 31.503697,18.0282846 31.5866946,18.0225732 C33.5669711,17.8858642 35.7295264,17.2834936 36.9018219,16.3741656 C36.9771637,16.3155934 37.0599183,16.2408591 37.1498425,16.1502058 C37.3467036,15.9515219 37.6579142,15.9496991 37.8568411,16.1461956 L37.8569626,16.1461956 Z" id="Fill-1"></path>
                        </g>
                    </g>
                </g>
            </g>
        </g>
    </g>
</svg>