<?xml version="1.0" encoding="UTF-8"?>
<svg width="17px" height="16px" viewBox="0 0 17 16" version="1.1" xmlns="http://www.w3.org/2000/svg" xmlns:xlink="http://www.w3.org/1999/xlink">
    <!-- Generator: Sketch 52.1 (67048) - http://www.bohemiancoding.com/sketch -->
    <title>Transfer</title>
    <desc>Created with Sketch.</desc>
    <g id="Page-1" stroke="none" stroke-width="1" fill="none" fill-rule="evenodd">
        <g id="Index---Already-Logged-In---Personal-Center" transform="translate(-938.000000, -332.000000)" fill="#FFFFFF" fill-rule="nonzero">
            <g id="Personal-Center">
                <g id="Main-Menu" transform="translate(909.000000, 45.000000)">
                    <g id="Navigation" transform="translate(0.000000, 174.000000)">
                        <g id="Item-3:Hover" transform="translate(0.000000, 97.000000)">
                            <path d="M45.468501,18.1330673 C45.7617418,18.1330673 45.9997344,18.3709304 45.9997344,18.6663926 L45.9997344,20.7996938 C45.9997344,21.0940894 45.7617418,21.3330191 45.468501,21.3330191 L33.2501328,21.3330191 L33.2501328,22.932995 C33.2501328,23.1484585 33.1205119,23.3436555 32.9218306,23.4257876 C32.7231493,23.5079197 32.4957814,23.4620537 32.3427862,23.3095227 L29.1553858,20.1095709 C28.9482047,19.901574 28.9482047,19.5634458 29.1553858,19.3554489 L32.3427862,16.1554971 C32.4957814,16.0040327 32.7231493,15.9581667 32.9218306,16.0402988 C33.1205119,16.1224309 33.2501328,16.317628 33.2501328,16.5330914 L33.2501328,18.1330673 L45.468501,18.1330673 Z M45.8446142,27.8897204 C46.0517953,28.0977172 46.0517953,28.4358455 45.8446142,28.6438424 L42.6572138,31.8437942 C42.5052811,31.9963252 42.2768507,32.0421912 42.0781694,31.9589924 C41.8794881,31.8768603 41.7498672,31.6816633 41.7498672,31.4661999 L41.7498672,29.8662239 L29.531499,29.8662239 C29.2382582,29.8662239 29.0002656,29.6272942 29.0002656,29.3328986 L29.0002656,27.1995974 C29.0002656,26.9052019 29.2382582,26.6662721 29.531499,26.6662721 L41.7498672,26.6662721 L41.7498672,25.0662962 C41.7498672,24.8508328 41.8794881,24.6567024 42.0781694,24.5735037 C42.2768507,24.4903049 42.5052811,24.5361709 42.6572138,24.6887019 L45.8446142,27.8897204 Z" id="Transfer"></path>
                        </g>
                    </g>
                </g>
            </g>
        </g>
    </g>
</svg>