<?xml version="1.0" encoding="UTF-8"?>
<svg width="21px" height="20px" viewBox="0 0 21 20" version="1.1" xmlns="http://www.w3.org/2000/svg" xmlns:xlink="http://www.w3.org/1999/xlink">
    <!-- Generator: Sketch 52.2 (67145) - http://www.bohemiancoding.com/sketch -->
    <title>Wallet</title>
    <desc>Created with Sketch.</desc>
    <g id="个人中心" stroke="none" stroke-width="1" fill="none" fill-rule="evenodd">
        <g id="个人中心-消息详情" transform="translate(-149.000000, -427.000000)" fill="#1E5ADC" fill-rule="nonzero">
            <g id="Main-Menu" transform="translate(120.000000, 119.000000)">
                <g id="Top-Bar">
                    <g id="Balance" transform="translate(29.000000, 288.000000)">
                        <g id="Information">
                            <path d="M4.90746771,23.8071094 L3.76137002,23.8071094 L11.2558113,20.1221213 C11.8382931,19.8343413 12.5457608,20.0729881 12.8358226,20.6508878 L13.279169,21.5399643 L4.90746771,23.8071094 Z M15.8779337,21.6054752 C16.3967434,21.6054752 16.873105,21.9470678 17.0145985,22.4688153 L17.3824818,23.8071094 L14.4111173,23.8071094 L7.59348681,23.8071094 L13.5999113,22.1810353 L15.566648,21.6475894 C15.6704099,21.6195133 15.7741954,21.6054752 15.8779337,21.6054752 Z M18.6111173,24.6259956 C19.2619876,24.6259956 19.7902302,25.1500828 19.787872,25.7958331 L19.787872,28.9894895 L19.5379001,28.9894895 L19.1723751,28.9894895 L18.8068501,28.9894895 L12.7886581,28.9894895 C12.7084784,28.9894895 12.6282987,28.9941922 12.5504773,29.0035275 C12.0835486,29.0573401 11.6661426,29.2725902 11.3548568,29.5908094 C11.0034576,29.9487796 10.7865244,30.4377483 10.7865244,30.9758736 L10.7865244,31.7807218 L10.7865244,32.1433714 L10.7865244,32.506021 L10.7865244,33.5775922 C10.7865244,34.6748997 11.6850084,35.5663159 12.7910163,35.5663159 L19.787872,35.5663159 L19.787872,38.8301625 C19.787872,39.4759362 19.259653,40 18.6087591,40 L1.17911286,40 C0.52824256,40 0,39.4759362 0,38.8301625 L0,27.2698284 L0,25.9362136 L0,25.7958331 C0,25.6905478 0.01650758,25.5876021 0.0424480629,25.4893357 C0.0848961258,25.3325775 0.160359349,25.1898573 0.259404829,25.0658545 C0.476361595,24.7967919 0.808871421,24.6259956 1.18147108,24.6259956 L1.88422235,24.6259956 L2.09410444,24.6259956 L3.22605278,24.6259956 L4.57024144,24.6259956 L14.8214486,24.6259956 L17.6112296,24.6259956 L17.9767546,24.6259956 L18.3422796,24.6259956 L18.6111173,24.6259956 Z M20.6156092,30.1078541 C20.8514318,30.3207412 21,30.6296017 21,30.9712176 L21,33.5752759 C21,33.916845 20.8514318,34.2256821 20.6156092,34.4385925 C20.4976979,34.5462176 20.3585626,34.6304459 20.2029197,34.6819187 C20.0826502,34.7216932 19.955306,34.74509 19.8208871,34.74509 L19.7902302,34.74509 L12.7910163,34.74509 C12.1401224,34.74509 11.6119034,34.2210028 11.6119034,33.5752525 L11.6119034,32.2790725 L11.6119034,31.9164229 L11.6119034,31.5537733 L11.6119034,30.9712176 C11.6119034,30.3254439 12.1401224,29.8013801 12.7910163,29.8013801 L18.0828748,29.8013801 L19.401123,29.8013801 L19.766648,29.8013801 L19.7902302,29.8013801 L19.8208871,29.8013801 C19.955306,29.8013801 20.0826266,29.8247769 20.2029197,29.8645279 C20.3585626,29.9183405 20.4976979,30.0002291 20.6156092,30.1078541 Z M15.2530039,32.506021 L15.2530039,32.117635 C15.2530039,31.7947364 14.9888827,31.5327162 14.6634475,31.5327162 L14.3710275,31.5327162 L14.271982,31.5327162 C14.1352285,31.5327162 14.010219,31.581826 13.9088153,31.6590353 C13.76968,31.7643206 13.6824256,31.930461 13.6824256,32.117635 L13.6824256,32.506021 C13.6824256,32.8288962 13.9465469,33.0909398 14.271982,33.0909398 L14.6634475,33.0909398 C14.9888827,33.0909398 15.2530039,32.8288962 15.2530039,32.506021 Z" id="Wallet"></path>
                        </g>
                    </g>
                </g>
            </g>
        </g>
    </g>
</svg>