<?xml version="1.0" encoding="utf-8"?>
<!-- Generator: Adobe Illustrator 22.1.0, SVG Export Plug-In . SVG Version: 6.00 Build 0)  -->
<svg version="1.1" id="Layer_1" xmlns="http://www.w3.org/2000/svg" xmlns:xlink="http://www.w3.org/1999/xlink" x="0px" y="0px"
	 viewBox="0 0 19.6 15.5" style="enable-background:new 0 0 19.6 15.5;" xml:space="preserve">
<g id="Group-3" transform="translate(0.000000, 0.035310)">
	<path id="Fill-1" d="M19.6,3.8V2.4c0-1.3-1.1-2.4-2.4-2.4H2.4C1.1,0,0,1.1,0,2.4v1.4H19.6z"/>
</g>
<g id="Group-6" transform="translate(0.000000, 6.300049)">
	<path id="Fill-4" d="M6.6,6.1c0,0.4-0.3,0.7-0.7,0.7H3c-0.4,0-0.7-0.3-0.7-0.7v-1c0-0.3,0.3-0.6,0.7-0.6h2.9c0.4,0,0.7,0.3,0.7,0.7
		V6.1z M0-0.2v7c0,1.3,1.1,2.4,2.4,2.4h14.8c1.3,0,2.4-1.1,2.4-2.4v-7C19.6-0.2,0-0.2,0-0.2z"/>
</g>
</svg>
