<?xml version="1.0" encoding="UTF-8"?>
<svg width="12px" height="12px" viewBox="0 0 12 12" version="1.1" xmlns="http://www.w3.org/2000/svg" xmlns:xlink="http://www.w3.org/1999/xlink">
    <!-- Generator: Sketch 52.1 (67048) - http://www.bohemiancoding.com/sketch -->
    <title>Shape</title>
    <desc>Created with Sketch.</desc>
    <g id="Page-1" stroke="none" stroke-width="1" fill="none" fill-rule="evenodd">
        <g id="输入状态-" transform="translate(-1257.000000, -45.000000)" fill="#FFFFFF" fill-rule="nonzero">
            <g id="Content">
                <g id="Top-Header" transform="translate(121.000000, 27.000000)">
                    <g id="Close" transform="translate(1136.000000, 13.000000)">
                        <path d="M7.42619095,11.0000282 L11.704637,6.72158211 C12.0984731,6.32774601 12.0984731,5.68921317 11.704637,5.29543342 C11.3108009,4.90159732 10.6723244,4.90159732 10.2784883,5.29543342 L5.99998591,9.57393583 L1.72148351,5.29537707 C1.32764741,4.90154098 0.689170916,4.90154098 0.295334817,5.29537707 C-0.098444939,5.68921317 -0.098444939,6.32774601 0.295334817,6.72152576 L4.57383723,10.9999718 L0.295334817,15.2784742 C-0.098444939,15.6723103 -0.098444939,16.3108432 0.295334817,16.7046229 C0.689170916,17.098459 1.32764741,17.098459 1.72148351,16.7046229 L5.99998591,12.4261205 L10.2784883,16.7046229 C10.6722681,17.098459 11.3108009,17.098459 11.704637,16.7046229 C12.0984731,16.3107868 12.0984731,15.6723103 11.704637,15.2784742 L7.42619095,11.0000282 Z" id="Shape"></path>
                    </g>
                </g>
            </g>
        </g>
    </g>
</svg>