<?xml version="1.0" encoding="UTF-8"?>
<svg width="30px" height="30px" viewBox="0 0 30 30" version="1.1" xmlns="http://www.w3.org/2000/svg" xmlns:xlink="http://www.w3.org/1999/xlink">
    <!-- Generator: Sketch 52.1 (67048) - http://www.bohemiancoding.com/sketch -->
    <title>fill_1_slice</title>
    <desc>Created with Sketch.</desc>
    <g id="Page-1" stroke="none" stroke-width="1" fill="none" fill-rule="evenodd">
        <g id="Artboard" transform="translate(-10.000000, -10.000000)" fill="#FFFFFF">
            <path d="M36.7337374,22.0556664 C36.6157576,15.387022 31.4165657,10 25.0351515,10 C18.6537374,10 13.4513131,15.387022 13.3333333,22.0589029 L11.0957576,22.0589029 C10.4913131,22.0589029 10,22.5500297 10,23.1560494 L10,31.4307676 C10,32.0367873 10.4913131,32.5287232 11.0957576,32.5287232 L15.6064646,32.5287232 C16.8412121,35.4026647 19.2452525,37.6001942 22.1753535,38.4473273 C22.4242424,39.3413884 23.239596,40 24.2125253,40 L26.2884848,40 C27.4351515,40 28.4622222,39.1391121 28.520404,37.9926102 C28.5826263,36.7700523 27.6113131,35.7619073 26.4088889,35.7619073 L24.2125253,35.7619073 C23.4949495,35.7619073 22.8606061,36.12115 22.4775758,36.6729597 C20.1575758,35.936674 18.2585859,34.158261 17.2573737,31.8466476 L17.2573737,22.2878796 C17.2573737,17.6800259 20.7490909,13.9322509 25.0383838,13.9322509 C29.3284848,13.9322509 32.8193939,17.6800259 32.8193939,22.2878796 L32.8193939,32.5254868 L38.9042424,32.5254868 C39.5094949,32.5254868 40,32.03436 40,31.4275312 L40,23.152813 C40,22.5467932 39.5094949,22.0556664 38.9042424,22.0556664 L36.7337374,22.0556664 Z" id="Fill-1"></path>
        </g>
    </g>
</svg>