<?xml version="1.0" encoding="UTF-8"?>
<svg width="23px" height="17px" viewBox="0 0 23 17" version="1.1" xmlns="http://www.w3.org/2000/svg" xmlns:xlink="http://www.w3.org/1999/xlink">
    <!-- Generator: Sketch 52.2 (67145) - http://www.bohemiancoding.com/sketch -->
    <title>隐藏_slice</title>
    <desc>Created with Sketch.</desc>
    <g id="Page-1" stroke="none" stroke-width="1" fill="none" fill-rule="evenodd">
        <g id="Artboard" transform="translate(-885.000000, -228.000000)" fill="#B4BDCA">
            <path d="M901.776419,229.227068 C901.776419,229.286542 901.77067,229.323346 901.762082,229.340384 C900.856603,230.933012 899.502679,233.327462 897.708826,236.512717 C895.909367,239.703498 894.563959,242.089694 893.66423,243.673714 L893.034718,244.798659 C892.94837,244.934681 892.830618,245 892.675386,245 C892.571791,245 891.999808,244.705285 890.956346,244.112916 C890.818363,244.027938 890.752102,243.911717 890.752102,243.758692 C890.752102,243.656711 890.941865,243.291151 891.315677,242.656453 C890.093951,242.109459 888.964142,241.378341 887.932215,240.46593 C886.900107,239.55614 886.00893,238.521841 885.25588,237.365618 C885.086168,237.104944 885,236.813134 885,236.492951 C885,236.172626 885.086168,235.880781 885.25588,235.620107 C886.569559,233.644882 888.1937,232.080628 890.137035,230.935775 C892.080226,229.790922 894.201682,229.212793 896.501401,229.212793 C897.263291,229.212793 898.030823,229.283638 898.81262,229.428232 L899.505482,228.201199 C899.59165,228.065177 899.709546,228 899.864813,228 C899.907897,228 899.98271,228.025469 900.09766,228.076512 C900.206861,228.127592 900.342041,228.192733 900.494326,228.272044 C900.649593,228.351461 900.78754,228.427832 900.916971,228.507249 C901.046258,228.58656 901.178456,228.660309 901.322189,228.742489 C901.463119,228.821765 901.546483,228.869939 901.572319,228.889847 C901.7075,228.969122 901.776419,229.082474 901.776419,229.227068 Z M892.126256,241.245223 L893.126635,239.462767 C892.382136,238.929907 891.801457,238.261167 891.378848,237.450738 C890.962095,236.643071 890.752102,235.784502 890.752102,234.883285 C890.752102,233.863119 891.013731,232.913763 891.534079,232.035393 C889.573604,233.021554 887.943713,234.509295 886.644371,236.501381 C888.075947,238.677771 889.898403,240.258921 892.126256,241.245223 Z M896.938348,232.07496 C897.056281,231.958881 897.119559,231.814286 897.119559,231.644223 C897.119559,231.477065 897.059227,231.332471 896.938348,231.213487 C896.820595,231.097372 896.673916,231.034993 896.501401,231.034993 C895.432104,231.034993 894.515126,231.411888 893.747595,232.168511 C892.979956,232.925098 892.597735,233.829078 892.597735,234.883285 C892.597735,235.050444 892.658103,235.195038 892.778802,235.314022 C892.896734,235.430278 893.04327,235.492551 893.215785,235.492551 C893.385317,235.492551 893.531996,235.433041 893.652731,235.314022 C893.770484,235.197801 893.833798,235.053348 893.833798,234.883285 C893.833798,234.157834 894.095427,233.537233 894.615775,233.024316 C895.135943,232.511364 895.765635,232.253454 896.501401,232.253454 C896.671114,232.250691 896.817649,232.191181 896.938348,232.07496 Z M908,236.501381 C908,236.796096 907.913832,237.087941 907.744264,237.374225 C907.410769,237.915515 906.94504,238.527509 906.347076,239.207584 C905.064983,240.658522 903.578825,241.783609 901.888567,242.585608 C900.195362,243.38743 898.401653,243.787065 896.501401,243.787065 L897.452946,242.115127 C899.26685,241.962102 900.945753,241.386913 902.489333,240.38375 C904.033055,239.380551 905.323845,238.085437 906.358575,236.498619 C905.372678,234.990934 904.1682,233.749768 902.739463,232.777741 L903.550042,231.360844 C904.363604,231.902134 905.142634,232.545405 905.89299,233.296361 C906.640291,234.047281 907.258448,234.823811 907.747067,235.625775 C907.913832,235.911917 908,236.206667 908,236.501381 Z M902.250701,234.880381 C902.250701,236.053607 901.914403,237.121982 901.236021,238.085437 C900.560443,239.051796 899.666463,239.746146 898.553937,240.165512 L902.147249,233.814945 C902.216313,234.197543 902.250701,234.551767 902.250701,234.880381 Z" id="隐藏"></path>
        </g>
    </g>
</svg>