<?xml version="1.0" encoding="UTF-8"?>
<svg width="22px" height="14px" viewBox="0 0 22 14" version="1.1" xmlns="http://www.w3.org/2000/svg" xmlns:xlink="http://www.w3.org/1999/xlink">
    <!-- Generator: Sketch 52.2 (67145) - http://www.bohemiancoding.com/sketch -->
    <title>显示_slice</title>
    <desc>Created with Sketch.</desc>
    <g id="Page-1" stroke="none" stroke-width="1" fill="none" fill-rule="evenodd">
        <g id="Artboard" transform="translate(-886.000000, -299.000000)">
            <g id="显示" transform="translate(886.000000, 299.000000)">
                <path d="M13.2082753,0.270064516 C12.4608276,0.132774194 11.7271874,0.0650322581 10.9981498,0.0650322581 C8.79916234,0.0650322581 6.77120418,0.615096774 4.91271046,1.70529032 C3.05421674,2.79458065 1.50132971,4.284 0.244844351,6.1636129 C0.104928033,6.37767742 0.0239238494,6.61341935 0.00459330544,6.87083871 C0.00183179916,6.91148387 -9.20502092e-06,6.95303226 -9.20502092e-06,6.99458065 C-9.20502092e-06,7.03612903 0.00183179916,7.07767742 0.00459330544,7.11832258 C0.0239238494,7.37483871 0.104928033,7.61148387 0.244844351,7.82554839 C0.96559749,8.92567742 1.81706192,9.91019355 2.80384017,10.7763871 C3.79061841,11.6443871 4.87128787,12.3407742 6.03940502,12.8610323 C6.03940502,12.8610323 8.16760586,13.6007742 8.39128787,13.6432258 C8.51095314,13.4326839 8.63807448,13.2096774 8.77329623,12.972129 C8.89848452,12.7535484 9.02928787,12.5223226 9.16736318,12.2802581 C8.65086946,12.2450323 6.81446778,11.5179355 6.81446778,11.5179355 C4.68442594,10.5794839 2.94191548,9.07380645 1.57312887,7.00270968 C2.81488619,5.10683871 4.37421674,3.69058065 6.248359,2.75212903 C5.79086946,3.52077419 5.54233389,4.34722581 5.50643431,5.22967742 C5.65371464,2.41251613 8.06276067,0.172516129 11.0137983,0.172516129 C12.393631,0.172516129 13.6556393,0.662967742 14.6221665,1.47225806 C14.623087,1.47225806 14.623087,1.47225806 14.623087,1.47316129 C14.7768109,1.60141935 14.9240912,1.73870968 15.0621665,1.88322581 C15.1017481,1.81367742 15.1413297,1.74412903 15.1799908,1.6763871 C15.3134636,1.44064516 15.4414134,1.21754839 15.5629197,1.0043871 C15.5629197,1.0043871 13.700836,0.350451613 13.2082753,0.270064516 M21.7523757,6.16903226 C21.2847607,5.40580645 20.6937983,4.66696774 19.9795808,3.9516129 C19.2614971,3.23716129 18.5168109,2.62477419 17.7389866,2.10993548 L17.3524678,2.78193548 L16.9639238,3.45845161 C18.329949,4.38335484 19.4814971,5.56477419 20.4240912,7 C19.4345515,8.51019355 18.2001582,9.74309677 16.7245933,10.6978065 C15.2481079,11.6525161 13.6409113,12.2206452 11.9066854,12.3669677 L11.4427523,13.1690323 L10.9981498,13.9367742 C12.8152209,13.9367742 14.5310368,13.5565161 16.1502,12.7932903 C17.7666937,12.0300645 19.1869364,10.9597419 20.4131372,9.57870968 C20.9855975,8.93109677 21.4302,8.34851613 21.7496142,7.83367742 C21.9116226,7.56090323 21.9935473,7.28270968 21.9935473,7.00270968 C21.9935473,6.72180645 21.9116226,6.44180645 21.7523757,6.16903226" id="Fill-1" fill="#B4BDCA"></path>
                <path d="M14.6221941,1.4722671 C13.8876335,1.22388 13.0858762,1.02697677 12.2132402,0.905944516" id="Stroke-4" stroke="#B4BDCA" stroke-width="1.56485356" stroke-linecap="round" stroke-linejoin="round"></path>
                <path d="M14.6230962,1.47315226 C14.8127197,1.53728129 14.9986611,1.60502323 15.18,1.67637806 C15.9937238,1.99521677 16.7172385,2.37637806 17.3523849,2.78192645 C19.9003347,4.4077329 21.0463598,6.42734581 21.0463598,6.42734581" id="Stroke-6" stroke="#B4BDCA" stroke-width="1.56485356" stroke-linecap="round" stroke-linejoin="round"></path>
                <path d="M12.9800368,12.9947006 C12.4433841,13.0913458 11.9297439,13.1464426 11.4427983,13.1690232 C10.424631,13.2150877 9.52171046,13.1193458 8.77334226,12.97212 C7.30422092,12.6840813 6.42606192,12.1980555 6.42606192,12.1980555" id="Stroke-8" stroke="#B4BDCA" stroke-width="1.56485356" stroke-linecap="round" stroke-linejoin="round"></path>
                <path d="M8.36547699,2.87857161 C9.09920921,2.15779742 9.97635565,1.79921677 10.998205,1.79921677 C11.1638033,1.79921677 11.3038117,1.85882968 11.416113,1.96902323 C11.5320042,2.08282968 11.5899958,2.22012 11.5899958,2.37908774 C11.5899958,2.54166839 11.5292427,2.67895871 11.416113,2.78915226 C11.3010502,2.90024903 11.1610418,2.95624903 10.998205,2.95895871 C10.2949414,2.95895871 9.69293305,3.20463613 9.19586192,3.69328129 C8.69777824,4.18102323 8.44749372,4.7717329 8.44749372,5.46270065 C8.44749372,5.62437806 8.38664854,5.76166839 8.27443933,5.87276516 C8.15937657,5.98566839 8.0184477,6.04257161 7.85653138,6.04257161 C7.69176151,6.04257161 7.55175314,5.98295871 7.43862343,5.87276516 C7.32356067,5.75895871 7.26556904,5.62166839 7.26556904,5.46270065 C7.26556904,4.45921677 7.63100837,3.59844258 8.36547699,2.87857161 M15.0621297,1.88321677 C14.9240544,1.73870065 14.7767741,1.60141032 14.6230502,1.47315226 C14.6230502,1.47224903 14.6230502,1.47224903 14.6222218,1.47224903 C13.6556946,0.66295871 12.3936862,0.172507097 11.0138536,0.172507097 C8.06272385,0.172507097 5.65367782,2.4125071 5.50639749,5.22966839 C5.50464854,5.25586194 5.50363598,5.28295871 5.50363598,5.30915226 C5.49995397,5.37418452 5.49903347,5.43921677 5.49903347,5.50424903 C5.49903347,8.44876516 7.96791213,10.835991 11.0138536,10.835991 C14.0597029,10.835991 16.52941,8.44876516 16.52941,5.50424903 C16.52941,4.10605548 15.9725983,2.83341032 15.0621297,1.88321677" id="Fill-10" fill="#B4BDCA"></path>
            </g>
        </g>
    </g>
</svg>