<?xml version="1.0" encoding="UTF-8"?>
<svg width="20px" height="20px" viewBox="0 0 20 20" version="1.1" xmlns="http://www.w3.org/2000/svg" xmlns:xlink="http://www.w3.org/1999/xlink">
    <!-- Generator: Sketch 52.2 (67145) - http://www.bohemiancoding.com/sketch -->
    <title>faq_slice</title>
    <desc>Created with Sketch.</desc>
    <g id="充提转" stroke="none" stroke-width="1" fill="none" fill-rule="evenodd">
        <g id="Artboard" fill="#A0AFC0" fill-rule="nonzero">
            <path d="M10.0004168,0 C4.47917969,0 0,4.47335332 0,9.99474361 C0,15.5214134 4.47917969,20 10.0003705,20 C15.524618,20 20,15.5213671 20,9.99474361 C20.0000463,4.47335332 15.524618,0 10.0004168,0 Z M10.7130452,15.5590187 C10.4807821,15.7657084 10.2116071,15.8695859 9.90667797,15.8695859 C9.59118929,15.8695859 9.3159935,15.7675609 9.08109059,15.5631404 C8.84581718,15.3590904 8.72794891,15.0733927 8.72794891,14.706325 C8.72794891,14.3807065 8.84201946,14.106633 9.06941955,13.8845214 C9.29681964,13.6624098 9.57576684,13.551354 9.90667797,13.551354 C10.2323093,13.551354 10.5063936,13.6624098 10.7288844,13.8845214 C10.9510048,14.106633 11.0624355,14.3806602 11.0624355,14.706325 C11.0620186,15.0681131 10.9456787,15.3523752 10.7130452,15.5590187 Z M13.6091775,8.3793866 C13.430731,8.7102847 13.2187996,8.99561195 12.9729667,9.23620197 C12.7278748,9.47674567 12.2870614,9.88104804 11.6508042,10.4494796 C11.4753681,10.6098575 11.334204,10.7506455 11.2284236,10.8718436 C11.1226432,10.9934585 11.0435858,11.1044679 10.9919924,11.2053814 C10.9400284,11.3062486 10.9001524,11.4071621 10.871901,11.5080293 C10.8436497,11.608526 10.8011338,11.785854 10.7435196,12.0391798 C10.6456588,12.5767677 10.3380897,12.8455153 9.82118294,12.8455153 C9.55237844,12.8455153 9.3265067,12.7578007 9.14240989,12.5820009 C8.95905409,12.4062012 8.8675846,12.1453266 8.8675846,11.7990066 C8.8675846,11.364972 8.93497098,10.9888736 9.06937324,10.6708039 C9.20303447,10.3526878 9.38185153,10.0737516 9.60397186,9.83320791 C9.8264627,9.5926642 10.1261121,9.30729064 10.5037074,8.97639254 C10.8346185,8.68689722 11.0736897,8.46858321 11.2208745,8.32135786 C11.3684298,8.17380834 11.4923189,8.00967917 11.5928195,7.82897037 C11.6941075,7.64789107 11.7438021,7.45176043 11.7438021,7.23983745 C11.7438021,6.82613377 11.5905965,6.47754455 11.2826569,6.19332878 C10.9750879,5.90911301 10.5782724,5.76679673 10.0922568,5.76679673 C9.5234324,5.76679673 9.10480319,5.9102245 8.83599868,6.19708004 C8.56719418,6.48393558 8.34021091,6.90629957 8.15384473,7.46458881 C7.97766755,8.04885899 7.64411654,8.34094777 7.15356222,8.34094777 C6.8640555,8.34094777 6.61975093,8.23892279 6.42060217,8.03487282 C6.22182392,7.83082285 6.1224348,7.60986905 6.1224348,7.37196513 C6.1224348,6.88105961 6.28017914,6.38339257 6.59529731,5.8793345 C6.91078599,5.37527642 7.37081961,4.95777518 7.97576869,4.62724757 C8.58034726,4.29634947 9.28626013,4.13069201 10.0922568,4.13069201 C10.8417972,4.13069201 11.5032489,4.26921073 12.0769826,4.54592398 C12.6507162,4.82222042 13.0941696,5.19831888 13.4070184,5.67412673 C13.7194967,6.14956409 13.8760832,6.66645054 13.8760832,7.22473979 C13.8768242,7.66335923 13.7876241,8.0484885 13.6091775,8.3793866 Z" id="FAQ"></path>
        </g>
    </g>
</svg>