<?xml version="1.0" encoding="UTF-8"?>
<svg width="21px" height="19px" viewBox="0 0 21 19" version="1.1" xmlns="http://www.w3.org/2000/svg" xmlns:xlink="http://www.w3.org/1999/xlink">
    <!-- Generator: Sketch 52.2 (67145) - http://www.bohemiancoding.com/sketch -->
    <title>分组_slice</title>
    <desc>Created with Sketch.</desc>
    <g id="Page-1" stroke="none" stroke-width="1" fill="none" fill-rule="evenodd">
        <g id="Artboard" fill="#1E5ADC">
            <g id="分组">
                <path d="M0,1.66827942 C0,0.746626688 0.753048316,6.10932476e-06 1.68206003,6.10932476e-06 L19.3076091,6.10932476e-06 C20.2355447,6.10932476e-06 20.988101,0.746504502 20.9897921,1.66827942 L20.9897921,15.0142826 C20.9897921,15.9360576 20.2366208,16.6825254 19.3076091,16.6825254 L1.68206003,16.6825254 C0.754247438,16.6825254 0.00156808199,15.9361797 0,15.0142826 L0,1.66827942 Z M1.25941581,1.66827942 L1.25941581,15.0142826 C1.25941581,15.2428936 1.44918448,15.4313051 1.68206003,15.4313051 L19.3076091,15.4313051 C19.5414378,15.4313051 19.7303763,15.2440849 19.7303763,15.0142826 L19.7303763,1.66827942 C19.7303763,1.43976013 19.5406076,1.25122637 19.3076091,1.25122637 L1.68206003,1.25122637 C1.44832357,1.25122637 1.25941581,1.43844662 1.25941581,1.66827942 Z" id="Fill-1"></path>
                <path d="M5.45730044,18.9763722 L15.532381,18.9763722 C15.8801877,18.9763722 16.1620735,18.6963207 16.1620735,18.3507773 C16.1620735,18.0053561 15.8801877,17.7251519 15.532381,17.7251519 L5.45730044,17.7251519 C5.10961669,17.7251519 4.82760791,18.0053561 4.82760791,18.3507773 C4.82760791,18.6963207 5.10961669,18.9763722 5.45730044,18.9763722 Z M13.8759022,7.68236897 L8.59660059,4.56814068 C7.78095198,4.08718408 6.92665476,4.57137862 6.92665476,5.51487219 L6.92665476,11.7736921 C6.92665476,12.7192018 7.77879971,13.2029381 8.59660059,12.7203931 L13.8759022,9.60671463 C14.6819271,9.13116479 14.6835874,8.15944614 13.8759022,7.68270498 L13.8759022,7.68236897 Z M8.18594758,11.5072339 L8.18594758,5.78093328 L13.0397148,8.64409887 L8.18594758,11.5072339 Z" id="Fill-3"></path>
            </g>
        </g>
    </g>
</svg>