<?xml version="1.0" encoding="UTF-8"?>
<svg width="14px" height="21px" viewBox="0 0 14 21" version="1.1" xmlns="http://www.w3.org/2000/svg" xmlns:xlink="http://www.w3.org/1999/xlink">
    <!-- Generator: Sketch 52.2 (67145) - http://www.bohemiancoding.com/sketch -->
    <title>Fill 1</title>
    <desc>Created with Sketch.</desc>
    <g id="充提转" stroke="none" stroke-width="1" fill="none" fill-rule="evenodd">
        <path d="M6.98738323,10.0199874 C5.50279641,10.0199874 4.30013772,8.75967992 4.30013772,7.203659 C4.2967006,6.19491213 4.80807784,5.261159 5.64082635,4.75575314 C6.47374251,4.25034728 7.50098204,4.25034728 8.33377246,4.75575314 C9.16668862,5.261159 9.67802395,6.19491213 9.67441916,7.203659 C9.67475449,7.95065272 9.39165269,8.6671569 8.88765269,9.19536402 C8.38369461,9.72361506 7.70008383,10.0203389 6.98738323,10.0199874 M6.98738323,0 C3.12811976,0 0,3.27850418 0,7.3234205 C0,10.46191 4.207,17.4764372 6.09205389,20.4619958 C6.51616168,21.1340397 7.45860479,21.1340397 7.88233533,20.4619958 C9.76726347,17.4764372 13.9742635,10.4620858 13.9742635,7.3234205 C13.9745988,3.27850418 10.8466048,0 6.98738323,0" id="Fill-1" fill="#B2B2B2"></path>
    </g>
</svg>