<?xml version="1.0" encoding="UTF-8"?>
<svg width="24px" height="30px" viewBox="0 0 24 30" version="1.1" xmlns="http://www.w3.org/2000/svg" xmlns:xlink="http://www.w3.org/1999/xlink">
    <!-- Generator: Sketch 52.2 (67145) - http://www.bohemiancoding.com/sketch -->
    <title>shape_slice</title>
    <desc>Created with Sketch.</desc>
    <g id="个人中心" stroke="none" stroke-width="1" fill="none" fill-rule="evenodd" opacity="0.300000012">
        <g id="Artboard" fill="#000000" fill-rule="nonzero">
            <path d="M21.8992764,12.1152459 L21.3017147,12.1152459 L21.3017147,9.37937226 C21.3017147,4.31916472 17.1967227,0.0920833393 12.065971,0.00184906304 C11.9257796,-0.000616354346 11.6456489,-0.000616354346 11.5055206,0.00184906304 C6.37464286,0.0920833393 2.26971385,4.31916472 2.26971385,9.37937226 L2.26971385,12.1152459 L1.67208912,12.1152459 C0.751173655,12.1152459 0,13.0448316 0,14.1929148 L0,27.9149349 C0,29.0617238 0.751173655,30 1.67215212,30 L21.8992764,30 C22.8201919,30 23.5714286,29.0617238 23.5714286,27.9149349 L23.5714286,14.1929148 C23.5714286,13.0448932 22.8202549,12.1152459 21.8992764,12.1152459 Z M13.6807234,21.0399952 L13.6807234,25.1862726 C13.6807234,25.6610503 13.274389,26.0628517 12.7886653,26.0628517 L10.7828893,26.0628517 C10.2971026,26.0628517 9.89076816,25.6610503 9.89076816,25.1862726 L9.89076816,21.0399952 C9.41966219,20.5863584 9.14539118,19.9590946 9.14539118,19.2652029 C9.14539118,17.9502725 10.1844454,16.8203717 11.5055836,16.7681665 C11.6455859,16.7626193 11.9260317,16.7626193 12.066034,16.7681665 C13.3871722,16.8203717 14.4262264,17.9502725 14.4262264,19.2652029 C14.4261004,19.9590946 14.1518294,20.5863584 13.6807234,21.0399952 Z M17.3631881,12.1152459 L12.065971,12.1152459 L11.5055206,12.1152459 L6.20836646,12.1152459 L6.20836646,9.37937226 C6.20836646,6.36509133 8.71253067,3.87273926 11.7857143,3.87273926 C14.8588979,3.87273926 17.3631881,6.36509133 17.3631881,9.37937226 L17.3631881,12.1152459 Z" id="Shape"></path>
        </g>
    </g>
</svg>