<?xml version="1.0" encoding="UTF-8"?>
<svg width="19px" height="20px" viewBox="0 0 19 20" version="1.1" xmlns="http://www.w3.org/2000/svg" xmlns:xlink="http://www.w3.org/1999/xlink">
    <!-- Generator: Sketch 52.1 (67048) - http://www.bohemiancoding.com/sketch -->
    <g id="Page-1" stroke="none" stroke-width="1" fill="none" fill-rule="evenodd">
        <g id="输入状态-" transform="translate(-537.000000, -364.000000)" fill="#231F20">
            <g id="Form" transform="translate(465.000000, 151.000000)">
                <g id="Input---T" transform="translate(50.000000, 198.000000)">
                    <g id="Content" transform="translate(22.000000, 9.000000)">
                        <path d="M13.5168003,13.082265 L10.6056058,13.082265 L10.6056058,20.2382479 L8.39439422,20.2382479 L8.39439422,13.082265 L5.48319973,13.082265 L5.48319973,10.8952991 L13.5168003,10.8952991 L13.5168003,13.082265 Z M15.244073,6.74465812 C15.244073,6.74465812 11.7873671,6 9.49945989,6 C7.21155267,6 3.75484678,6.74465812 3.75484678,6.74465812 C2.58496788,9.20405983 0.652453238,8.95619658 0,8.95619658 C0,21.3215812 9.49945989,26 9.49945989,26 C9.49945989,26 19,21.3215812 19,8.95619658 C18.3464665,8.95619658 16.1687418,8.80235043 15.244073,6.74465812 Z" id="Shield"></path>
                    </g>
                </g>
            </g>
        </g>
    </g>
</svg>