<?xml version="1.0" encoding="UTF-8"?>
<svg width="21px" height="16px" viewBox="0 0 21 16" version="1.1" xmlns="http://www.w3.org/2000/svg" xmlns:xlink="http://www.w3.org/1999/xlink">
    <!-- Generator: Sketch 52.5 (67469) - http://www.bohemiancoding.com/sketch -->
    <title>银行卡</title>
    <desc>Created with Sketch.</desc>
    <g id="充提转" stroke="none" stroke-width="1" fill="none" fill-rule="evenodd">
        <g id="充值-微信" transform="translate(-492.000000, -106.000000)" fill="#FFFFFF" fill-rule="nonzero">
            <g id="Deposit-Popup" transform="translate(0.000000, -1.000000)">
                <g id="Form" transform="translate(405.000000, 60.000000)">
                    <g id="Tabs" transform="translate(53.000000, 30.000000)">
                        <g id="Tab-1">
                            <g id="Text" transform="translate(34.000000, 17.000000)">
                                <g id="银行卡">
                                    <path d="M1,7 L20,7 C20.5522847,7 21,7.44771525 21,8 L21,16 L0,16 L0,8 C-6.76353751e-17,7.44771525 0.44771525,7 1,7 Z" id="矩形" transform="translate(10.500000, 11.500000) scale(1, -1) translate(-10.500000, -11.500000) "></path>
                                    <path d="M1,0 L20,0 C20.5522847,-1.01453063e-16 21,0.44771525 21,1 L21,6 L0,6 L0,1 C-6.76353751e-17,0.44771525 0.44771525,1.01453063e-16 1,0 Z" id="矩形"></path>
                                </g>
                            </g>
                        </g>
                    </g>
                </g>
            </g>
        </g>
    </g>
</svg>