<?xml version="1.0" encoding="UTF-8"?>
<svg width="19px" height="18px" viewBox="0 0 19 18" version="1.1" xmlns="http://www.w3.org/2000/svg" xmlns:xlink="http://www.w3.org/1999/xlink">
    <!-- Generator: Sketch 52.1 (67048) - http://www.bohemiancoding.com/sketch -->
    <title>Combined Shape</title>
    <desc>Created with Sketch.</desc>
    <g id="Page-1" stroke="none" stroke-width="1" fill="none" fill-rule="evenodd" opacity="0.300000012">
        <g id="Index---Already-Logged-In---Personal-Center" transform="translate(-936.000000, -281.000000)" fill="#000000" fill-rule="nonzero">
            <g id="Personal-Center">
                <g id="Main-Menu" transform="translate(909.000000, 45.000000)">
                    <g id="Navigation" transform="translate(0.000000, 174.000000)">
                        <g id="Item-2" transform="translate(0.000000, 49.000000)">
                            <path d="M42.4822737,18.1864 C43.0878316,18.1864 43.5804632,18.6791579 43.5804,19.2848421 L43.5804,25.3105474 C43.5803368,25.3186947 43.5707368,26.1344421 43.1676632,26.9213263 C42.6583579,27.9155579 41.7517895,28.4196842 40.4731579,28.4196842 C40.1920421,28.4196842 39.9641684,28.6475579 39.9641684,28.9286737 L39.9641684,30.9864842 L33.7497474,30.9864842 L33.7497474,28.9286737 C33.7497474,28.6494526 33.5223789,28.4223368 33.2431579,28.4196842 C33.0482526,28.4177895 31.3389474,28.3488211 31.3389474,26.5177474 L31.3389474,23.6885895 L37.9786105,23.6885895 C37.7259789,24.0887579 37.5534316,24.6166316 37.5534316,25.3121263 C37.5534316,25.5932421 37.7813684,25.8211158 38.0624211,25.8211158 C38.3435368,25.8211158 38.5714105,25.5931789 38.5714105,25.3121263 C38.5714105,23.4811789 40.2805895,23.4121474 40.4731579,23.4103158 C40.7542737,23.4103158 40.9821474,23.1823789 40.9821474,22.9013263 L40.9821474,19.2847789 C40.9821474,18.6791579 41.4748421,18.1864 42.0804,18.1864 L42.4822737,18.1864 Z M45.1217053,13.0134526 C45.4730526,13.0134526 45.7578947,13.2982947 45.7578316,13.6496421 L45.7578316,22.1326316 C45.7578316,22.4839789 45.4729895,22.7688211 45.1216421,22.7688211 L44.5983789,22.7688211 L44.5983789,20.4954526 L44.8309263,20.2864 C44.9382947,20.1898316 44.9996211,20.0522737 44.9996211,19.9078947 L44.9996211,15.8743789 C44.9996211,15.73 44.9382947,15.5924421 44.8309263,15.4958737 L43.1466316,13.9816632 C43.0531579,13.8976632 42.9319579,13.8511789 42.8063368,13.8511789 L29.9514947,13.8511789 C29.8258737,13.8511789 29.7046105,13.8976632 29.6112,13.9816632 L27.9268421,15.4958737 C27.8194737,15.5924421 27.7581474,15.73 27.7581474,15.8743789 L27.7581474,19.9078316 C27.7581474,20.0522105 27.8194737,20.1897684 27.9268421,20.2863368 L29.6112,21.8006105 C29.7046737,21.8846105 29.8258737,21.9310947 29.9514947,21.9310947 L39.9641684,21.9310947 L39.9641684,22.4446947 C39.7049053,22.4914947 39.3750316,22.6013263 39.0401684,22.7687579 L27.6361895,22.7687579 C27.2848421,22.7687579 27,22.4839158 27,22.1325684 L27,13.6496421 C27,13.2982947 27.2848421,13.0134526 27.6361895,13.0134526 L45.1217053,13.0134526 Z M30.1466526,14.8690947 L42.6112421,14.8690947 L43.9817053,16.1011789 L43.9817053,17.7930526 C43.5982737,17.4075368 43.0676842,17.1684842 42.4822737,17.1684842 L42.0804,17.1684842 C40.9135579,17.1684842 39.9642316,18.1178737 39.9642316,19.2848421 L39.9642316,20.9131158 L30.1466526,20.9131158 L28.7761263,19.6810316 L28.7761263,16.1011789 L30.1466526,14.8690947 Z M32.1798947,18.4001263 C32.4609474,18.4001263 32.6888211,18.1722526 32.6888211,17.8911368 C32.6888211,17.6100211 32.4608842,17.3821474 32.1798316,17.3821474 L30.0803368,17.3821474 C29.7992211,17.3821474 29.5713474,17.6100211 29.5713474,17.8911368 C29.5713474,18.1722526 29.7992842,18.4001263 30.0803368,18.4001263 L32.1798947,18.4001263 Z M36.3789474,19.9906316 C37.5384632,19.9906316 38.4784421,19.0505895 38.4784421,17.8910737 C38.4784421,16.7315579 37.5384632,15.7915789 36.3789474,15.7915789 C35.2194316,15.7915789 34.2794526,16.7316211 34.2794526,17.8911368 C34.2794526,19.0506526 35.2194316,19.9906316 36.3789474,19.9906316 Z" id="Combined-Shape"></path>
                        </g>
                    </g>
                </g>
            </g>
        </g>
    </g>
</svg>