<?xml version="1.0" encoding="UTF-8"?>
<svg width="11px" height="12px" viewBox="0 0 11 12" version="1.1" xmlns="http://www.w3.org/2000/svg" xmlns:xlink="http://www.w3.org/1999/xlink">
    <!-- Generator: Sketch 52.2 (67145) - http://www.bohemiancoding.com/sketch -->
    <title>time_slice</title>
    <desc>Created with Sketch.</desc>
    <g id="Symbols" stroke="none" stroke-width="1" fill="none" fill-rule="evenodd">
        <g id="Artboard" transform="translate(0.000000, -1.000000)" fill="#E9811D" fill-rule="nonzero">
            <path d="M10.9312117,7.86849232 C10.6947963,10.2998852 8.76611805,12.2541014 6.38411194,12.4776701 C3.56831927,12.7419643 1.16725174,10.6272578 0.888739959,7.87866879 L0.392490286,7.87866879 C0.0907899871,7.87866879 -0.0977703,7.54502164 0.053108643,7.27815882 L1.16297108,5.31498178 C1.31383082,5.04813857 1.69091301,5.04815817 1.84175356,5.31500139 L2.95140484,7.27817843 C3.10224539,7.54506086 2.9136851,7.87866879 2.612004,7.87866879 L2.17998345,7.87866879 C2.46064516,9.93080664 4.33100657,11.4698855 6.47546473,11.1488266 C8.06232345,10.9112775 9.34949744,9.63243401 9.61921754,8.01751197 C10.0229243,5.60043284 8.20201125,3.49676557 5.90922719,3.49676557 C5.16569729,3.49676557 4.44806252,3.71711857 3.83160879,4.13439321 C3.54551467,4.32804032 3.14892956,4.28972658 2.93904275,4.01237356 C2.71051681,3.71037347 2.78186758,3.2792557 3.08660082,3.06905956 C3.74799191,2.61266728 4.49777963,2.32745151 5.28332912,2.22813775 L5.28332912,1.48400028 L4.76918897,1.48400028 C4.59229972,1.48400028 4.44888794,1.33752965 4.44888794,1.15682372 L4.44888794,0.827176565 C4.44888794,0.64647063 4.59228053,0.5 4.76918897,0.5 L7.15351777,0.5 C7.33040701,0.5 7.47381879,0.64647063 7.47381879,0.827176565 L7.47381879,1.15682372 C7.47381879,1.33751005 7.33042621,1.48400028 7.15351777,1.48400028 L6.58720345,1.48400028 L6.58720345,2.23590246 C9.21418628,2.59796139 11.207132,5.03062876 10.9312117,7.86849232 Z M11.0971017,2.91696148 L10.1313229,2.00509847 C10.0014058,1.88245138 9.798775,1.89058864 9.67868611,2.02327495 L9.42320929,2.30560836 C9.3031204,2.43829468 9.31108665,2.64529474 9.44100379,2.76796144 L10.4067826,3.67980484 C10.5366997,3.80243233 10.7393305,3.79431468 10.8594194,3.66162836 L11.1148962,3.37929495 C11.2349851,3.24660864 11.2270189,3.03960858 11.0971017,2.91696148 Z M5.89404332,4.16939322 L5.89404332,7.36927649 L8.99541182,7.36927649 C8.99545021,5.42057005 7.54801054,4.16939322 5.89404332,4.16939322 Z" id="Time"></path>
        </g>
    </g>
</svg>