<?xml version="1.0" encoding="UTF-8"?>
<svg width="22px" height="22px" viewBox="0 0 22 22" version="1.1" xmlns="http://www.w3.org/2000/svg" xmlns:xlink="http://www.w3.org/1999/xlink">
    <!-- Generator: Sketch 52.5 (67469) - http://www.bohemiancoding.com/sketch -->
    <title>Group 15</title>
    <desc>Created with Sketch.</desc>
    <g id="首页" stroke="none" stroke-width="1" fill="none" fill-rule="evenodd">
        <g id="首页-登录后" transform="translate(-1349.000000, -458.000000)" fill="#FFFFFF">
            <g id="Right-Bar" transform="translate(1318.000000, 224.000000)">
                <g id="Group-53-Copy-2" transform="translate(16.000000, 234.000000)">
                    <g id="Group-15" transform="translate(15.000000, 0.000000)">
                        <path d="M11.3000844,0.879971354 L12.4727034,0.146695312 C12.032982,0.146695312 11.7397771,0 11.3000844,0 L10.1274654,0 L11.3000844,0.879971354 Z M2.65217323,7.48002865 L5.7303088,8.65327604 L10.7137606,5.28 L10.860363,1.90663802 L8.66172744,0.293276042 C5.87679672,0.879971354 3.38507084,2.64 1.7727591,4.98660937 L2.65217323,7.48002865 Z M11.1534533,6.15997135 L6.46312052,9.38666667 L8.07543226,14.9599427 L13.7918102,15.106638 L15.6973268,9.68005729 L11.1534533,6.15997135 Z M11.7397771,1.90663802 L11.7397771,5.28 L16.4301386,8.79997135 L19.654762,7.77330469 L20.5341762,5.42669531 C19.0684669,2.93327604 16.7233434,1.17336198 13.9384127,0.293276042 L11.7397771,1.90663802 Z M1.47966876,7.62660938 L1.03994738,6.30666667 C0.746742533,6.89336198 0.453652199,7.62660938 0.307049777,8.36 L1.47966876,7.62660938 Z M21.1205,8.50669531 L20.9738976,7.48002865 L20.6807786,8.21330469 L21.1205,8.50669531 Z M18.0424503,19.36 L16.576741,19.36 L16.1370482,20.6800573 C16.8698313,20.3866667 17.4561551,19.9466667 18.0424503,19.36 Z M19.947881,8.94666667 L16.8698313,9.82663802 L14.8177982,15.546638 L16.7233434,18.3333333 L19.2150693,18.3333333 C20.9738976,16.4266953 22,13.933276 22,11.293276 L22,10.5600286 L19.947881,8.94666667 Z M4.99738258,17.893362 L7.0494157,15.4000573 L5.29050154,9.68005729 L2.06596394,8.50669531 L0.0139308157,9.97333333 L0.0139308157,10.8533047 C-0.132671607,13.4933047 0.893344955,15.9866094 2.35905427,18.0400573 L4.99738258,17.893362 Z M3.38507084,18.92 C3.97139464,19.5066953 4.55768982,19.9466667 5.14401363,20.2399714 L4.70429224,18.92 L3.38507084,18.92 Z M15.6973268,18.7733047 L13.9384127,16.28 L7.78234193,16.1333047 L5.7303088,18.7733047 L6.60972294,21.1200286 C7.92882984,21.706724 9.24805125,22 10.7137606,22 C12.1794699,22 13.4986913,21.8533047 14.8177982,21.2666094 L15.6973268,18.7733047 Z" id="Fill-1"></path>
                    </g>
                </g>
            </g>
        </g>
    </g>
</svg>