<?xml version="1.0" encoding="UTF-8"?>
<svg width="17px" height="16px" viewBox="0 0 17 16" version="1.1" xmlns="http://www.w3.org/2000/svg" xmlns:xlink="http://www.w3.org/1999/xlink">
    <!-- Generator: Sketch 52.2 (67145) - http://www.bohemiancoding.com/sketch -->
    <title>transfer_slice</title>
    <desc>Created with Sketch.</desc>
    <g id="充提转" stroke="none" stroke-width="1" fill="none" fill-rule="evenodd">
        <g id="Artboard" transform="translate(0.000000, -1.000000)" fill="#000000" fill-rule="nonzero">
            <path d="M16.468501,3.13306732 C16.7617418,3.13306732 16.9997344,3.3709304 16.9997344,3.66639262 L16.9997344,5.79969382 C16.9997344,6.09408939 16.7617418,6.33301913 16.468501,6.33301913 L4.25013281,6.33301913 L4.25013281,7.93299503 C4.25013281,8.14845845 4.12051186,8.34365551 3.92183057,8.42578761 C3.72314928,8.50791971 3.49578138,8.46205373 3.34278616,8.30952269 L0.155385769,5.10957088 C-0.0517952564,4.90157402 -0.0517952564,4.56344578 0.155385769,4.35544891 L3.34278616,1.1554971 C3.49578138,1.00403271 3.72314928,0.958166739 3.92183057,1.04029884 C4.12051186,1.12243093 4.25013281,1.31762799 4.25013281,1.53309141 L4.25013281,3.13306732 L16.468501,3.13306732 Z M16.8446142,12.8897204 C17.0517953,13.0977172 17.0517953,13.4358455 16.8446142,13.6438424 L13.6572138,16.8437942 C13.5052811,16.9963252 13.2768507,17.0421912 13.0781694,16.9589924 C12.8794881,16.8768603 12.7498672,16.6816633 12.7498672,16.4661999 L12.7498672,14.8662239 L0.531499016,14.8662239 C0.238258179,14.8662239 0.0002656167,14.6272942 0.0002656167,14.3328986 L0.0002656167,12.1995974 C0.0002656167,11.9052019 0.238258179,11.6662721 0.531499016,11.6662721 L12.7498672,11.6662721 L12.7498672,10.0662962 C12.7498672,9.85083281 12.8794881,9.6567024 13.0781694,9.57350366 C13.2768507,9.49030491 13.5052811,9.53617089 13.6572138,9.68870192 L16.8446142,12.8897204 Z" id="Transfer"></path>
        </g>
    </g>
</svg>