<?xml version="1.0" encoding="utf-8"?>
<!-- Generator: Adobe Illustrator 22.1.0, SVG Export Plug-In . SVG Version: 6.00 Build 0)  -->
<svg version="1.1" id="Layer_1" xmlns="http://www.w3.org/2000/svg" xmlns:xlink="http://www.w3.org/1999/xlink" x="0px" y="0px"
	 viewBox="0 0 22.5 24.1" style="enable-background:new 0 0 22.5 24.1;" xml:space="preserve">
<style type="text/css">
	.st0{fill:#B2B2B2;}
</style>
<title>group_6_slice</title>
<desc>Created with Sketch.</desc>
<g id="充提转">
	<g id="Artboard" transform="translate(-19.000000, -11.000000)">
		<g id="Group-6" transform="translate(19.000000, 11.000000)">
			<path id="Fill-1" class="st0" d="M15.4,10.3c-0.2-0.1-0.4-0.1-0.4-0.1s0.4-1.6-0.4-2.8c-0.6-0.9-1.6-1.7-3.5-1.8c0,0-1-0.1-1,0.6
				c-0.5,0-2.4,0-2.7,1.7c-0.3,1.7,0,2.3,0,2.3S6.8,10,6.8,11s0.3,1.8,1,1.8c0.2,0.8,1.1,3.7,3.5,3.7c0,0,2.4-0.1,3.3-3.6
				c0.6-0.1,0.8-0.3,1-0.9C15.7,11.3,15.9,10.5,15.4,10.3"/>
			<g id="Group-5" transform="translate(0.000000, 0.086597)">
				<path id="Fill-3" class="st0" d="M18.5,18.9c0-0.3-0.1-1.1-1-1.5C16.6,16.9,15,16.5,14,16c-0.3-0.1-0.7-0.1-0.9,0.2
					c-0.7,0.7-1.8,0.6-1.8,0.6s-1.1,0.1-1.8-0.6c-0.3-0.2-0.6-0.3-0.9-0.2c-1,0.4-2.6,0.9-3.5,1.4c-0.9,0.5-1,1.3-1,1.5
					c-1.6-1.9-2.5-4.3-2.5-7c0-5.8,4.4-10.4,9.8-10.4S21,6.2,21,12C21,14.6,20.1,17.1,18.5,18.9 M11.3-0.1C5-0.1,0,5.3,0,12
					c0,6.6,5,12,11.3,12s11.3-5.4,11.3-12C22.5,5.3,17.5-0.1,11.3-0.1"/>
			</g>
		</g>
	</g>
</g>
</svg>
