<?xml version="1.0" encoding="UTF-8"?>
<svg width="18px" height="24px" viewBox="0 0 18 24" version="1.1" xmlns="http://www.w3.org/2000/svg" xmlns:xlink="http://www.w3.org/1999/xlink">
    <!-- Generator: Sketch 52.1 (67048) - http://www.bohemiancoding.com/sketch -->
    <title>User</title>
    <desc>Created with Sketch.</desc>
    <g id="Page-1" stroke="none" stroke-width="1" fill="none" fill-rule="evenodd">
        <g id="Log-In---By-Login" transform="translate(-751.000000, -188.000000)" fill="#FFFFFF" fill-rule="nonzero">
            <g id="Content">
                <g id="Form" transform="translate(465.000000, 117.000000)">
                    <g id="Tabs" transform="translate(50.000000, 58.000000)">
                        <g id="Tab-2" transform="translate(207.000000, 0.000000)">
                            <g id="Text" transform="translate(29.000000, 13.000000)">
                                <path d="M8.9957027,11.7375771 C6.3656201,11.7375771 4.23342574,9.11005714 4.23342574,5.86882286 C4.23342574,2.62752 4.93359163,0 8.9957027,0 C13.0578138,0 13.7578445,2.62752 13.7578445,5.86882286 C13.7578445,9.11005714 11.6256501,11.7375771 8.9957027,11.7375771 Z M0.00682839466,21.0969306 C-0.00499873182,20.8228092 0.000914831417,20.1240023 0.00682839466,21.0969306 Z M17.9900634,21.1733323 C18.0087897,21.0226392 17.9964698,20.1278393 17.9900634,21.1733323 Z M17.9799259,20.4615086 C17.9855353,20.8226743 17.988509,20.8851429 17.9899958,20.8529143 C17.9897931,20.94864 17.9896579,21.0893486 17.9896579,21.2917029 C17.9896579,21.2917029 16.6654253,24 8.99563511,24 C1.3257098,24 0.00161230135,21.2917029 0.00161230135,21.2917029 C0.00161230135,20.9767543 0.00120679987,20.7961371 0.000868881973,20.6984914 C0.00235572073,20.7506057 0.00620798479,20.7270171 0.0145207651,20.27808 C0.115896135,14.7802286 0.886889615,13.1952 6.3878551,12.1878857 C6.3878551,12.1878857 7.17087846,13.2000686 8.99563511,13.2000686 C10.8203918,13.2000686 11.60328,12.1878857 11.60328,12.1878857 C17.1649355,13.2063086 17.8917293,14.8152 17.9799259,20.4615086 Z" id="User"></path>
                            </g>
                        </g>
                    </g>
                </g>
            </g>
        </g>
    </g>
</svg>