<?xml version="1.0" encoding="UTF-8"?>
<svg width="22px" height="20px" viewBox="0 0 22 20" version="1.1" xmlns="http://www.w3.org/2000/svg" xmlns:xlink="http://www.w3.org/1999/xlink">
    <!-- Generator: Sketch 52.2 (67145) - http://www.bohemiancoding.com/sketch -->
    <title>shape_slice</title>
    <desc>Created with Sketch.</desc>
    <g id="个人中心" stroke="none" stroke-width="1" fill="none" fill-rule="evenodd">
        <g id="Artboard" fill="#E9811D" fill-rule="nonzero">
            <path d="M21.551819,14.9920814 L13.8472923,1.65271493 C12.588856,-0.550904977 9.40655152,-0.550904977 8.15264206,1.65271493 L0.443588559,14.9920814 C-0.814847655,17.1957014 0.751407489,19.9332579 3.29091366,19.9332579 L18.6773334,19.9332579 C21.2168396,19.9332579 22.8102552,17.168552 21.551819,14.9920814 Z M10.9954404,16.9739819 C10.3254816,16.9739819 9.76869144,16.4174208 9.76869144,15.7477376 C9.76869144,15.0780543 10.3254816,14.5214932 10.9954404,14.5214932 C11.6653993,14.5214932 12.2221894,15.0780543 12.1950289,15.7794118 C12.2267161,16.4174208 11.6382388,16.9739819 10.9954404,16.9739819 Z M12.1135474,9.04638009 C12.0592264,9.99660633 12.0003787,10.9423077 11.9460577,11.8925339 C11.9188972,12.2002262 11.9188972,12.4807692 11.9188972,12.7839367 C11.8917367,13.2861991 11.4979095,13.6753394 10.9954404,13.6753394 C10.4929713,13.6753394 10.1036709,13.3133484 10.0719836,12.811086 C9.99050214,11.331448 9.90449391,9.87895928 9.82301243,8.39932127 C9.79585193,8.010181 9.76869144,7.61651584 9.7370042,7.22737557 C9.7370042,6.58484163 10.0991441,6.05542986 10.6876215,5.88800905 C11.2760988,5.74773756 11.8600495,6.02828054 12.1135474,6.58484163 C12.1995556,6.77941176 12.2267161,6.9739819 12.2267161,7.20022624 C12.1995556,7.82013575 12.1407079,8.43552036 12.1135474,9.04638009 Z" id="Shape"></path>
        </g>
    </g>
</svg>