<?xml version="1.0" encoding="UTF-8"?>
<svg width="25px" height="24px" viewBox="0 0 25 24" version="1.1" xmlns="http://www.w3.org/2000/svg" xmlns:xlink="http://www.w3.org/1999/xlink">
    <!-- Generator: Sketch 52.2 (67145) - http://www.bohemiancoding.com/sketch -->
    <title>wallet_slice</title>
    <desc>Created with Sketch.</desc>
    <g id="个人中心" stroke="none" stroke-width="1" fill="none" fill-rule="evenodd" fill-opacity="0.3">
        <g id="Artboard" transform="translate(-30.000000, -41.000000)" fill="#000000" fill-rule="nonzero">
            <path d="M35.8422235,45.5685313 L34.4778214,45.5685313 L43.3997754,41.1465455 C44.0932061,40.8012095 44.9354295,41.0875857 45.2807412,41.7810654 L45.8085345,42.8479572 L35.8422235,45.5685313 Z M48.9023021,42.9265703 C49.5199326,42.9265703 50.0870298,43.3364813 50.2554745,43.9625784 L50.6934307,45.5685313 L47.1560921,45.5685313 L39.0398652,45.5685313 L46.1903706,43.6172423 L48.5317238,42.9771073 C48.6552499,42.9434159 48.778804,42.9265703 48.9023021,42.9265703 Z M52.1560921,46.5511948 C52.9309377,46.5511948 53.5597979,47.1800994 53.5569905,47.9549998 L53.5569905,51.7873874 L53.2594048,51.7873874 L52.824256,51.7873874 L52.3891072,51.7873874 L45.2245929,51.7873874 C45.1291409,51.7873874 45.0336889,51.7930307 44.9410444,51.8042331 C44.3851769,51.8688081 43.888265,52.1271082 43.5176867,52.5089712 C43.0993543,52.9385356 42.8411005,53.525298 42.8411005,54.1710483 L42.8411005,55.1368661 L42.8411005,55.5720457 L42.8411005,56.0072252 L42.8411005,57.2931106 C42.8411005,58.6098797 43.9107243,59.6795791 45.2274003,59.6795791 L53.5569905,59.6795791 L53.5569905,63.596195 C53.5569905,64.3711234 52.9281583,65 52.1532847,65 L31.4037058,65 C30.6288602,65 30,64.3711234 30,63.596195 L30,49.7237941 L30,48.1234564 L30,47.9549998 C30,47.8286573 30.0196519,47.7051225 30.0505334,47.5872029 C30.1010668,47.399093 30.190904,47.2278288 30.3088153,47.0790254 C30.5670971,46.7561503 30.9629422,46.5511948 31.4065132,46.5511948 L32.2431218,46.5511948 L32.4929815,46.5511948 L33.840539,46.5511948 L35.4407636,46.5511948 L47.6445817,46.5511948 L50.9657496,46.5511948 L51.4008984,46.5511948 L51.8360472,46.5511948 L52.1560921,46.5511948 Z M54.5423919,53.129425 C54.8231331,53.3848894 55,53.755522 55,54.1654611 L55,57.2903311 C55,57.700214 54.8231331,58.0708186 54.5423919,58.3263111 C54.4020213,58.4554611 54.2363841,58.5565351 54.0510949,58.6183025 C53.9079169,58.6660319 53.7563167,58.694108 53.5962942,58.694108 L53.5597979,58.694108 L45.2274003,58.694108 C44.4525267,58.694108 43.8236946,58.0652033 43.8236946,57.290303 L43.8236946,55.734887 L43.8236946,55.2997075 L43.8236946,54.8645279 L43.8236946,54.1654611 C43.8236946,53.3905327 44.4525267,52.7616561 45.2274003,52.7616561 L51.5272319,52.7616561 L53.096575,52.7616561 L53.5317238,52.7616561 L53.5597979,52.7616561 L53.5962942,52.7616561 C53.7563167,52.7616561 53.9078888,52.7897322 54.0510949,52.8374335 C54.2363841,52.9020086 54.4020213,53.0002749 54.5423919,53.129425 Z M48.158338,56.0072252 L48.158338,55.541162 C48.158338,55.1536837 47.8439079,54.8392595 47.4564851,54.8392595 L47.1083661,54.8392595 L46.9904548,54.8392595 C46.827653,54.8392595 46.6788321,54.8981912 46.5581134,54.9908423 C46.3924761,55.1171848 46.2886019,55.3165532 46.2886019,55.541162 L46.2886019,56.0072252 C46.2886019,56.3946754 46.603032,56.7091277 46.9904548,56.7091277 L47.4564851,56.7091277 C47.8439079,56.7091277 48.158338,56.3946754 48.158338,56.0072252 Z" id="Wallet"></path>
        </g>
    </g>
</svg>