<?xml version="1.0" encoding="UTF-8"?>
<svg width="30px" height="31px" viewBox="0 0 30 31" version="1.1" xmlns="http://www.w3.org/2000/svg" xmlns:xlink="http://www.w3.org/1999/xlink">
    <!-- Generator: Sketch 52.1 (67048) - http://www.bohemiancoding.com/sketch -->
    <title>group_6_slice</title>
    <desc>Created with Sketch.</desc>
    <g id="Page-1" stroke="none" stroke-width="1" fill="none" fill-rule="evenodd">
        <g id="Artboard" transform="translate(-10.000000, -10.000000)" fill="#FFFFFF">
            <g id="Group-6" transform="translate(10.000000, 10.000000)">
                <path d="M29.2538571,5.52342857 C29.2538571,3.01114286 27.0998571,0.857142857 24.5875714,0.857142857 L4.66585714,0.857142857 C2.15357143,0.857142857 0.000428571429,3.01114286 0.000428571429,5.52342857 L0.000428571429,25.3542857 C0.000428571429,27.8674286 2.15357143,30.0214286 4.66585714,30.0214286 L24.4975714,30.0214286 C27.0107143,30.0214286 29.1638571,27.8674286 29.1638571,25.3542857 L29.1638571,20.4188571 L18.6647143,20.4188571 C18.6647143,20.3297143 14.6275714,20.6888571 14.6275714,15.6634286 C14.6275714,10.2797143 19.023,10.638 19.023,10.638 L29.2538571,10.638 L29.2538571,5.52342857 Z" id="Fill-1"></path>
                <path d="M20.0111143,14.0484 C20.6385429,14.0484 21.1768286,14.5866857 21.1768286,15.2149714 C21.1768286,15.6632571 20.9085429,16.0224 20.5494,16.2915429 C20.1902571,16.4706857 19.7419714,16.4706857 19.3828286,16.2915429 C19.0236857,16.1124 18.7545429,15.6632571 18.7545429,15.2149714 C18.8445429,14.5866857 19.3828286,14.0484 20.0111143,14.0484 M16.5114,15.5741143 C16.5114,19.0729714 19.6519714,18.7146857 19.6519714,18.7146857 L28.8945429,18.7146857 L28.8945429,11.9844 L19.9219714,11.9844 C19.9219714,12.0735429 16.5114,11.8044 16.5114,15.5741143" id="Fill-4"></path>
            </g>
        </g>
    </g>
</svg>