<?xml version="1.0" encoding="UTF-8"?>
<svg width="20px" height="16px" viewBox="0 0 20 16" version="1.1" xmlns="http://www.w3.org/2000/svg" xmlns:xlink="http://www.w3.org/1999/xlink">
    <!-- Generator: Sketch 52.1 (67048) - http://www.bohemiancoding.com/sketch -->
    <title>fill_1_slice</title>
    <desc>Created with Sketch.</desc>
    <g id="Page-1" stroke="none" stroke-width="1" fill="none" fill-rule="evenodd">
        <g id="Artboard" fill="#FFFFFF">
            <path d="M4.25183457,10.1366177 C3.84458376,9.90423011 3.35714633,10.0112908 3.07187637,10.3893011 L2.35943043,11.2950038 C2.05472129,11.6943249 2.09457161,12.2839196 2.48189726,12.6000276 L2.50182242,12.6000276 L2.6043641,12.683748 C2.88963406,12.9161356 3.29688487,12.9369388 3.60207999,12.7674684 C3.62200515,12.7466651 3.64193031,12.7674684 3.66185547,12.7882717 L3.66185547,12.8298782 C3.60207999,13.1667894 3.72211693,13.5239965 3.98697575,13.7355809 L4.06959226,13.7979906 C4.35437625,14.0303782 4.71934684,14.0511815 5.04689702,13.9025143 C5.06682218,13.8817111 5.1066725,13.9025143 5.1066725,13.9233176 L5.1066725,13.9441208 C5.06682218,14.2602288 5.20921417,14.5758294 5.45171794,14.7869064 L5.51149341,14.8290203 C5.79676338,15.0614079 6.16173397,15.1030144 6.48928415,14.9122333 C6.50920931,14.89143 6.54905963,14.9122333 6.54905963,14.9330366 L6.54905963,14.9543472 C6.58890995,15.1862274 6.71186276,15.3978117 6.89410507,15.5439419 L6.93395539,15.5647452 C7.3412062,15.8803458 7.91126014,15.817936 8.21645527,15.3952747 C8.23638042,15.3531608 8.27623074,15.3115543 8.29907178,15.2907511 L8.42153861,15.0583635 C8.64606114,14.6590425 8.58385576,14.1739714 8.25873548,13.8578634 C7.99387666,13.60518 7.6089809,13.5422628 7.26150556,13.688393 C7.24158041,13.688393 7.24158041,13.688393 7.22165525,13.6675897 L7.22165525,13.6467865 C7.24158041,13.1404048 6.85376877,12.6994773 6.36681732,12.6578708 C6.24435049,12.6578708 6.12188366,12.678674 5.99893085,12.7202805 C5.85653885,12.7410838 5.89638917,12.6157569 5.89638917,12.6157569 C6.07911746,12.1306858 5.87646401,11.6060379 5.40895174,11.3944535 C5.16401808,11.2899299 4.85930894,11.3107331 4.63673033,11.4365675 C4.53467464,11.4573707 4.5545998,11.3523396 4.5545998,11.3523396 C4.82188852,10.9586 4.67949653,10.3893011 4.25183457,10.1366177 M0.589979103,10.6429994 L1.62705934,10.6429994 L2.35943043,9.71649341 C3.00967099,8.89400373 4.18914322,8.78998745 4.98420567,9.46330257 C5.26947563,9.71649341 5.49156826,10.0528973 5.59410993,10.431415 C6.22393935,10.6008855 6.71380668,11.1047302 6.89653497,11.759779 C7.34412208,11.9059092 7.75137289,12.2032435 7.9739515,12.6441711 C8.36127715,12.7070882 8.72624775,12.8973619 9.01103173,13.1921593 C9.60101084,13.8451785 9.72347767,14.815828 9.27589056,15.5936668 L9.17383486,15.7839404 L9.17383486,15.8052511 C9.66127229,16.1416549 10.3134568,16.0371313 10.6585022,15.531257 C10.8208194,15.2780662 10.8835107,14.9827614 10.8208194,14.6879641 L10.8208194,14.6671608 L10.8407445,14.6671608 L10.923361,14.7508812 C11.2907615,15.1288916 11.8807406,15.1943457 12.3059727,14.8970114 C12.6510181,14.6438206 12.8133353,14.202893 12.7331487,13.7797244 L12.7331487,13.7589211 L12.7535598,13.7589211 L12.8361763,13.8426415 C13.2006609,14.2211593 13.7702289,14.2835691 14.217816,13.9887717 C14.5628614,13.7355809 14.7480196,13.2946533 14.6654031,12.8719921 L14.6654031,12.8532184 L14.6853283,12.8532184 L14.7679448,12.9369388 C15.1129902,13.2946533 15.663119,13.3570631 16.0703698,13.1064092 C16.5777324,12.7903012 16.7429654,12.1169861 16.4377703,11.5898012 C16.39792,11.5273914 16.3551538,11.4649817 16.3153035,11.4203308 L15.6655489,10.5983485 L10.3960733,3.9641396 C10.3358118,3.90122244 10.2536813,3.88041918 10.1710648,3.92253309 L7.64883122,5.37622399 C6.83384361,5.84099916 5.87937989,5.92421218 5.00413083,5.58730092 C4.5166934,5.4178305 4.1492929,5.01850947 3.96705059,4.53343844 C3.82417262,4.02654937 3.88443408,3.47856118 4.1492929,3.03763364 C4.20955436,2.91230671 4.16970404,2.76363955 4.04675123,2.70122978 C4.00690091,2.67991913 3.96462069,2.67991913 3.9242844,2.67991913 L0.48743743,2.67991913 C0.222092628,2.67991913 0,2.89150346 0,3.16549755 L0,10.1807612 C0.102541673,10.431415 0.3246343,10.6429994 0.589979103,10.6429994 M5.14652282,3.45775792 L8.62613598,0.720353952 C9.58108568,-0.01587833 10.8436604,-0.206152007 11.943432,0.234775528 L17.4772805,2.42419131 C17.8451669,2.57336587 18.2300627,2.63577564 18.5974632,2.63577564 L19.5125626,2.63577564 C19.7774214,2.63577564 20,2.84735997 20,3.12135406 L20,10.1574209 C20,10.431415 19.7749915,10.6638026 19.5125626,10.6638026 L18.3121932,10.6638026 C18.1498761,10.6638026 17.9676338,10.7262124 17.8451669,10.8332731 L17.5798221,11.0656606 C17.5200467,11.1280704 17.417505,11.1072671 17.3548136,11.0448574 L10.9058658,2.91230671 C10.7435486,2.70122978 10.4582787,2.65962327 10.2337561,2.78697979 L7.28386062,4.49386152 C6.69388152,4.83077278 5.98192156,4.87237929 5.35160616,4.59838519 C5.02648588,4.44971803 4.86416873,4.050397 5.00656072,3.69268249 C5.00413083,3.60642509 5.0639063,3.52321207 5.14652282,3.45775792" id="Fill-1"></path>
        </g>
    </g>
</svg>