<?xml version="1.0" encoding="UTF-8"?>
<svg width="265px" height="46px" viewBox="0 0 265 46" version="1.1" xmlns="http://www.w3.org/2000/svg" xmlns:xlink="http://www.w3.org/1999/xlink">
    <!-- Generator: Sketch 52.1 (67048) - http://www.bohemiancoding.com/sketch -->
    <title>decor_slice</title>
    <desc>Created with Sketch.</desc>
    <defs>
        <polygon id="path-1" points="0.0254665577 0.0538697318 4.6785128 0.0538697318 4.6785128 8.87036128 0.0254665577 8.87036128"></polygon>
        <polygon id="path-3" points="0.0254665577 0.0538697318 4.6785128 0.0538697318 4.6785128 8.87036128 0.0254665577 8.87036128"></polygon>
    </defs>
    <g id="Page-1" stroke="none" stroke-width="1" fill="none" fill-rule="evenodd" opacity="0.0897321429">
        <g id="Artboard" transform="translate(-58.000000, -3.000000)">
            <g id="Decor" transform="translate(58.000000, 3.000000)">
                <g id="Group-24" transform="translate(243.617297, 22.674170) rotate(-16.000000) translate(-243.617297, -22.674170) translate(227.617297, 3.674170)">
                    <path d="M0.51844424,34.4286406 C0.265541014,34.6051004 0.208471889,34.9536521 0.387052535,35.2034912 C0.893596313,35.911951 2.04825069,37.260587 3.75752258,37.7176061 C6.11696959,38.3484644 8.04640737,37.5476981 8.94343963,36.8319586 C9.84047189,36.1160736 7.33355945,33.725859 5.18307097,33.3377057 C3.4033106,33.0163801 1.63121843,33.6524797 0.51844424,34.4286406" id="Fill-1" fill="#231F20"></path>
                    <path d="M8.51623226,32.9154981 C8.3189235,33.1500498 8.35593733,33.4986015 8.59424147,33.6913678 C9.27022304,34.2379272 10.7408959,35.2291303 12.5109235,35.2227241 C14.9539834,35.2138429 16.6036793,33.9461571 17.2799558,33.0278966 C17.9560848,32.109636 14.9056147,30.4725785 12.7281401,30.6595211 C10.9261124,30.8142874 9.38450876,31.8835287 8.51623226,32.9154981" id="Fill-3" fill="#231F20"></path>
                    <path d="M16.0747945,29.1109556 C15.9478267,29.3888943 16.0777438,29.7151701 16.3594028,29.8381969 C17.158518,30.187331 18.8433106,30.7557295 20.5477161,30.2838598 C22.9000848,29.6326184 24.1479373,27.9767793 24.5519926,26.9137985 C24.9559005,25.8508176 21.5739281,25.0755303 19.5256332,25.8285418 C17.830518,26.4516835 16.6332461,27.8878215 16.0747945,29.1109556" id="Fill-5" fill="#231F20"></path>
                    <path d="M21.4865253,22.6263793 C21.426212,22.9254291 21.6269124,23.214433 21.9295115,23.2717969 C22.7876129,23.4345709 24.5588203,23.6143793 26.1119263,22.776341 C28.2559263,21.6194521 29.0947097,19.7290613 29.2463041,18.6036207 C29.3977512,17.4781801 25.9258249,17.4735211 24.1013825,18.6620038 C22.5916313,19.6454904 21.7521106,21.3106475 21.4865253,22.6263793" id="Fill-7" fill="#231F20"></path>
                    <path d="M25.2042618,15.4441464 C25.2123724,15.7490199 25.4729438,15.9869203 25.7808516,15.9768743 C26.6541419,15.9480467 28.4218101,15.7366444 29.7487041,14.5799011 C31.5802249,12.9834644 31.9745475,10.9566521 31.8701419,9.82597011 C31.7657364,8.69543372 28.3787502,9.44931877 26.8659023,11.0067364 C25.6139207,12.2956789 25.1684276,14.1029356 25.2042618,15.4441464" id="Fill-9" fill="#231F20"></path>
                    <g id="Group-13" transform="translate(24.774194, 0.091724)">
                        <mask id="mask-2" fill="white">
                            <use xlink:href="#path-1"></use>
                        </mask>
                        <g id="Clip-12"></g>
                        <path d="M1.44752074,8.66557241 C1.64025806,8.90390958 1.99358525,8.93841533 2.23292166,8.74695939 C2.91185253,8.20389425 4.19229493,6.98236169 4.54385253,5.2695954 C5.02901382,2.90558774 4.10514286,1.0540705 3.33109677,0.214576245 C2.55690323,-0.624918008 0.316313364,1.99373333 0.0614930876,4.1368751 C-0.149529954,5.91049962 0.599447005,7.61729655 1.44752074,8.66557241" id="Fill-11" fill="#231F20" mask="url(#mask-2)"></path>
                    </g>
                    <path d="M23.3584074,14.2281755 C23.6239926,14.3839609 23.9668498,14.2931103 24.1222783,14.0306046 C24.5633475,13.2857464 25.3245641,11.6965893 25.0408406,9.9715931 C24.6494673,7.59055096 23.1230525,6.18047433 22.0984627,5.66492644 C21.0740203,5.14923295 19.9142046,8.38025211 20.4421309,10.4743287 C20.879071,12.207187 22.1900387,13.5430107 23.3584074,14.2281755" id="Fill-14" fill="#231F20"></path>
                    <path d="M20.5052166,21.6910697 C20.757235,21.8672383 21.1064332,21.803905 21.2826544,21.5545027 C21.7825622,20.8469165 22.6701567,19.3229854 22.5272627,17.5811004 C22.3299539,15.1767632 20.9226912,13.6506483 19.9432258,13.0557517 C18.9639078,12.4608552 17.5458802,15.589813 17.9024516,17.7188322 C18.19753,19.4808092 19.396129,20.9157824 20.5052166,21.6910697" id="Fill-16" fill="#231F20"></path>
                    <path d="M15.0177327,27.5032207 C15.2106175,27.7412667 15.5639447,27.7756268 15.8031336,27.5840253 C16.4816221,27.0403778 17.7611797,25.8179716 18.1112627,24.1049142 C18.5946544,21.7403241 17.6693088,19.8896805 16.8945253,19.0507686 C16.1195945,18.2118567 13.8812166,20.8322552 13.6280184,22.9755425 C13.41847,24.7494582 14.1687742,26.4556728 15.0177327,27.5032207" id="Fill-18" fill="#231F20"></path>
                    <path d="M7.98298249,31.2099533 C8.08134194,31.4989571 8.40119447,31.6511027 8.69243871,31.5522444 C9.51883502,31.2719762 11.1459687,30.5578383 12.0708719,29.0679762 C13.3476276,27.0113172 13.1225954,24.9594628 12.6869825,23.9087119 C12.2512221,22.8581065 9.23717604,24.5595165 8.2534341,26.4865969 C7.43942488,28.0812866 7.55031889,29.9381908 7.98298249,31.2099533" id="Fill-20" fill="#231F20"></path>
                    <path d="M0.000855299539,31.9742483 C-0.0161032258,32.2786851 0.223970507,32.536823 0.531730876,32.551528 C1.40443134,32.5930222 3.18360184,32.5241563 4.60148203,31.4779188 C6.55834839,30.0339188 7.11856959,28.0453977 7.10765714,26.9102023 C7.0967447,25.7748613 3.65888295,26.2543019 2.02260645,27.6850529 C0.668726267,28.8691678 0.0756202765,30.6346391 0.000855299539,31.9742483" id="Fill-22" fill="#231F20"></path>
                </g>
                <g id="Group-24-Copy" transform="translate(20.617297, 22.674170) scale(-1, 1) rotate(-16.000000) translate(-20.617297, -22.674170) translate(4.617297, 3.674170)">
                    <path d="M0.51844424,34.4286406 C0.265541014,34.6051004 0.208471889,34.9536521 0.387052535,35.2034912 C0.893596313,35.911951 2.04825069,37.260587 3.75752258,37.7176061 C6.11696959,38.3484644 8.04640737,37.5476981 8.94343963,36.8319586 C9.84047189,36.1160736 7.33355945,33.725859 5.18307097,33.3377057 C3.4033106,33.0163801 1.63121843,33.6524797 0.51844424,34.4286406" id="Fill-1" fill="#231F20"></path>
                    <path d="M8.51623226,32.9154981 C8.3189235,33.1500498 8.35593733,33.4986015 8.59424147,33.6913678 C9.27022304,34.2379272 10.7408959,35.2291303 12.5109235,35.2227241 C14.9539834,35.2138429 16.6036793,33.9461571 17.2799558,33.0278966 C17.9560848,32.109636 14.9056147,30.4725785 12.7281401,30.6595211 C10.9261124,30.8142874 9.38450876,31.8835287 8.51623226,32.9154981" id="Fill-3" fill="#231F20"></path>
                    <path d="M16.0747945,29.1109556 C15.9478267,29.3888943 16.0777438,29.7151701 16.3594028,29.8381969 C17.158518,30.187331 18.8433106,30.7557295 20.5477161,30.2838598 C22.9000848,29.6326184 24.1479373,27.9767793 24.5519926,26.9137985 C24.9559005,25.8508176 21.5739281,25.0755303 19.5256332,25.8285418 C17.830518,26.4516835 16.6332461,27.8878215 16.0747945,29.1109556" id="Fill-5" fill="#231F20"></path>
                    <path d="M21.4865253,22.6263793 C21.426212,22.9254291 21.6269124,23.214433 21.9295115,23.2717969 C22.7876129,23.4345709 24.5588203,23.6143793 26.1119263,22.776341 C28.2559263,21.6194521 29.0947097,19.7290613 29.2463041,18.6036207 C29.3977512,17.4781801 25.9258249,17.4735211 24.1013825,18.6620038 C22.5916313,19.6454904 21.7521106,21.3106475 21.4865253,22.6263793" id="Fill-7" fill="#231F20"></path>
                    <path d="M25.2042618,15.4441464 C25.2123724,15.7490199 25.4729438,15.9869203 25.7808516,15.9768743 C26.6541419,15.9480467 28.4218101,15.7366444 29.7487041,14.5799011 C31.5802249,12.9834644 31.9745475,10.9566521 31.8701419,9.82597011 C31.7657364,8.69543372 28.3787502,9.44931877 26.8659023,11.0067364 C25.6139207,12.2956789 25.1684276,14.1029356 25.2042618,15.4441464" id="Fill-9" fill="#231F20"></path>
                    <g id="Group-13" transform="translate(24.774194, 0.091724)">
                        <mask id="mask-4" fill="white">
                            <use xlink:href="#path-3"></use>
                        </mask>
                        <g id="Clip-12"></g>
                        <path d="M1.44752074,8.66557241 C1.64025806,8.90390958 1.99358525,8.93841533 2.23292166,8.74695939 C2.91185253,8.20389425 4.19229493,6.98236169 4.54385253,5.2695954 C5.02901382,2.90558774 4.10514286,1.0540705 3.33109677,0.214576245 C2.55690323,-0.624918008 0.316313364,1.99373333 0.0614930876,4.1368751 C-0.149529954,5.91049962 0.599447005,7.61729655 1.44752074,8.66557241" id="Fill-11" fill="#231F20" mask="url(#mask-4)"></path>
                    </g>
                    <path d="M23.3584074,14.2281755 C23.6239926,14.3839609 23.9668498,14.2931103 24.1222783,14.0306046 C24.5633475,13.2857464 25.3245641,11.6965893 25.0408406,9.9715931 C24.6494673,7.59055096 23.1230525,6.18047433 22.0984627,5.66492644 C21.0740203,5.14923295 19.9142046,8.38025211 20.4421309,10.4743287 C20.879071,12.207187 22.1900387,13.5430107 23.3584074,14.2281755" id="Fill-14" fill="#231F20"></path>
                    <path d="M20.5052166,21.6910697 C20.757235,21.8672383 21.1064332,21.803905 21.2826544,21.5545027 C21.7825622,20.8469165 22.6701567,19.3229854 22.5272627,17.5811004 C22.3299539,15.1767632 20.9226912,13.6506483 19.9432258,13.0557517 C18.9639078,12.4608552 17.5458802,15.589813 17.9024516,17.7188322 C18.19753,19.4808092 19.396129,20.9157824 20.5052166,21.6910697" id="Fill-16" fill="#231F20"></path>
                    <path d="M15.0177327,27.5032207 C15.2106175,27.7412667 15.5639447,27.7756268 15.8031336,27.5840253 C16.4816221,27.0403778 17.7611797,25.8179716 18.1112627,24.1049142 C18.5946544,21.7403241 17.6693088,19.8896805 16.8945253,19.0507686 C16.1195945,18.2118567 13.8812166,20.8322552 13.6280184,22.9755425 C13.41847,24.7494582 14.1687742,26.4556728 15.0177327,27.5032207" id="Fill-18" fill="#231F20"></path>
                    <path d="M7.98298249,31.2099533 C8.08134194,31.4989571 8.40119447,31.6511027 8.69243871,31.5522444 C9.51883502,31.2719762 11.1459687,30.5578383 12.0708719,29.0679762 C13.3476276,27.0113172 13.1225954,24.9594628 12.6869825,23.9087119 C12.2512221,22.8581065 9.23717604,24.5595165 8.2534341,26.4865969 C7.43942488,28.0812866 7.55031889,29.9381908 7.98298249,31.2099533" id="Fill-20" fill="#231F20"></path>
                    <path d="M0.000855299539,31.9742483 C-0.0161032258,32.2786851 0.223970507,32.536823 0.531730876,32.551528 C1.40443134,32.5930222 3.18360184,32.5241563 4.60148203,31.4779188 C6.55834839,30.0339188 7.11856959,28.0453977 7.10765714,26.9102023 C7.0967447,25.7748613 3.65888295,26.2543019 2.02260645,27.6850529 C0.668726267,28.8691678 0.0756202765,30.6346391 0.000855299539,31.9742483" id="Fill-22" fill="#231F20"></path>
                </g>
            </g>
        </g>
    </g>
</svg>