<?xml version="1.0" encoding="UTF-8"?>
<svg width="18px" height="30px" viewBox="0 0 18 30" version="1.1" xmlns="http://www.w3.org/2000/svg" xmlns:xlink="http://www.w3.org/1999/xlink">
    <!-- Generator: Sketch 52.1 (67048) - http://www.bohemiancoding.com/sketch -->
    <title>fill_1_slice</title>
    <desc>Created with Sketch.</desc>
    <g id="Page-1" stroke="none" stroke-width="1" fill="none" fill-rule="evenodd">
        <g id="Artboard" transform="translate(-16.000000, -10.000000)" fill="#FFFFFF">
            <path d="M32.0370261,13.0990321 L17.549516,13.0990321 L17.549516,34.8264931 L32.0285726,34.8264931 L32.0285726,13.0990321 L32.0370261,13.0990321 Z M24.789467,38.450484 C25.3651465,38.450484 25.822055,37.9846993 25.822055,37.4178959 C25.822055,36.8502473 25.3562703,36.3844626 24.789467,36.3844626 C24.2218183,36.3844626 23.7560336,36.8502473 23.7560336,37.4178959 C23.7560336,37.9846993 24.2218183,38.450484 24.789467,38.450484 Z M32.0370261,40 L17.549516,40 C16.6940276,40 16,39.3055497 16,38.450484 L16,11.549516 C16,10.6944503 16.6940276,10 17.549516,10 L32.0370261,10 C32.8920918,10 33.5865421,10.6944503 33.5865421,11.549516 L33.5865421,38.450484 C33.5865421,39.3055497 32.8920918,40 32.0370261,40 Z" id="Fill-1"></path>
        </g>
    </g>
</svg>