<?xml version="1.0" encoding="UTF-8"?>
<svg width="30px" height="30px" viewBox="0 0 30 30" version="1.1" xmlns="http://www.w3.org/2000/svg" xmlns:xlink="http://www.w3.org/1999/xlink">
    <!-- Generator: Sketch 52.1 (67048) - http://www.bohemiancoding.com/sketch -->
    <title>fill_1_slice</title>
    <desc>Created with Sketch.</desc>
    <g id="Page-1" stroke="none" stroke-width="1" fill="none" fill-rule="evenodd">
        <g id="Artboard" transform="translate(-10.000000, -10.000000)" fill="#FFFFFF">
            <path d="M33.815,30.0792308 C33.4523077,30.4457692 32.8615385,30.4457692 32.4988462,30.0792308 L24.8307692,22.3838462 L17.1661538,30.0792308 C16.8038462,30.4457692 16.2130769,30.4457692 15.8503846,30.0792308 C15.4876923,29.7126923 15.4876923,29.1219231 15.8503846,28.7557692 L24.1280769,20.4465385 C24.3211538,20.2538462 24.5796154,20.1688462 24.8346154,20.1803846 C25.0892308,20.1688462 25.3476923,20.25 25.5407692,20.4465385 L33.815,28.7557692 C34.1815385,29.1219231 34.1815385,29.7126923 33.815,30.0792308 M35.9296154,10 L13.7046154,10 C11.6592308,10 10,11.6592308 10,13.7046154 L10,35.9296154 C10,37.975 11.6592308,39.6346154 13.7046154,39.6346154 L35.9296154,39.6346154 C37.975,39.6346154 39.6346154,37.975 39.6346154,35.9296154 L39.6346154,13.7046154 C39.6346154,11.6592308 37.975,10 35.9296154,10" id="Fill-1"></path>
        </g>
    </g>
</svg>