<?xml version="1.0" encoding="utf-8"?>
<!-- Generator: Adobe Illustrator 22.1.0, SVG Export Plug-In . SVG Version: 6.00 Build 0)  -->
<svg version="1.1" id="Layer_1" xmlns="http://www.w3.org/2000/svg" xmlns:xlink="http://www.w3.org/1999/xlink" x="0px" y="0px"
	 viewBox="0 0 11 11" style="enable-background:new 0 0 11 11;" xml:space="preserve">
<style type="text/css">
	.st0{fill:#FFFFFF;filter:url(#Adobe_OpacityMaskFilter);}
</style>
<defs>
	<filter id="Adobe_OpacityMaskFilter" filterUnits="userSpaceOnUse" x="0" y="0" width="11" height="11">
		<feColorMatrix  type="matrix" values="1 0 0 0 0  0 1 0 0 0  0 0 1 0 0  0 0 0 1 0"/>
	</filter>
</defs>
<path id="Fill-1"  d="M8.4,4.5l-1,0.2c0,0-0.1-0.1-0.1-0.1L5.8,3.5c0,0-0.1-0.1-0.2-0.1l-0.1-1c0,0,0,0,0,0l-0.1,1
	c-0.1,0-0.1,0-0.2,0.1L3.7,4.7c0,0-0.1,0.1-0.1,0.1l-1-0.2c0,0,0,0,0,0L3.5,5c0,0.1,0,0.1,0,0.2L4.1,7c0,0.1,0,0.1,0.1,0.1L3.7,8
	c0,0,0,0,0,0l0.6-0.8c0.1,0,0.1,0,0.2,0h1.9c0.1,0,0.1,0,0.2,0L7.3,8c0,0,0,0,0,0L6.8,7.1c0,0,0.1-0.1,0.1-0.1l0.6-1.8
	c0-0.1,0-0.1,0-0.2L8.4,4.5C8.4,4.6,8.4,4.5,8.4,4.5z M8,8.6c-0.2,0-0.3,0.1-0.4,0.3l-0.4,1.4c-0.5,0.2-1.1,0.3-1.7,0.3
	c-0.6,0-1.2-0.1-1.7-0.3L3.4,8.9C3.3,8.7,3.1,8.6,3,8.6H1.5c-0.7-0.8-1-1.9-1-3.1c0,0,0-0.1,0-0.1l1.2-0.8C1.8,4.4,1.9,4.2,1.8,4
	L1.4,2.7C2,1.7,3,1,4.1,0.7l1.2,0.8c0.1,0.1,0.4,0.1,0.5,0l1.2-0.8C8,1,9,1.7,9.6,2.7L9.2,4c-0.1,0.2,0,0.4,0.2,0.5l1.2,0.8
	c0,0,0,0.1,0,0.1c0,1.2-0.4,2.2-1,3.1L8,8.6L8,8.6z M5.6,0L5.6,0C5.6,0,5.5,0,5.5,0c0,0-0.1,0-0.1,0h0C2.4,0.1,0,2.5,0,5.5
	c0,3,2.5,5.5,5.5,5.5c3,0,5.5-2.5,5.5-5.5C11,2.5,8.6,0.1,5.6,0z"/>
</svg>
