<?xml version="1.0" encoding="UTF-8"?>
<svg width="24px" height="24px" viewBox="0 0 24 24" version="1.1" xmlns="http://www.w3.org/2000/svg" xmlns:xlink="http://www.w3.org/1999/xlink">
    <!-- Generator: Sketch 52.2 (67145) - http://www.bohemiancoding.com/sketch -->
    <title>alarm_clock_slice</title>
    <desc>Created with Sketch.</desc>
    <g id="充提转" stroke="none" stroke-width="1" fill="none" fill-rule="evenodd">
        <g id="Artboard" transform="translate(-403.000000, -20.000000)" fill="#000000" fill-rule="nonzero">
            <g id="alarm-clock" transform="translate(403.000000, 20.000000)">
                <path d="M18.6703729,7.84677966 L19.0063729,7.65274576 C18.3441356,6.6260339 17.4691525,5.75105085 16.4424407,5.08881356 L16.2484068,5.42481356 C16.1727458,5.55498305 16.0364746,5.62820339 15.8957288,5.62820339 C15.8269831,5.62820339 15.7570169,5.61071186 15.6927458,5.57369492 C15.4983051,5.46142373 15.4315932,5.21247458 15.5438644,5.0180339 L15.7387119,4.68081356 C14.6798644,4.13288136 13.4932881,3.80501695 12.2355254,3.74522034 L12.2355254,4.13125424 C12.2355254,4.35620339 12.0532881,4.5380339 11.8287458,4.5380339 C11.6042034,4.5380339 11.4219661,4.35620339 11.4219661,4.13125424 L11.4219661,3.74522034 L10.5103729,3.89613559 C9.76433898,4.01979661 9.03457627,4.2260339 8.33410169,4.51118644 L7.91837288,4.68040678 L8.11322034,5.01762712 C8.22549153,5.21247458 8.15877966,5.46101695 7.96433898,5.57328814 C7.9000678,5.61030508 7.83010169,5.62779661 7.76135593,5.62779661 C7.62061017,5.62779661 7.4839322,5.55457627 7.40867797,5.42440678 L7.21464407,5.08840678 C6.18752542,5.75064407 5.31294915,6.62562712 4.65071186,7.65233898 L4.98671186,7.84637288 C5.18115254,7.95864407 5.24786441,8.20759322 5.13559322,8.4020339 C5.0599322,8.53220339 4.92366102,8.60542373 4.78291525,8.60542373 C4.71416949,8.60542373 4.64420339,8.5879322 4.5799322,8.55091525 L4.24271186,8.3560678 C3.69477966,9.41491525 3.36691525,10.6018983 3.30711864,11.8592542 L3.69315254,11.8592542 C3.91769492,11.8592542 4.0999322,12.0410847 4.0999322,12.2660339 C4.0999322,12.4909831 3.91769492,12.6728136 3.69315254,12.6728136 L3.30671186,12.6728136 C3.36650847,13.9305763 3.69437288,15.1175593 4.24230508,16.176 L4.57952542,15.9811525 C4.77437288,15.8680678 5.02250847,15.936 5.13518644,16.1300339 C5.24745763,16.3248814 5.18074576,16.5734237 4.98630508,16.6856949 L4.65030508,16.8797288 C5.31254237,17.9064407 6.18752542,18.7814237 7.21423729,19.443661 L7.40827119,19.107661 C7.52054237,18.9132203 7.76827119,18.8461017 7.9639322,18.9587797 C8.15837288,19.0710508 8.22508475,19.32 8.11281356,19.5144407 L7.9179661,19.851661 C8.97681356,20.3995932 10.1633898,20.7274576 11.4211525,20.7872542 L11.4211525,20.4012203 C11.4211525,20.1762712 11.6033898,19.9944407 11.8279322,19.9944407 C12.0524746,19.9944407 12.2347119,20.1762712 12.2347119,20.4012203 L12.2347119,20.7872542 C13.4924746,20.7278644 14.6790508,20.3995932 15.7378983,19.851661 L15.5430508,19.5144407 C15.4307797,19.3195932 15.4974915,19.0710508 15.6919322,18.9587797 C15.8867797,18.8465085 16.1349153,18.9136271 16.2475932,19.107661 L16.4416271,19.443661 C17.4687458,18.7814237 18.343322,17.9064407 19.0055593,16.8797288 L18.6695593,16.6856949 C18.4751186,16.5734237 18.4084068,16.3244746 18.520678,16.1300339 C18.6329492,15.9355932 18.8810847,15.867661 19.076339,15.9811525 L19.4135593,16.176 C19.9614915,15.1171525 20.2893559,13.9301695 20.3491525,12.6728136 L19.9631186,12.6728136 C19.7385763,12.6728136 19.556339,12.4909831 19.556339,12.2660339 C19.556339,12.0410847 19.7385763,11.8592542 19.9631186,11.8592542 L20.3491525,11.8592542 C20.2893559,10.6014915 19.9614915,9.41450847 19.4135593,8.3560678 L19.076339,8.55091525 C19.0120678,8.5879322 18.9421017,8.60542373 18.8733559,8.60542373 C18.7326102,8.60542373 18.5959322,8.53220339 18.520678,8.4020339 C18.4092203,8.208 18.4759322,7.95905085 18.6703729,7.84677966 Z M16.3029153,12.6736271 L13.3976949,12.6736271 C13.2158644,13.3732881 12.5841356,13.8939661 11.828339,13.8939661 C10.9309831,13.8939661 10.2012203,13.1642034 10.2012203,12.2668475 C10.2012203,11.5106441 10.7218983,10.879322 11.4215593,10.6974915 L11.4215593,6.5719322 C11.4215593,6.34698305 11.6037966,6.16515254 11.828339,6.16515254 C12.0528814,6.16515254 12.2351186,6.34698305 12.2351186,6.5719322 L12.2351186,10.6974915 C12.8042034,10.8455593 13.2496271,11.2909831 13.3976949,11.8600678 L16.3029153,11.8600678 C16.5274576,11.8600678 16.7096949,12.0418983 16.7096949,12.2668475 C16.7096949,12.4917966 16.5274576,12.6736271 16.3029153,12.6736271 Z" id="Shape"></path>
                <circle id="Oval" cx="11.828339" cy="12.2668475" r="1"></circle>
                <path d="M20.4158644,3.97301695 L22.0820339,5.63918644 C22.1585085,5.71566102 22.2618305,5.75837288 22.3696271,5.75837288 C22.4774237,5.75837288 22.5811525,5.71566102 22.6572203,5.63918644 C23.9454915,4.35132203 23.9454915,2.25518644 22.6572203,0.967322034 C22.0336271,0.343728814 21.2037966,0 20.3214915,0 C19.4391864,0 18.6097627,0.343728814 17.9857627,0.967322034 C17.9092881,1.04379661 17.8665763,1.14671186 17.8665763,1.25491525 C17.8665763,1.36311864 17.9092881,1.46644068 17.9857627,1.54250847 L19.8410847,3.39783051 L19.1499661,4.08894915 C17.2055593,2.34630508 14.6391864,1.28379661 11.8287458,1.28379661 C9.01830508,1.28379661 6.45152542,2.34630508 4.50711864,4.08894915 L3.816,3.39783051 L5.67132203,1.54250847 C5.74779661,1.4660339 5.79050847,1.36311864 5.79050847,1.25491525 C5.79050847,1.14671186 5.74779661,1.04338983 5.67132203,0.967322034 C5.04732203,0.343728814 4.21789831,0 3.33559322,0 C2.45288136,0 1.62345763,0.343728814 0.999457627,0.967322034 C-0.288813559,2.25518644 -0.288813559,4.35132203 0.999457627,5.63918644 C1.0759322,5.71566102 1.17925424,5.75837288 1.28705085,5.75837288 C1.39484746,5.75837288 1.49857627,5.71566102 1.57464407,5.63918644 L3.24081356,3.97301695 L3.92257627,4.65477966 C2.01925424,6.63050847 0.845288136,9.31362712 0.845288136,12.2668475 C0.845288136,16.2931525 3.02440678,19.8183051 6.264,21.7305763 L5.03227119,22.9623051 C4.87322034,23.1213559 4.87322034,23.3784407 5.03227119,23.5374915 C5.11159322,23.6168136 5.21572881,23.656678 5.31986441,23.656678 C5.424,23.656678 5.52813559,23.6168136 5.60745763,23.5374915 L7.01084746,22.1341017 C8.46630508,22.8475932 10.1011525,23.2498983 11.828339,23.2498983 C13.5555254,23.2498983 15.1903729,22.8475932 16.6458305,22.1341017 L18.0492203,23.5374915 C18.1285424,23.6168136 18.232678,23.656678 18.3368136,23.656678 C18.4409492,23.656678 18.5450847,23.6168136 18.6244068,23.5374915 C18.7834576,23.3784407 18.7834576,23.1213559 18.6244068,22.9623051 L17.392678,21.7305763 C20.6322712,19.8183051 22.8113898,16.2931525 22.8113898,12.2668475 C22.8113898,9.31362712 21.6374237,6.63050847 19.7341017,4.65477966 L20.4158644,3.97301695 Z M19.9155254,7.57179661 C19.92,7.57830508 19.9269153,7.58237288 19.9309831,7.58928814 C19.9350508,7.59620339 19.9350508,7.60433898 19.9383051,7.61166102 C20.7290847,8.98413559 21.1842712,10.5730169 21.1842712,12.2672542 C21.1842712,13.9614915 20.7290847,15.5507797 19.9383051,16.9228475 C19.9346441,16.9301695 19.9350508,16.9378983 19.9309831,16.9452203 C19.9252881,16.9553898 19.9167458,16.9627119 19.9102373,16.9720678 C19.0926102,18.3705763 17.9235254,19.5384407 16.5237966,20.3544407 C16.5172881,20.3589153 16.5132203,20.3658305 16.5063051,20.3698983 C16.4957288,20.376 16.484339,20.3784407 16.4737627,20.383322 C15.1037288,21.1704407 13.5185085,21.6231864 11.828339,21.6231864 C10.1381695,21.6231864 8.55294915,21.1704407 7.18291525,20.383322 C7.17233898,20.3784407 7.16094915,20.376 7.15037288,20.3698983 C7.14345763,20.3658305 7.13979661,20.3589153 7.13288136,20.3544407 C5.73315254,19.5384407 4.5640678,18.3709831 3.74644068,16.9720678 C3.7399322,16.9627119 3.73138983,16.9553898 3.72569492,16.9452203 C3.72162712,16.9383051 3.72162712,16.9301695 3.71837288,16.9228475 C2.92759322,15.5503729 2.47240678,13.9614915 2.47240678,12.2672542 C2.47240678,10.5730169 2.92759322,8.98372881 3.71837288,7.61166102 C3.7220339,7.60433898 3.72162712,7.59661017 3.72569492,7.58928814 C3.72976271,7.58237288 3.73667797,7.57871186 3.74115254,7.57179661 C4.55877966,6.16881356 5.73030508,4.99769492 7.13288136,4.1800678 C7.13938983,4.17559322 7.14345763,4.16867797 7.15037288,4.16461017 C7.15769492,4.16054237 7.16542373,4.16054237 7.17274576,4.15688136 C8.54481356,3.36610169 10.1341017,2.91091525 11.828339,2.91091525 C13.5225763,2.91091525 15.1118644,3.36569492 16.4839322,4.15688136 C16.4912542,4.16054237 16.4989831,4.16054237 16.5063051,4.16461017 C16.5132203,4.16867797 16.5168814,4.17559322 16.5237966,4.1800678 C17.9267797,4.99728814 19.0978983,6.16881356 19.9155254,7.57179661 Z" id="Shape"></path>
            </g>
        </g>
    </g>
</svg>