<?xml version="1.0" encoding="UTF-8"?>
<svg width="59px" height="40px" viewBox="0 0 59 40" version="1.1" xmlns="http://www.w3.org/2000/svg" xmlns:xlink="http://www.w3.org/1999/xlink">
    <!-- Generator: Sketch 52.2 (67145) - http://www.bohemiancoding.com/sketch -->
    <title>分组_slice</title>
    <desc>Created with Sketch.</desc>
    <defs>
        <polygon id="path-1" points="0.00616724739 0.0464822602 58.9751254 0.0464822602 58.9751254 32.3910118 0.00616724739 32.3910118"></polygon>
    </defs>
    <g id="登录注册" stroke="none" stroke-width="1" fill="none" fill-rule="evenodd">
        <g id="Artboard" transform="translate(-25.000000, -34.000000)">
            <g id="分组" transform="translate(25.000000, 34.000000)">
                <g transform="translate(0.000000, 6.549540)">
                    <mask id="mask-2" fill="white">
                        <use xlink:href="#path-1"></use>
                    </mask>
                    <g id="Clip-2"></g>
                    <path d="M54.224392,2.61366623 C53.1386995,2.61366623 52.2585819,3.49129435 52.2585819,4.5739159 C52.2585819,5.65653745 53.1386995,6.53416557 54.224392,6.53416557 C55.3100845,6.53416557 56.1902021,5.65653745 56.1902021,4.5739159 C56.1902021,3.49129435 55.3100845,2.61366623 54.224392,2.61366623 M29.0780061,3.26708279 C21.8852997,3.26708279 16.0543214,9.0449251 16.0543214,16.1722904 C16.0543214,23.2993995 21.8852997,29.0774468 29.0780061,29.0774468 C36.2709181,29.0774468 42.1016908,23.2993995 42.1016908,16.1722904 C42.1016908,9.0449251 36.2709181,3.26708279 29.0780061,3.26708279 M9.66541289,2.61366623 L3.93162021,2.61366623 C3.38879965,2.61366623 2.94871516,3.05250591 2.94871516,3.59379106 C2.94871516,4.13512746 3.38879965,4.5739159 3.93162021,4.5739159 L9.66541289,4.5739159 C10.2082848,4.5739159 10.6483179,4.13512746 10.6483179,3.59379106 C10.6483179,3.05250591 10.2082848,2.61366623 9.66541289,2.61366623 M57.3369503,32.3445296 L1.63817509,32.3445296 C0.733388502,32.3445296 0,31.6132668 0,30.7109882 L0,1.63354139 C0,0.73131406 0.733388502,0 1.63817509,0 L57.3369503,0 C58.2417369,0 58.9751254,0.73131406 58.9751254,1.63354139 L58.9751254,30.7109882 C58.9751254,31.6132668 58.2417369,32.3445296 57.3369503,32.3445296" id="Fill-1" fill="#FFFFFF" mask="url(#mask-2)"></path>
                </g>
                <g transform="translate(11.000000, 0.000000)" fill="#FFFFFF">
                    <path d="M5.65593632,0.0206582129 L32.4352551,0.0206582129 C33.3284267,0.0256805519 34.5737482,0.467697635 35.1986959,1.07786058 C36.1085191,2.00514836 36.9520957,3.01151235 37.444756,4.10110368 C37.6910861,4.64746242 37.8490705,5.21857411 37.8866393,5.82417595 C37.9008753,6.05597227 37.8978431,6.28858857 37.8771828,6.52002615 C37.8701419,6.59987109 37.861148,6.67935729 37.8503039,6.7588435 C37.8031245,7.09493022 37.725006,7.42604586 37.617182,7.74814179 C37.3082029,8.65124034 35.8655809,9.45235466 34.7726419,9.46280933 C29.3076898,9.54444796 24.0494433,9.65796307 18.777783,9.73401564 C16.1418501,9.77245191 13.5014973,9.8021247 10.8290234,9.81529553 C9.4837412,9.82211156 8.13845897,9.82411025 6.79302256,9.82154783 C5.43751298,9.81852418 4.0705426,9.81011945 2.688925,9.79530867 C1.57897465,9.78290657 0.307339634,9.05297622 0.145757753,8.21322063 C0.089327439,7.90270683 0.0576175087,7.58819566 0.050370993,7.27271078 C0.0437925958,6.9660406 0.0606497387,6.65931919 0.10078824,6.35526268 C0.180499913,5.7510958 0.349122735,5.1613297 0.591444164,4.58478568 C1.07567587,3.43210762 1.85336577,2.33165164 2.79777692,1.27265558 C3.44518371,0.571578055 4.76615671,0.0222981603 5.65593632,0.0206582129" id="Fill-3"></path>
                    <path d="M8,23.1281616 C8,28.7216124 12.5475226,33.2563233 18.1568911,33.2563233 C23.7664138,33.2563233 28.3137822,28.7216124 28.3137822,23.1281616 C28.3137822,17.5344547 23.7664138,13 18.1568911,13 C12.5475226,13 8,17.5344547 8,23.1281616" id="Fill-5"></path>
                </g>
            </g>
        </g>
    </g>
</svg>