<?xml version="1.0" encoding="UTF-8"?>
<svg width="48px" height="48px" viewBox="0 0 48 48" version="1.1" xmlns="http://www.w3.org/2000/svg" xmlns:xlink="http://www.w3.org/1999/xlink">
    <!-- Generator: Sketch 52.1 (67048) - http://www.bohemiancoding.com/sketch -->
    <title>Icon</title>
    <desc>Created with Sketch.</desc>
    <g id="Page-1" stroke="none" stroke-width="1" fill="none" fill-rule="evenodd">
        <g id="Index---Already-Logged-In---Personal-Center" transform="translate(-1218.000000, -67.000000)">
            <g id="Personal-Center">
                <g id="Main-Menu" transform="translate(909.000000, 45.000000)">
                    <g id="Top-Bar">
                        <g id="Account-Information" transform="translate(30.000000, 22.000000)">
                            <g id="Customer-Service" transform="translate(262.000000, 0.000000)">
                                <g id="Icon" transform="translate(17.000000, 0.000000)">
                                    <circle id="Circle" stroke="#1E5ADC" opacity="0.0799999982" cx="24" cy="24" r="23.5"></circle>
                                    <circle id="Circle" stroke="#1E5ADC" opacity="0.400000006" cx="24" cy="24" r="17.5"></circle>
                                    <path d="M25.3518776,32.2788051 L22.6147427,32.2788051 C21.4130737,32.2788051 20.3783032,33.1664296 20.1112656,34.3613087 C17.674548,32.9615932 16.038943,30.2987198 16.038943,27.2603129 C16.038943,22.7539118 19.6105702,19.1351351 23.9833102,19.1351351 C28.3560501,19.1351351 31.9276773,22.7539118 31.9276773,27.2603129 C31.9276773,29.4452347 31.093185,31.3911807 29.7246175,32.859175 L26.9541029,32.859175 C26.5201669,32.4836415 25.9527121,32.2788051 25.3518776,32.2788051 Z M12.2336579,27.943101 C12.2336579,27.9089616 12.2002782,27.9089616 12.1668985,27.8748222 C12.0667594,27.772404 12,27.6358464 12,27.4651494 L12,24.6315789 C12,23.9146515 12.0333797,23.197724 12.1668985,22.514936 C12.2670376,21.7980085 12.4673157,21.1152205 12.7009736,20.4324324 C12.9680111,19.7496444 13.2684284,19.1009957 13.6022253,18.4864865 C13.9360223,17.8719772 14.3365786,17.2916074 14.8038943,16.745377 C14.8706537,16.6770982 14.9040334,16.6429587 14.9707928,16.6088193 C14.9040334,16.3015647 15.0041725,15.9260313 15.2378303,15.6870555 C17.674548,13.2290185 20.8122392,12 23.9833102,12 C27.1543811,12 30.2920723,13.2290185 32.6954103,15.6870555 C32.9290682,15.9260313 33.0292072,16.3015647 32.9624478,16.6088193 C33.0292072,16.6429587 33.0959666,16.6770982 33.1293463,16.745377 C33.596662,17.2916074 33.9972184,17.8719772 34.3310153,18.4864865 C34.6981919,19.1009957 34.9986092,19.7496444 35.232267,20.4324324 C35.4659249,21.1152205 35.6328234,21.7980085 35.8331015,22.514936 C35.9332406,23.197724 36,23.9146515 36,24.6315789 L36,27.4651494 C36,27.601707 35.9332406,27.772404 35.8331015,27.8748222 C35.8331015,27.9089616 35.7997218,27.9089616 35.7663421,27.943101 C35.6662031,28.7965861 35.2656467,29.5817923 34.6981919,30.1621622 C34.6648122,30.1963016 34.6314325,30.230441 34.5980529,30.2645804 L34.5980529,30.3669986 L34.5980529,33.0981508 C34.5980529,33.4736842 34.5312935,33.8150782 34.4645341,34.0881935 C34.364395,34.3954481 34.2308762,34.6344239 34.0639777,34.8392603 C33.8636996,35.0440967 33.6634214,35.1806543 33.3963839,35.2830725 C33.1961057,35.3513514 32.9958275,35.4196302 32.7621697,35.4196302 L32.5285118,35.4196302 L26.3198887,35.4196302 C26.1196106,35.7610242 25.7524339,36 25.3518776,36 L22.6147427,36 C22.0139082,36 21.5465925,35.5220484 21.5132128,34.9075391 C21.5132128,34.3271693 21.9805285,33.8150782 22.581363,33.8150782 L25.3184979,33.8150782 C25.7524339,33.8150782 26.0862309,34.0540541 26.286509,34.3954481 L32.4283727,34.3954481 L32.4617524,34.3954481 C32.6286509,34.3954481 32.7621697,34.3613087 32.8956885,34.3271693 C32.9958275,34.2930299 33.0959666,34.2247511 33.162726,34.1564723 C33.2294854,34.0540541 33.2962448,33.9516358 33.3296245,33.7809388 C33.3630042,33.6102418 33.3963839,33.371266 33.3963839,33.1322902 L33.3963839,30.9815078 C33.2294854,31.0497866 33.0625869,31.1180654 32.8956885,31.1522048 C32.9290682,31.0497866 32.9290682,30.913229 32.9290682,30.7766714 L32.9290682,24.1877667 C32.9290682,24.0512091 32.9290682,23.9146515 32.8956885,23.7780939 C33.5299026,23.9829303 34.0973574,24.3243243 34.5312935,24.7681366 C34.5646732,24.802276 34.6314325,24.8364154 34.6648122,24.9046942 L34.6648122,24.6315789 C34.6648122,23.9829303 34.5980529,23.3342817 34.4979138,22.7197724 C34.364395,22.0711238 34.1974965,21.4566145 33.9972184,20.8421053 C33.7635605,20.227596 33.4965229,19.6472262 33.1961057,19.1009957 C32.8956885,18.5547653 32.5285118,18.0085349 32.1279555,17.5305832 C32.0945758,17.4964438 32.0945758,17.428165 32.0611961,17.3940256 C31.7941586,17.428165 31.4937413,17.3598862 31.2600834,17.1209104 C29.2573018,15.0384068 26.5535466,14.0142248 23.9165508,14.0142248 C21.2795549,14.0142248 18.6091794,15.0384068 16.5730181,17.1209104 C16.3727399,17.3257468 16.0723227,17.428165 15.7719054,17.3940256 C15.7719054,17.428165 15.7385257,17.4964438 15.705146,17.5305832 C15.3045897,18.0085349 14.9374131,18.5547653 14.6369958,19.1009957 C14.3031989,19.6472262 14.0361613,20.227596 13.8358832,20.8421053 C13.6022253,21.4224751 13.4353268,22.0369844 13.3351878,22.685633 C13.2350487,23.3001422 13.1682893,23.9487909 13.1682893,24.5974395 L13.1682893,24.8705548 C13.201669,24.8364154 13.2684284,24.7681366 13.3018081,24.7339972 C13.7691238,24.2560455 14.3031989,23.9146515 14.9374131,23.7439545 C14.9040334,23.8805121 14.9040334,24.0170697 14.9040334,24.1536273 L14.9040334,30.7766714 C14.9040334,30.8790896 14.9040334,31.0156472 14.9374131,31.1522048 C14.3031989,30.9473684 13.7357441,30.6059744 13.3018081,30.1621622 C12.7343533,29.5817923 12.3337969,28.7965861 12.2336579,27.943101 Z" id="Support" fill="#1E5ADC" fill-rule="nonzero"></path>
                                </g>
                            </g>
                        </g>
                    </g>
                </g>
            </g>
        </g>
    </g>
</svg>