<?xml version="1.0" encoding="UTF-8"?>
<svg width="222px" height="148px" viewBox="0 0 222 148" version="1.1" xmlns="http://www.w3.org/2000/svg" xmlns:xlink="http://www.w3.org/1999/xlink">
    <!-- Generator: Sketch 52.2 (67145) - http://www.bohemiancoding.com/sketch -->
    <title>group_slice</title>
    <desc>Created with Sketch.</desc>
    <g id="Page-1" stroke="none" stroke-width="1" fill="none" fill-rule="evenodd">
        <g id="Artboard">
            <g id="Group">
                <path d="M110.6997,46.2886478 C158.1513,46.2886478 196.6341,84.6236437 196.7961,131.972858 L211.7961,131.972858 C211.6341,76.3506235 166.4361,31.3088907 110.6997,31.3088907 C54.9639,31.3088907 9.7659,76.3506235 9.6039,131.972858 L24.6039,131.972858 C24.7659,84.6236437 63.2487,46.2886478 110.6997,46.2886478" id="Fill-1" fill="#F0F7FE"></path>
                <path d="M110.6997,46.2886478 C63.2487,46.2886478 24.7659,84.6236437 24.6039,131.972858 L45.6039,131.972858 C45.7653,96.2059919 74.8467,67.2603077 110.6997,67.2603077 C146.5533,67.2603077 175.6341,96.2059919 175.7961,131.972858 L196.7961,131.972858 C196.6341,84.6236437 158.1513,46.2886478 110.6997,46.2886478" id="Fill-3" fill="#E1F0FD"></path>
                <path d="M110.6997,67.2603077 C74.8467,67.2603077 45.7653,96.2059919 45.6039,131.972858 L175.7961,131.972858 C175.6341,96.2059919 146.5533,67.2603077 110.6997,67.2603077" id="Fill-5" fill="#D1E6FC"></path>
                <path d="M0.3,132.272453 L221.7,132.272453" id="Stroke-7" stroke="#0C79F0" stroke-width="1.8" stroke-linecap="round"></path>
                <path d="M24.9,138.863547 L136.5,138.863547" id="Stroke-9" stroke="#85C2F7" stroke-width="1.8" stroke-linecap="round"></path>
                <path d="M146.6997,138.863547 L175.4997,138.863547" id="Stroke-11" stroke="#85C2F7" stroke-width="1.8" stroke-linecap="round"></path>
                <path d="M199.4997,147.252211 L106.4997,147.252211" id="Stroke-13" stroke="#0C79F0" stroke-width="1.8" stroke-linecap="round"></path>
                <path d="M96.2997,147.252211 L67.4997,147.252211" id="Stroke-15" stroke="#0C79F0" stroke-width="1.8" stroke-linecap="round"></path>
                <path d="M13.5,51.3817652 L20.7,51.3817652" id="Stroke-17" stroke="#0C79F0" stroke-width="1.44" stroke-linecap="round"></path>
                <path d="M17.1,54.9769069 L17.1,47.7866235" id="Stroke-19" stroke="#0C79F0" stroke-width="1.44" stroke-linecap="round"></path>
                <path d="M186.8997,84.9364211 L194.0997,84.9364211" id="Stroke-21" stroke="#81BFF7" stroke-width="1.44"></path>
                <path d="M190.4997,88.5315628 L190.4997,81.3412794" id="Stroke-23" stroke="#81BFF7" stroke-width="1.44"></path>
                <path d="M38.5509,71.4546397 C38.5509,72.8621377 37.4091,74.0023968 36.0003,74.0023968 C34.5909,74.0023968 33.4491,72.8621377 33.4491,71.4546397 C33.4491,70.0471417 34.5909,68.9068826 36.0003,68.9068826 C37.4091,68.9068826 38.5509,70.0471417 38.5509,71.4546397" id="Fill-25" fill="#81BFF7"></path>
                <path d="M138.5007,43.8918866 C138.5007,44.8296194 137.7393,45.5905911 136.7997,45.5905911 C135.8607,45.5905911 135.0993,44.8296194 135.0993,43.8918866 C135.0993,42.9541538 135.8607,42.1931822 136.7997,42.1931822 C137.7393,42.1931822 138.5007,42.9541538 138.5007,43.8918866" id="Fill-27" fill="#026AED"></path>
                <path d="M138.5007,43.8918866 C138.5007,44.8296194 137.7393,45.5905911 136.7997,45.5905911 C135.8607,45.5905911 135.0993,44.8296194 135.0993,43.8918866 C135.0993,42.9541538 135.8607,42.1931822 136.7997,42.1931822 C137.7393,42.1931822 138.5007,42.9541538 138.5007,43.8918866 Z" id="Stroke-29" stroke="#0C79F0" stroke-width="1.2" stroke-linecap="round"></path>
                <path d="M160.0017,14.5315628 C160.0017,16.4076275 158.4789,17.9283725 156.5997,17.9283725 C154.7211,17.9283725 153.1983,16.4076275 153.1983,14.5315628 C153.1983,12.655498 154.7211,11.134753 156.5997,11.134753 C158.4789,11.134753 160.0017,12.655498 160.0017,14.5315628" id="Fill-31" fill="#026AED"></path>
                <path d="M198.5007,36.102413 C198.5007,37.0401457 197.7393,37.8011174 196.7997,37.8011174 C195.8607,37.8011174 195.0993,37.0401457 195.0993,36.102413 C195.0993,35.1646802 195.8607,34.4037085 196.7997,34.4037085 C197.7393,34.4037085 198.5007,35.1646802 198.5007,36.102413" id="Fill-33" fill="#81BFF7"></path>
                <path d="M198.5007,36.102413 C198.5007,37.0401457 197.7393,37.8011174 196.7997,37.8011174 C195.8607,37.8011174 195.0993,37.0401457 195.0993,36.102413 C195.0993,35.1646802 195.8607,34.4037085 196.7997,34.4037085 C197.7393,34.4037085 198.5007,35.1646802 198.5007,36.102413 Z" id="Stroke-35" stroke="#0C79F0" stroke-width="1.8" stroke-linecap="round"></path>
                <path d="M96.1509,2.54775709 C96.1509,3.95525506 95.0091,5.09551417 93.5997,5.09551417 C92.1909,5.09551417 91.0485,3.95525506 91.0485,2.54775709 C91.0485,1.14025911 92.1909,0 93.5997,0 C95.0091,0 96.1509,1.14025911 96.1509,2.54775709" id="Fill-37" fill="#81BFF7"></path>
                <path d="M88.94622,30.4750575 C88.94622,34.227187 85.90002,37.2692761 82.14282,37.2692761 C78.38502,37.2692761 75.33942,34.227187 75.33942,30.4750575 C75.33942,26.7229279 78.38502,23.6808389 82.14282,23.6808389 C85.90002,23.6808389 88.94622,26.7229279 88.94622,30.4750575" id="Fill-39" fill="#81BFF7"></path>
                <path d="M173.74956,47.2494494 C173.74956,49.1261134 172.22676,50.6468583 170.34756,50.6468583 C168.46896,50.6468583 166.94616,49.1261134 166.94616,47.2494494 C166.94616,45.3733846 168.46896,43.8526397 170.34756,43.8526397 C172.22676,43.8526397 173.74956,45.3733846 173.74956,47.2494494 Z" id="Stroke-41" stroke="#81BFF7" stroke-width="1.8"></path>
                <path d="M89.04288,70.0666753 L89.04288,113.38993 C89.04288,114.47806 89.92668,115.360667 91.01568,115.360667 L126.04608,115.360667 C127.13568,115.360667 128.01888,114.47806 128.01888,113.38993 L128.01888,83.1038575 C128.01888,82.5813636 127.81068,82.0798413 127.44108,81.7107401 L114.38628,68.6735579 C114.01668,68.3038575 113.51448,68.0959385 112.99128,68.0959385 L91.01568,68.0959385 C89.92668,68.0959385 89.04288,68.9785457 89.04288,70.0666753" id="Fill-43" fill="#FFFFFF"></path>
                <path d="M89.04288,70.0666753 L89.04288,113.38993 C89.04288,114.47806 89.92668,115.360667 91.01568,115.360667 L126.04608,115.360667 C127.13568,115.360667 128.01888,114.47806 128.01888,113.38993 L128.01888,83.1038575 C128.01888,82.5813636 127.81068,82.0798413 127.44108,81.7107401 L114.38628,68.6735579 C114.01668,68.3038575 113.51448,68.0959385 112.99128,68.0959385 L91.01568,68.0959385 C89.92668,68.0959385 89.04288,68.9785457 89.04288,70.0666753 Z" id="Stroke-45" stroke="#0C79F0" stroke-width="1.74"></path>
                <path d="M127.35324,81.6221198 L114.47424,68.7610996 C114.22884,68.5160308 113.80884,68.689796 113.80884,69.0367271 L113.80884,81.8977474 C113.80884,82.1128567 113.98344,82.2872211 114.19884,82.2872211 L127.07724,82.2872211 C127.42464,82.2872211 127.59864,81.8677879 127.35324,81.6221198" id="Fill-47" fill="#FFFFFF"></path>
                <path d="M127.35324,81.6221198 L114.47424,68.7610996 C114.22884,68.5160308 113.80884,68.689796 113.80884,69.0367271 L113.80884,81.8977474 C113.80884,82.1128567 113.98344,82.2872211 114.19884,82.2872211 L127.07724,82.2872211 C127.42464,82.2872211 127.59864,81.8677879 127.35324,81.6221198 Z" id="Stroke-49" stroke="#0C79F0" stroke-width="1.74"></path>
                <path d="M95.30712,65.5487806 L95.30712,108.872635 C95.30712,109.960165 96.19032,110.842772 97.27992,110.842772 L132.31032,110.842772 C133.39932,110.842772 134.28312,109.960165 134.28312,108.872635 L134.28312,78.5859628 C134.28312,78.0634688 134.07492,77.5619466 133.70532,77.1928453 L120.65052,64.1556632 C120.28032,63.7859628 119.77872,63.5786429 119.25552,63.5786429 L97.27992,63.5786429 C96.19032,63.5786429 95.30712,64.460651 95.30712,65.5487806" id="Fill-51" fill="#FFFFFF"></path>
                <path d="M95.30712,65.5487806 L95.30712,108.872635 C95.30712,109.960165 96.19032,110.842772 97.27992,110.842772 L132.31032,110.842772 C133.39932,110.842772 134.28312,109.960165 134.28312,108.872635 L134.28312,78.5859628 C134.28312,78.0634688 134.07492,77.5619466 133.70532,77.1928453 L120.65052,64.1556632 C120.28032,63.7859628 119.77872,63.5786429 119.25552,63.5786429 L97.27992,63.5786429 C96.19032,63.5786429 95.30712,64.460651 95.30712,65.5487806 Z" id="Stroke-53" stroke="#0C79F0" stroke-width="1.74"></path>
                <path d="M133.61688,77.1042251 L120.73848,64.2432049 C120.49248,63.998136 120.07248,64.1719012 120.07248,64.5188324 L120.07248,77.3798526 C120.07248,77.5949619 120.24708,77.7693263 120.46248,77.7693263 L133.34148,77.7693263 C133.68888,77.7693263 133.86288,77.3498931 133.61688,77.1042251" id="Fill-55" fill="#FFFFFF"></path>
                <path d="M133.61688,77.1042251 L120.73848,64.2432049 C120.49248,63.998136 120.07248,64.1719012 120.07248,64.5188324 L120.07248,77.3798526 C120.07248,77.5949619 120.24708,77.7693263 120.46248,77.7693263 L133.34148,77.7693263 C133.68888,77.7693263 133.86288,77.3498931 133.61688,77.1042251 Z" id="Stroke-57" stroke="#0C79F0" stroke-width="1.74"></path>
                <polygon id="Fill-59" fill="#FFFFFF" points="112.88118 77.6530834 106.26858 77.6530834 99.65718 77.6530834 106.26858 77.6530834"></polygon>
                <polygon id="Stroke-61" stroke="#0C79F0" stroke-width="1.74" stroke-linecap="round" stroke-linejoin="round" points="112.88118 77.6530834 106.26858 77.6530834 99.65718 77.6530834 106.26858 77.6530834"></polygon>
                <polygon id="Fill-63" fill="#FFFFFF" points="122.97276 84.516868 106.26876 84.516868 99.65736 84.516868 106.26876 84.516868"></polygon>
                <polygon id="Stroke-65" stroke="#0C79F0" stroke-width="1.74" stroke-linecap="round" stroke-linejoin="round" points="122.97276 84.516868 106.26876 84.516868 99.65736 84.516868 106.26876 84.516868"></polygon>
                <polygon id="Fill-67" fill="#FFFFFF" points="129.237 91.3806526 106.269 91.3806526 99.657 91.3806526 106.269 91.3806526"></polygon>
                <polygon id="Stroke-69" stroke="#0C79F0" stroke-width="1.74" stroke-linecap="round" stroke-linejoin="round" points="129.237 91.3806526 106.269 91.3806526 99.657 91.3806526 106.269 91.3806526"></polygon>
                <polygon id="Fill-71" fill="#FFFFFF" points="117.05712 98.2444372 106.26912 98.2444372 99.65712 98.2444372 106.26912 98.2444372"></polygon>
                <polygon id="Stroke-73" stroke="#0C79F0" stroke-width="1.74" stroke-linecap="round" stroke-linejoin="round" points="117.05712 98.2444372 106.26912 98.2444372 99.65712 98.2444372 106.26912 98.2444372"></polygon>
                <polygon id="Fill-75" fill="#FFFFFF" points="125.40912 105.108162 106.26912 105.108162 99.65712 105.108162 106.26912 105.108162"></polygon>
                <polygon id="Stroke-77" stroke="#0C79F0" stroke-width="1.74" stroke-linecap="round" stroke-linejoin="round" points="125.40912 105.108162 106.26912 105.108162 99.65712 105.108162 106.26912 105.108162"></polygon>
                <path d="M137.70384,124.569563 L85.62204,124.569563 C84.53244,124.569563 83.64864,123.687555 83.64864,122.599425 L83.64864,107.078599 C83.64864,105.98987 84.53244,105.108462 85.62204,105.108462 L137.70384,105.108462 C138.79344,105.108462 139.67724,105.98987 139.67724,107.078599 L139.67724,122.599425 C139.67724,123.687555 138.79344,124.569563 137.70384,124.569563" id="Fill-79" fill="#FFFFFF"></path>
                <path d="M137.70384,124.569563 L85.62204,124.569563 C84.53244,124.569563 83.64864,123.687555 83.64864,122.599425 L83.64864,107.078599 C83.64864,105.98987 84.53244,105.108462 85.62204,105.108462 L137.70384,105.108462 C138.79344,105.108462 139.67724,105.98987 139.67724,107.078599 L139.67724,122.599425 C139.67724,123.687555 138.79344,124.569563 137.70384,124.569563 Z" id="Stroke-81" stroke="#0C79F0" stroke-width="1.74"></path>
                <g id="Group-86" transform="translate(99.000000, 114.596340)">
                    <path d="M0.48312,0.242851822 L23.79852,0.242851822" id="Fill-83" fill="#FFFFFF"></path>
                    <path d="M0.48312,0.242851822 L23.79852,0.242851822" id="Stroke-85" stroke="#0C79F0" stroke-width="1.74" stroke-linecap="round"></path>
                </g>
            </g>
        </g>
    </g>
</svg>