<?xml version="1.0" encoding="UTF-8"?>
<svg width="223px" height="149px" viewBox="0 0 223 149" version="1.1" xmlns="http://www.w3.org/2000/svg" xmlns:xlink="http://www.w3.org/1999/xlink">
    <!-- Generator: Sketch 52.2 (67145) - http://www.bohemiancoding.com/sketch -->
    <title>group_slice</title>
    <desc>Created with Sketch.</desc>
    <g id="Page-1" stroke="none" stroke-width="1" fill="none" fill-rule="evenodd">
        <g id="Artboard" transform="translate(-813.000000, -530.000000)">
            <g id="Group" transform="translate(813.000000, 530.000000)">
                <path d="M110.748013,46.7610831 C158.496251,46.7610831 197.219621,85.5446041 197.382634,133.447811 L212.476404,133.447811 C212.313392,77.1747883 166.832842,31.6060606 110.748013,31.6060606 C54.6637872,31.6060606 9.18323744,77.1747883 9.02022472,133.447811 L24.1139954,133.447811 C24.2770081,85.5446041 63.0003786,46.7610831 110.748013,46.7610831" id="Fill-1" fill="#F0F7FE"></path>
                <path d="M110.748013,46.6565657 C62.9672754,46.6565657 24.2170583,85.4868476 24.0539326,133.447811 L45.1998616,133.447811 C45.3623832,97.2188391 74.6458699,67.8991783 110.748013,67.8991783 C146.850759,67.8991783 176.133642,97.2188391 176.296768,133.447811 L197.442697,133.447811 C197.279571,85.4868476 158.529354,46.6565657 110.748013,46.6565657" id="Fill-3" fill="#E1F0FD"></path>
                <path d="M111.249136,67.7272727 C75.0926111,67.7272727 45.7650136,96.8994251 45.6022472,132.946128 L176.896629,132.946128 C176.733258,96.8994251 147.406265,67.7272727 111.249136,67.7272727" id="Fill-5" fill="#D1E6FC"></path>
                <path d="M0,133.447811 L223,133.447811" id="Stroke-7" stroke="#0C79F0" stroke-width="1.5" stroke-linecap="round"></path>
                <path d="M24.5550562,140.47138 L136.806742,140.47138" id="Stroke-9" stroke="#85C2F7" stroke-width="1.5" stroke-linecap="round"></path>
                <path d="M147.330337,140.47138 L176.395506,140.47138" id="Stroke-11" stroke="#85C2F7" stroke-width="1.5" stroke-linecap="round"></path>
                <path d="M200.449438,148.498316 L106.739326,148.498316" id="Stroke-13" stroke="#0C79F0" stroke-width="1.5" stroke-linecap="round"></path>
                <path d="M96.7168539,148.498316 L67.6516854,148.498316" id="Stroke-15" stroke="#0C79F0" stroke-width="1.5" stroke-linecap="round"></path>
                <path d="M13.0292135,51.6734007 L20.0449438,51.6734007" id="Stroke-17" stroke="#0C79F0" stroke-width="1.2" stroke-linecap="round"></path>
                <path d="M16.5370787,55.1851852 L16.5370787,48.1616162" id="Stroke-19" stroke="#0C79F0" stroke-width="1.2" stroke-linecap="round"></path>
                <path d="M187.420225,85.7878788 L194.435955,85.7878788" id="Stroke-21" stroke="#81BFF7" stroke-width="1.2"></path>
                <path d="M191.429213,89.2996633 L191.429213,82.2760943" id="Stroke-23" stroke="#81BFF7" stroke-width="1.2"></path>
                <path d="M38.0853933,72.2424242 C38.0853933,73.6281892 36.9639937,74.7508418 35.5797753,74.7508418 C34.1961462,74.7508418 33.0741573,73.6281892 33.0741573,72.2424242 C33.0741573,70.8566593 34.1961462,69.7340067 35.5797753,69.7340067 C36.9639937,69.7340067 38.0853933,70.8566593 38.0853933,72.2424242" id="Fill-25" fill="#81BFF7"></path>
                <path d="M138.811236,44.3989899 C138.811236,45.368292 138.026004,46.1548822 137.056994,46.1548822 C136.088603,46.1548822 135.303371,45.368292 135.303371,44.3989899 C135.303371,43.4296878 136.088603,42.6430976 137.056994,42.6430976 C138.026004,42.6430976 138.811236,43.4296878 138.811236,44.3989899" id="Fill-27" fill="#026AED"></path>
                <path d="M138.811236,44.3989899 C138.811236,45.368292 138.026004,46.1548822 137.056994,46.1548822 C136.088603,46.1548822 135.303371,45.368292 135.303371,44.3989899 C135.303371,43.4296878 136.088603,42.6430976 137.056994,42.6430976 C138.026004,42.6430976 138.811236,43.4296878 138.811236,44.3989899 Z" id="Stroke-29" stroke="#0C79F0" stroke-linecap="round"></path>
                <path d="M160.860674,14.5488215 C160.860674,16.4883871 159.290348,18.0606061 157.3525,18.0606061 C155.41527,18.0606061 153.844944,16.4883871 153.844944,14.5488215 C153.844944,12.609256 155.41527,11.037037 157.3525,11.037037 C159.290348,11.037037 160.860674,12.609256 160.860674,14.5488215" id="Fill-31" fill="#026AED"></path>
                <path d="M199.447191,36.3720539 C199.447191,37.3413559 198.661959,38.1279461 197.692949,38.1279461 C196.724558,38.1279461 195.939326,37.3413559 195.939326,36.3720539 C195.939326,35.4027518 196.724558,34.6161616 197.692949,34.6161616 C198.661959,34.6161616 199.447191,35.4027518 199.447191,36.3720539" id="Fill-33" fill="#81BFF7"></path>
                <path d="M199.447191,36.3720539 C199.447191,37.3413559 198.661959,38.1279461 197.692949,38.1279461 C196.724558,38.1279461 195.939326,37.3413559 195.939326,36.3720539 C195.939326,35.4027518 196.724558,34.6161616 197.692949,34.6161616 C198.661959,34.6161616 199.447191,35.4027518 199.447191,36.3720539 Z" id="Stroke-35" stroke="#0C79F0" stroke-width="1.5" stroke-linecap="round"></path>
                <path d="M96.2157303,2.50841751 C96.2157303,3.8941825 95.0943308,5.01683502 93.7101124,5.01683502 C92.3264832,5.01683502 91.2044944,3.8941825 91.2044944,2.50841751 C91.2044944,1.12265252 92.3264832,0 93.7101124,0 C95.0943308,0 96.2157303,1.12265252 96.2157303,2.50841751" id="Fill-37" fill="#81BFF7"></path>
                <path d="M88.6988764,30.8535354 C88.6988764,34.5937962 85.6697944,37.6262626 81.9337079,37.6262626 C78.1970247,37.6262626 75.1685393,34.5937962 75.1685393,30.8535354 C75.1685393,27.1132745 78.1970247,24.0808081 81.9337079,24.0808081 C85.6697944,24.0808081 88.6988764,27.1132745 88.6988764,30.8535354" id="Fill-39" fill="#81BFF7"></path>
                <path d="M174.391011,47.659623 C174.391011,49.5996369 172.820685,51.1717172 170.882837,51.1717172 C168.945607,51.1717172 167.375281,49.5996369 167.375281,47.659623 C167.375281,45.7202284 168.945607,44.1481481 170.882837,44.1481481 C172.820685,44.1481481 174.391011,45.7202284 174.391011,47.659623 Z" id="Stroke-41" stroke="#81BFF7" stroke-width="1.5"></path>
                <path d="M134.534197,96.9275749 C136.281634,91.7167681 141.900252,88.9167866 147.084578,90.6725426 L150.192878,81.4056481 C150.676096,79.964374 149.905363,78.4022855 148.471413,77.9165992 L87.7254685,57.3368567 C86.2915189,56.8511704 84.7379729,57.62584 84.2541508,59.0671141 L81.1935685,68.1937667 C86.3778942,69.9495226 89.1642502,75.5980542 87.416813,80.808861 C85.6693757,86.0196679 80.0501538,88.8202565 74.8658282,87.0638934 L71.8046418,96.190546 C71.3220278,97.63182 72.0921566,99.1933015 73.5261061,99.6795949 L134.272051,120.259337 C135.706001,120.744417 137.260151,119.970354 137.743369,118.52908 L140.757441,109.542669 C135.573116,107.786306 132.786156,102.138382 134.534197,96.9275749" id="Fill-43" fill="#FFFFFF"></path>
                <path d="M134.534197,96.9275749 C136.281634,91.7167681 141.900252,88.9167866 147.084578,90.6725426 L150.192878,81.4056481 C150.676096,79.964374 149.905363,78.4022855 148.471413,77.9165992 L87.7254685,57.3368567 C86.2915189,56.8511704 84.7379729,57.62584 84.2541508,59.0671141 L81.1935685,68.1937667 C86.3778942,69.9495226 89.1642502,75.5980542 87.416813,80.808861 C85.6693757,86.0196679 80.0501538,88.8202565 74.8658282,87.0638934 L71.8046418,96.190546 C71.3220278,97.63182 72.0921566,99.1933015 73.5261061,99.6795949 L134.272051,120.259337 C135.706001,120.744417 137.260151,119.970354 137.743369,118.52908 L140.757441,109.542669 C135.573116,107.786306 132.786156,102.138382 134.534197,96.9275749 Z" id="Stroke-45" stroke="#0C79F0" stroke-width="1.6"></path>
                <path d="M104.734831,63.2121212 L103.732584,66.7239057" id="Stroke-47" stroke="#0C79F0" stroke-width="1.6"></path>
                <path d="M101.226966,73.7474747 L93.2089888,98.3299663" id="Stroke-49" stroke="#0C79F0" stroke-width="1.6" stroke-dasharray="6.079999923706055,6.079999923706055"></path>
                <path d="M92.2067416,101.841751 L91.2044944,105.353535" id="Stroke-51" stroke="#0C79F0" stroke-width="1.6"></path>
                <path d="M104.734831,63.2121212 L103.732584,66.7239057" id="Stroke-53" stroke="#0C79F0" stroke-width="1.6"></path>
                <path d="M101.226966,73.7474747 L93.2089888,98.3299663" id="Stroke-55" stroke="#0C79F0" stroke-width="1.6" stroke-dasharray="6.079999923706055,6.079999923706055"></path>
                <path d="M92.2067416,101.841751 L91.2044944,105.353535" id="Stroke-57" stroke="#0C79F0" stroke-width="1.6"></path>
                <path d="M133.405017,99.2302101 C133.405017,93.7352009 137.844994,89.2818047 143.321348,89.2818047 L143.321348,79.5093269 C143.321348,77.989676 142.0939,76.7575758 140.579241,76.7575758 L76.407276,76.7575758 C74.8926168,76.7575758 73.6651685,77.989676 73.6651685,79.5093269 L73.6651685,89.1331762 C79.1421275,89.1331762 83.5821043,93.5877857 83.5821043,99.0821883 C83.5821043,104.576591 79.1421275,109.0312 73.6651685,109.0312 L73.6651685,118.655656 C73.6651685,120.174701 74.8926168,121.407407 76.407276,121.407407 L140.579241,121.407407 C142.0939,121.407407 143.321348,120.174701 143.321348,118.655656 L143.321348,109.179222 C137.844994,109.179222 133.405017,104.725219 133.405017,99.2302101" id="Fill-59" fill="#FFFFFF"></path>
                <path d="M133.405017,99.2302101 C133.405017,93.7352009 137.844994,89.2818047 143.321348,89.2818047 L143.321348,79.5093269 C143.321348,77.989676 142.0939,76.7575758 140.579241,76.7575758 L76.407276,76.7575758 C74.8926168,76.7575758 73.6651685,77.989676 73.6651685,79.5093269 L73.6651685,89.1331762 C79.1421275,89.1331762 83.5821043,93.5877857 83.5821043,99.0821883 C83.5821043,104.576591 79.1421275,109.0312 73.6651685,109.0312 L73.6651685,118.655656 C73.6651685,120.174701 74.8926168,121.407407 76.407276,121.407407 L140.579241,121.407407 C142.0939,121.407407 143.321348,120.174701 143.321348,118.655656 L143.321348,109.179222 C137.844994,109.179222 133.405017,104.725219 133.405017,99.2302101 Z" id="Stroke-61" stroke="#0C79F0" stroke-width="1.6"></path>
                <path d="M94.7123596,117.393939 L94.7123596,120.905724" id="Stroke-67" stroke="#0C79F0" stroke-width="1.6"></path>
                <path d="M116.33527,97.326598 C115.893242,97.3272033 115.476281,97.1256403 115.204829,96.7800173 L109.566071,89.603649 C109.238982,89.2059707 109.154612,88.6630218 109.345974,88.1860499 C109.537947,87.7084728 109.975695,87.3719292 110.489255,87.3047415 C111.004037,87.2387645 111.514539,87.4524333 111.823897,87.8640334 L117.462655,95.041007 C117.798303,95.4677394 117.858218,96.0457954 117.619168,96.5318467 C117.379507,97.0178979 116.881233,97.3259927 116.33527,97.326598" id="Fill-69" fill="#0C79F0"></path>
                <path d="M117.178551,97.3265943 C116.641811,97.3260029 116.151217,97.0303132 115.910169,96.5631234 C115.669729,96.0953422 115.720125,95.5358972 116.040104,95.1160177 L121.238708,88.3246156 C121.714124,87.7332361 122.587237,87.6202826 123.205338,88.0691397 C123.824046,88.5179967 123.961874,89.3654435 123.51621,89.9787041 L118.319427,96.7701062 C118.051057,97.1207942 117.627858,97.327777 117.178551,97.3265943" id="Fill-71" fill="#0C79F0"></path>
                <path d="M124.562343,103.346801 L109.459332,103.346801 C108.672831,103.346801 108.035473,102.714783 108.035473,101.935617 C108.035473,101.155847 108.672831,100.524432 109.459332,100.524432 L124.563561,100.524432 C125.350671,100.524432 125.988029,101.15645 125.988029,101.93622 C125.98742,102.715386 125.349453,103.347404 124.562343,103.346801 M125.360411,97.6411535 L108.664917,97.6411535 C107.878416,97.6411535 107.240449,97.0091359 107.240449,96.2293661 C107.240449,95.4501994 107.878416,94.8181818 108.664917,94.8181818 L125.360411,94.8181818 C126.14752,94.8181818 126.78427,95.4501994 126.78427,96.2293661 C126.78427,97.0091359 126.14752,97.6411535 125.360411,97.6411535" id="Fill-73" fill="#0C79F0"></path>
                <path d="M116.761797,111.875421 C116.362826,111.875421 115.980558,111.726426 115.698516,111.461612 C115.416474,111.197402 115.258427,110.837883 115.258427,110.463284 L115.258427,96.2297156 C115.258427,95.4503559 115.931731,94.8181818 116.761797,94.8181818 C117.592505,94.8181818 118.265167,95.4503559 118.265167,96.2297156 L118.265167,110.462077 C118.265809,110.836677 118.107762,111.196196 117.825078,111.461009 C117.543678,111.726426 117.160768,111.875421 116.761797,111.875421" id="Fill-75" fill="#0C79F0"></path>
                <path d="M94.7123596,77.0084175 L94.7123596,120.905724" id="Stroke-81" stroke="#0C79F0" stroke-width="1.6" stroke-dasharray="6"></path>
            </g>
        </g>
    </g>
</svg>