<?xml version="1.0" encoding="UTF-8"?>
<svg width="90px" height="90px" viewBox="0 0 90 90" version="1.1" xmlns="http://www.w3.org/2000/svg" xmlns:xlink="http://www.w3.org/1999/xlink">
    <!-- Generator: Sketch 52.2 (67145) - http://www.bohemiancoding.com/sketch -->
    <title>icon_slice</title>
    <desc>Created with Sketch.</desc>
    <g id="登录注册" stroke="none" stroke-width="1" fill="none" fill-rule="evenodd">
        <g id="Artboard" transform="translate(-160.000000, 0.000000)">
            <g id="Icon" transform="translate(160.000000, 0.000000)">
                <circle id="Oval-2-Copy-3" fill="#1E5ADC" opacity="0.100000001" cx="45" cy="45" r="45"></circle>
                <circle id="Oval-2-Copy" fill="#1E5ADC" opacity="0.200000003" cx="45" cy="45" r="35"></circle>
                <g id="Main-Icon" transform="translate(20.000000, 20.000000)">
                    <circle id="Oval-2-Copy-2" fill="#FFFFFF" cx="25" cy="25" r="20"></circle>
                    <path d="M25,50 C11.1928813,50 0,38.8071187 0,25 C0,11.1928813 11.1928813,0 25,0 C38.8071187,0 50,11.1928813 50,25 C50,38.8071187 38.8071187,50 25,50 Z M25.1566245,38.8974509 C26.7690011,38.8974509 28.2451205,37.5013894 28.1656371,35.9010262 C28.2337657,34.1417617 26.8371297,32.7457002 25.1566245,32.7457002 C23.4761194,32.7457002 22.0794834,34.1417617 22.0794834,35.8215755 C22.0794834,37.5013894 23.4761194,38.8974509 25.1566245,38.8974509 Z M27.9612513,19.0120869 C28.0293799,17.4798242 28.1769919,15.9362115 28.2451205,14.3812486 C28.2451205,13.813744 28.1769919,13.3256899 27.9612513,12.8376359 C27.3253845,11.4415744 25.8606199,10.7378686 24.3845005,11.0897215 C22.9083812,11.509675 22,12.8376359 22,14.4493492 C22.0794834,15.4254573 22.1476119,16.4129154 22.2157405,17.3890235 C22.4201263,21.1005041 22.6358668,24.7438841 22.8402526,28.4553648 C22.9197359,29.7152252 23.8962457,30.6232326 25.1566245,30.6232326 C26.4170034,30.6232326 27.4048679,29.6471246 27.4729965,28.3872642 C27.4729965,27.6268079 27.4729965,26.9231021 27.5411251,26.1512957 C27.6773822,23.7677761 27.8249942,21.3956065 27.9612513,19.0120869 Z" id="Attention" fill="#1E5ADC"></path>
                </g>
            </g>
        </g>
    </g>
</svg>