<?xml version="1.0" encoding="UTF-8"?>
<svg width="10px" height="12px" viewBox="0 0 10 12" version="1.1" xmlns="http://www.w3.org/2000/svg" xmlns:xlink="http://www.w3.org/1999/xlink">
    <!-- Generator: Sketch 52.2 (67145) - http://www.bohemiancoding.com/sketch -->
    <title>group_2_slice</title>
    <desc>Created with Sketch.</desc>
    <g id="体育落地页" stroke="none" stroke-width="1" fill="none" fill-rule="evenodd">
        <g id="Artboard" transform="translate(0.000000, -2.000000)">
            <g id="Group-2" transform="translate(5.000000, 8.000000) rotate(-90.000000) translate(-5.000000, -8.000000) translate(-1.000000, 3.000000)">
                <path d="M11.6248242,5.99981863 L3.00009375,5.99981863 L3.00009375,4.90892596 C3.00009375,4.76201909 2.90859661,4.62893018 2.76835099,4.57293102 C2.62810537,4.51693187 2.46761039,4.54820412 2.35961376,4.6514753 L0.109684072,6.83326062 C-0.0365613575,6.97507667 -0.0365613575,7.20561865 0.109684072,7.34743469 L2.35961376,9.52922002 C2.46761039,9.63321845 2.62810537,9.66449071 2.76835099,9.60849155 C2.90859661,9.55249239 3.00009375,9.41940349 3.00009375,9.27249661 L3.00009375,8.18160395 L11.6248242,8.18160395 C11.8318178,8.18160395 11.9998125,8.01869731 11.9998125,7.81797306 L11.9998125,6.36344951 C11.9998125,6.161998 11.8318178,5.99981863 11.6248242,5.99981863 Z" id="Shape" fill="#D9112F"></path>
                <path d="M11.8901284,2.28901656 L9.64019874,0.106503978 C9.5329521,0.00250554436 9.37170713,-0.028766712 9.23146152,0.0279597065 C9.0912159,0.0846861249 8.99971876,0.217047768 8.99971876,0.363954646 L8.99971876,1.45484731 L0.374988282,1.45484731 C0.16799475,1.45484731 0,1.61775395 0,1.8184782 L0,3.27300174 C0,3.47372599 0.16799475,3.63663263 0.374988282,3.63663263 L8.99971876,3.63663263 L8.99971876,4.72752529 C8.99971876,4.87443217 9.0912159,5.00752108 9.23146152,5.06352023 C9.37170713,5.12024665 9.5329521,5.0889744 9.64019874,4.98497596 L11.8901284,2.80319064 C12.0363739,2.66137459 12.0363739,2.43083261 11.8901284,2.28901656 Z" id="Shape" fill="#1E5ADC"></path>
            </g>
        </g>
    </g>
</svg>