<?xml version="1.0" encoding="utf-8"?>
<!-- Generator: Adobe Illustrator 22.1.0, SVG Export Plug-In . SVG Version: 6.00 Build 0)  -->
<svg version="1.1" id="Layer_1" xmlns="http://www.w3.org/2000/svg" xmlns:xlink="http://www.w3.org/1999/xlink" x="0px" y="0px"
	 viewBox="0 0 23 23" style="enable-background:new 0 0 23 23;" xml:space="preserve">
<path id="Fill-1" class="st1" d="M10.2,21.9c0,0-0.5-2.3,0.7-3.7c1,0.6,3.4,1.6,5.9,1.7C16,20.3,14.1,21.9,10.2,21.9"/>
<path id="Fill-4" class="st2" d="M11.8,17.2c0,0,2.6,1.4,6.5,1.5c1.4-1.5,2.3-3.6,2.6-4.8c-1,0.6-2.6,0.8-3.3,0.9
	C16.9,14.9,13.8,14.8,11.8,17.2"/>
<path id="Fill-6" class="st4" d="M8.3,14.5c0,0,6.1-3.6,9.2-11.3c1.6,1.3,4.1,4.6,3.8,8.8c-1.5,1.1-3.2,1.4-5,1.5
	c-1.8,0.2-4.7,1.1-5.6,2.9C9.9,15.9,8.3,14.5,8.3,14.5"/>
<path id="Fill-9" class="st6" d="M6,11.4c0,0,0.8,1.4,1.5,2.2c1.6-1,7.4-5.7,8.9-11.2c-1.6-0.9-4-1.6-5.7-1.7
	C10,1.9,9.6,3.6,9.2,5.9C8.9,8.3,7.6,10.1,6,11.4"/>
<path id="Fill-12" class="st2" d="M4,3c0,0-0.4,3.7,1.4,7.1c0,0,1.8-1.1,2.5-4.2s0.3-3.4,1.2-5.1C8.3,0.8,5.8,1.7,4,3"/>
<path id="Fill-14" class="st2" d="M2.7,4.2c0,0-0.1,3.6,1.6,6.5c-0.7,0.3-2.8,0.5-4.3,0.2C0.1,8.9,1,6.4,2.7,4.2"/>
<path id="Fill-16" class="st2" d="M4.9,12.2c0,0,1.1,1.6,1.5,2.1c-0.7,0.4-3.5,1.9-5,2.1c-0.8-1.2-1.4-3.4-1.5-4
	C1.8,12.7,4.1,12.6,4.9,12.2"/>
<path id="Fill-18" class="st2" d="M7.3,15.4c0,0,1.3,1.3,2.5,2.1c-0.3,0.3-0.8,1.7-0.8,4c-1.3-0.1-4.3-0.9-6.8-3.8
	C3.8,17.4,6.4,16.2,7.3,15.4"/>
</svg>
