<?xml version="1.0" encoding="utf-8"?>
<!-- Generator: Adobe Illustrator 22.1.0, SVG Export Plug-In . SVG Version: 6.00 Build 0)  -->
<svg version="1.1" id="Layer_1" xmlns="http://www.w3.org/2000/svg" xmlns:xlink="http://www.w3.org/1999/xlink" x="0px" y="0px"
	 viewBox="0 0 8 12" style="enable-background:new 0 0 8 12;" xml:space="preserve">
<mask maskUnits="userSpaceOnUse" x="0" y="8.4" width="3.2" height="3.2" id="mask-2_1_">
	<polygon id="path-1_1_" class="st0" points="0,8.4 3.2,8.4 3.2,11.5 0,11.5 	"/>
</mask>
<path id="Fill-1" class="st1" d="M0,8.4V11c0,0.3,0.2,0.5,0.5,0.5h2.6C3.2,9.8,1.7,8.4,0,8.4"/>
<defs>
	<filter id="Adobe_OpacityMaskFilter_1_" filterUnits="userSpaceOnUse" x="0" y="1" width="7.7" height="10.5">
		<feColorMatrix  type="matrix" values="1 0 0 0 0  0 1 0 0 0  0 0 1 0 0  0 0 0 1 0"/>
	</filter>
</defs>
<mask maskUnits="userSpaceOnUse" x="0" y="1" width="7.7" height="10.5" id="mask-4_1_">
	<polygon id="path-3_1_" class="st2" points="0,1 7.7,1 7.7,11.5 0,11.5 	"/>
</mask>
<path id="Fill-4" class="st3" d="M0,1.5v4.8c2.9,0,5.2,2.3,5.2,5.2h2c0.3,0,0.5-0.2,0.5-0.5V1.5C7.7,1.2,7.5,1,7.2,1H0.5
	C0.2,1,0,1.2,0,1.5"/>
</svg>
