<?xml version="1.0" encoding="UTF-8"?>
<svg width="22px" height="24px" viewBox="0 0 22 24" version="1.1" xmlns="http://www.w3.org/2000/svg" xmlns:xlink="http://www.w3.org/1999/xlink">
    <!-- Generator: Sketch 52.1 (67048) - http://www.bohemiancoding.com/sketch -->
    <title>group_16_slice</title>
    <desc>Created with Sketch.</desc>
    <g id="Page-1" stroke="none" stroke-width="1" fill="none" fill-rule="evenodd">
        <g id="Artboard" transform="translate(-118.000000, -1791.000000)" fill="#1E5ADC">
            <g id="Group-16" transform="translate(118.000000, 1791.500000)">
                <path d="M13.9005183,19.7191272 L12.7956076,18.5927013 C12.7956076,18.5927013 14.317929,17.1933771 14.8274156,16.1123542 C15.4965004,15.9922405 17.1830362,15.5808753 17.9226879,15.0463695 C18.1135183,15.4177129 18.5626522,16.2595174 18.5626522,16.2595174 L18.746804,16.5913194 L17.9395808,18.3584797 L17.098621,18.7488491 L14.3670362,20.190213 L13.9005183,19.7191272 Z" id="Fill-1"></path>
                <path d="M20.3581076,10.7773041 C20.3581076,10.7773041 19.4455496,11.2697701 19.0035853,11.4939983 C18.8766924,11.0295428 17.8337058,9.45206601 17.2275272,8.91155453 C17.3809871,7.48820763 16.9727594,5.70149287 16.9727594,5.70149287 L18.6946031,5.4702981 L19.3227817,5.38420062 L20.8000719,9.72030384 L20.7755183,10.5600905 L20.3581076,10.7773041 Z" id="Fill-3"></path>
                <path d="M8.00459196,1.96596758 L7.76519464,3.34126901 C7.76519464,3.34126901 9.74278839,3.54248342 10.8620384,4.31121086 C12.0037795,3.75868801 13.090275,3.47036718 14.0540027,3.42232171 C14.0110339,3.01994094 13.7961902,1.92094898 13.7961902,1.92094898 L13.6774982,1.18623773 L10.1499848,0.569670274 L8.11508304,1.17023859 L8.00459196,1.96596758 Z" id="Fill-5"></path>
                <path d="M1.3536433,10.7452722 C1.3536433,10.7452722 1.86106741,10.9854995 2.79410313,11.5299987 C3.11329955,10.5690894 4.21821027,9.34393008 4.68472813,8.9115209 C4.43104063,7.12586314 4.86887991,5.72850884 4.86887991,5.72850884 L3.18696027,5.4322605 L2.3050942,5.21802577 L1.79560759,7.2359353 L0.463576339,10.2688053 L1.3536433,10.7452722 Z" id="Fill-7"></path>
                <path d="M7.81737098,19.6376902 C7.81737098,19.6376902 8.4066567,19.0251105 8.96525045,18.5086218 C8.08746027,17.9681103 7.09304062,16.4967179 6.89661205,16.0943371 C5.9083308,16.0763201 3.81513884,15.0373369 3.81513884,15.0373369 L3.11128616,16.3705986 L4.6192683,18.2323603 L5.89197812,19.1492119 L7.81737098,19.6376902 Z" id="Fill-9"></path>
                <polygon id="Fill-11" points="8.72789598 13.9162729 13.1066326 13.9162729 14.4897844 9.88045379 10.909579 7.32602055 7.34469509 9.78436286"></polygon>
                <g id="Group-15" transform="translate(0.000000, 0.007111)">
                    <path d="M10.9790902,20.1262357 C5.7047375,20.1262357 1.42902768,15.9429651 1.42902768,10.7826419 C1.42902768,5.62231875 5.7047375,1.43904816 10.9790902,1.43904816 C16.2534429,1.43904816 20.5291527,5.62231875 20.5291527,10.7826419 C20.5291527,15.9429651 16.2534429,20.1262357 10.9790902,20.1262357 M10.9790902,0.0409251271 C4.9154875,0.0409251271 9.82142857e-06,4.85013204 9.82142857e-06,10.7826419 C9.82142857e-06,16.7151518 4.9154875,21.5243587 10.9790902,21.5243587 C17.0426929,21.5243587 21.9581705,16.7151518 21.9581705,10.7826419 C21.9581705,4.85013204 17.0426929,0.0409251271 10.9790902,0.0409251271" id="Fill-13"></path>
                </g>
            </g>
        </g>
    </g>
</svg>