<?xml version="1.0" encoding="UTF-8"?>
<svg width="24px" height="29px" viewBox="0 0 24 29" version="1.1" xmlns="http://www.w3.org/2000/svg" xmlns:xlink="http://www.w3.org/1999/xlink">
    <!-- Generator: Sketch 52.2 (67145) - http://www.bohemiancoding.com/sketch -->
    <title>group_10_slice</title>
    <desc>Created with Sketch.</desc>
    <g id="充提转" stroke="none" stroke-width="1" fill="none" fill-rule="evenodd">
        <g id="Artboard" transform="translate(-233.000000, -41.000000)">
            <g id="Group-10" transform="translate(233.000000, 41.000000)">
                <g id="Group-3" transform="translate(0.000000, 3.634729)" fill="#FFFFFF">
                    <path d="M11.91834,22.4827457 C6.56814,22.4827457 2.23074,18.0032372 2.23074,12.4777457 C2.23074,6.95163462 6.56814,2.47212607 11.91834,2.47212607 C17.26854,2.47212607 21.60594,6.95163462 21.60594,12.4777457 C21.60594,18.0032372 17.26854,22.4827457 11.91834,22.4827457 M11.91834,0.168856838 C5.33634,0.168856838 -6e-05,5.6794765 -6e-05,12.4777457 C-6e-05,19.2753953 5.33634,24.7866346 11.91834,24.7866346 C18.50034,24.7866346 23.83674,19.2753953 23.83674,12.4777457 C23.83674,5.6794765 18.50034,0.168856838 11.91834,0.168856838" id="Fill-1"></path>
                </g>
                <path d="M21.69822,10.9151538 L18.05502,6.64385043 L19.32282,5.49004701 C19.66062,5.18331624 20.17542,5.21677778 20.47242,5.5656453 L23.03922,8.57408547 C23.33622,8.92295299 23.30382,9.45461966 22.96602,9.76197009 L21.69822,10.9151538 Z" id="Fill-4" fill="#FFFFFF"></path>
                <path d="M14.3435545,20.1453739 L11.9181,16.1120406 L19.2763227,16.1120406 C19.2763227,12.002676 15.9819491,8.67140515 11.9181,8.67140515 C7.85425091,8.67140515 4.55987727,12.002676 4.55987727,16.1120406 C4.55987727,20.2214051 7.85425091,23.552676 11.9181,23.552676 C13.3188,23.552676 14.6230882,23.1498332 15.7375845,22.4630997 L14.3435545,20.1453739 Z" id="Fill-6" fill="#FBFBFB" transform="translate(11.918100, 16.112041) rotate(-90.000000) translate(-11.918100, -16.112041) "></path>
                <path d="M9.56101218,2.88122436 L14.2751878,2.88122436 C15.070816,2.88122436 15.7158,2.23624032 15.7158,1.44061218 L15.7158,1.44061218 C15.7158,0.644984042 15.070816,-7.31236479e-16 14.2751878,-1.99840144e-15 L9.56101218,2.22044605e-16 C8.76538404,3.68199123e-16 8.1204,0.644984042 8.1204,1.44061218 L8.1204,1.44061218 C8.1204,2.23624032 8.76538404,2.88122436 9.56101218,2.88122436 Z" id="Fill-8" fill="#FFFFFF"></path>
            </g>
        </g>
    </g>
</svg>