<?xml version="1.0" encoding="UTF-8"?>
<svg width="22px" height="20px" viewBox="0 0 22 20" version="1.1" xmlns="http://www.w3.org/2000/svg" xmlns:xlink="http://www.w3.org/1999/xlink">
    <!-- Generator: Sketch 52.2 (67145) - http://www.bohemiancoding.com/sketch -->
    <title>group_9_slice</title>
    <desc>Created with Sketch.</desc>
    <defs>
        <polygon id="path-1" points="0.11533617 0.246073171 18.8457617 0.246073171 18.8457617 4.90283415 0.11533617 4.90283415"></polygon>
        <polygon id="path-3" points="0 0.0831829268 18.7302383 0.0831829268 18.7302383 12.5121951 0 12.5121951"></polygon>
    </defs>
    <g id="充提转" stroke="none" stroke-width="1" fill="none" fill-rule="evenodd">
        <g id="Artboard" transform="translate(-14.000000, -16.000000)">
            <g id="Group-9" transform="translate(14.000000, 16.000000)">
                <path d="M19.0691319,3.23162195 L3.52355745,3.23162195 L3.52355745,5.05469512 L18.5617277,5.05469512 C19.5198979,5.05469512 20.2285787,5.82396341 20.2285787,6.77257317 L20.2285787,15.1969878 L21.6075574,15.1969878 L21.6075574,5.74471951 C21.6075574,4.35679268 20.4710468,3.23162195 19.0691319,3.23162195" id="Fill-1" fill="#FBFBFB"></path>
                <g id="Group-5" transform="translate(0.468085, 0.217434)">
                    <mask id="mask-2" fill="white">
                        <use xlink:href="#path-1"></use>
                    </mask>
                    <g id="Clip-4"></g>
                    <path d="M18.8457617,0.245980488 L1.64035745,0.245980488 C0.79827234,0.245980488 0.11533617,0.921639024 0.11533617,1.75578537 L0.11533617,4.90283415 L1.54908085,4.90283415 L1.54908085,1.7599561 L18.8457617,1.7599561 L18.8457617,0.245980488 Z" id="Fill-3" fill="#FBFBFB" mask="url(#mask-2)"></path>
                </g>
                <g id="Group-8" transform="translate(0.000000, 6.241824)">
                    <mask id="mask-4" fill="white">
                        <use xlink:href="#path-3"></use>
                    </mask>
                    <g id="Clip-7"></g>
                    <path d="M17.6751745,3.94296341 C16.2550043,3.5879878 15.1334723,2.4985 14.7458979,1.10408537 L16.7343234,1.10408537 C17.2538979,1.10408537 17.6751745,1.52115854 17.6751745,2.03554878 L17.6751745,3.94296341 Z M17.6751745,10.3816463 C17.6751745,10.8960366 17.2538979,11.3131098 16.7343234,11.3131098 L14.8076851,11.3131098 C15.1662383,9.90710976 16.2667064,8.79676829 17.6751745,8.41306098 L17.6751745,10.3816463 Z M9.36525957,8.78842683 C7.8463234,8.78842683 6.61525957,7.56964634 6.61525957,6.06586585 C6.61525957,4.56208537 7.8463234,3.34330488 9.36525957,3.34330488 C10.8841957,3.34330488 12.1152596,4.56208537 12.1152596,6.06586585 C12.1152596,7.56964634 10.8841957,8.78842683 9.36525957,8.78842683 Z M2.02428085,11.2825244 C1.50470638,11.2825244 1.08342979,10.8654512 1.08342979,10.351061 L1.08342979,8.44364634 C2.5036,8.79862195 3.62513191,9.88810976 4.01270638,11.2825244 L2.02428085,11.2825244 Z M1.08342979,2.00496341 C1.08342979,1.49057317 1.50470638,1.0735 2.02428085,1.0735 L3.95091915,1.0735 C3.59236596,2.4795 2.49189787,3.58984146 1.08342979,3.97354878 L1.08342979,2.00496341 Z M17.3554723,0.0831829268 L1.37504681,0.0831829268 C0.615344681,0.0831829268 -0.000187234043,0.692573171 -0.000187234043,1.44469512 L-0.000187234043,11.1509146 C-0.000187234043,11.9025732 0.615344681,12.5124268 1.37504681,12.5124268 L17.3554723,12.5124268 C18.1147064,12.5124268 18.7302383,11.9025732 18.7302383,11.1509146 L18.7302383,1.44469512 C18.7302383,0.692573171 18.1147064,0.0831829268 17.3554723,0.0831829268 Z" id="Fill-6" fill="#FBFBFB" mask="url(#mask-4)"></path>
                </g>
            </g>
        </g>
    </g>
</svg>