<?xml version="1.0" encoding="UTF-8"?>
<svg width="21px" height="14px" viewBox="0 0 21 14" version="1.1" xmlns="http://www.w3.org/2000/svg" xmlns:xlink="http://www.w3.org/1999/xlink">
    <!-- Generator: Sketch 52.2 (67145) - http://www.bohemiancoding.com/sketch -->
    <title>credit_card_slice</title>
    <desc>Created with Sketch.</desc>
    <g id="充提转" stroke="none" stroke-width="1" fill="none" fill-rule="evenodd">
        <g id="Artboard" transform="translate(-15.000000, -18.000000)" fill="#FFFFFF" fill-rule="nonzero">
            <path d="M34.3486832,19.851478 L34.3486832,21.4727805 L15,21.4727805 L15,19.851478 C15,18.8289356 15.8020911,18 16.7915192,18 L32.557164,18 C33.5465921,18 34.3486832,18.8288896 34.3486832,19.851478 Z M31.5582555,22.8193811 C34.0074351,22.8193811 35.999911,24.8785875 36,27.4096905 C36,29.9408396 34.0074351,32 31.5583445,32 C30.4637424,32 29.4605166,31.5885451 28.6854423,30.9075401 L16.7915192,30.9075401 C15.8020911,30.9075401 15,30.0785585 15,29.0560621 L15,23.4392083 L29.3315304,23.4392083 C29.9865647,23.0453248 30.7472182,22.8193811 31.5582555,22.8193811 Z M32.9098953,25.7969897 L33.5393817,26.4474519 C33.5601673,26.4690711 33.5719621,26.498326 33.5719621,26.5288229 C33.5719621,26.5594117 33.5602563,26.5886207 33.5393817,26.6101939 L31.1160172,29.1145719 C31.0942524,29.1370191 31.0657669,29.1482427 31.0373258,29.1482427 C31.0087513,29.1482427 30.9803102,29.1370191 30.95859,29.1145719 L29.5654235,27.6748708 C29.544638,27.6532976 29.5328877,27.6240887 29.5328877,27.5935458 C29.5328877,27.5630029 29.544549,27.533794 29.5654235,27.5122208 L30.1949544,26.8616207 C30.2366145,26.8184742 30.310499,26.8184742 30.3522481,26.8616207 L31.0373258,27.5695347 L32.7525571,25.7969897 C32.7959531,25.7520034 32.8663658,25.7520034 32.9098953,25.7969897 Z M31.5582555,30.3191757 C33.1130775,30.3191757 34.37343,29.0165495 34.37343,27.4097365 C34.37343,25.8029235 33.1130775,24.5003433 31.5582555,24.5003433 C30.0033445,24.5003433 28.7430365,25.8028775 28.7430365,27.4097365 C28.7430365,29.0165955 30.0033445,30.3191757 31.5582555,30.3191757 Z" id="Credit-Card"></path>
        </g>
    </g>
</svg>