<?xml version="1.0" encoding="UTF-8"?>
<svg width="31px" height="26px" viewBox="0 0 31 26" version="1.1" xmlns="http://www.w3.org/2000/svg" xmlns:xlink="http://www.w3.org/1999/xlink">
    <!-- Generator: Sketch 52.2 (67145) - http://www.bohemiancoding.com/sketch -->
    <title>group_14_slice</title>
    <desc>Created with Sketch.</desc>
    <defs>
        <polygon id="path-1" points="0 25.939414 30.7422745 25.939414 30.7422745 -0.000120930233 0 -0.000120930233"></polygon>
    </defs>
    <g id="关于我们" stroke="none" stroke-width="1" fill="none" fill-rule="evenodd">
        <g id="Artboard" transform="translate(-28.000000, -429.000000)">
            <g id="Group-14" transform="translate(28.000000, 429.000000)">
                <path d="M17.7082333,13.3631535 C17.9428608,12.8522233 18.1446647,12.2729674 18.298449,11.6175256 C18.9986843,11.5014326 19.7280961,11.0854326 19.9615078,9.84771163 C20.1949196,8.60938605 20.1268412,7.77496744 19.0254294,7.60808372 C19.1859,6.86073488 20.1268412,1.58636279 13.8934098,0.68664186 C11.0049392,0.299665116 10.8590569,1.40738605 10.8590569,1.40738605 C10.8590569,1.40738605 6.68742941,1.29613023 6.39566471,4.48808372 C6.25950784,5.69738605 6.33731176,7.00343256 6.5026451,7.57422326 C5.76350784,7.66129302 5.14593922,8.44975814 5.40852745,9.69775814 C5.67111569,10.9451535 6.59017451,11.5014326 7.20288039,11.5594791 C7.40346863,12.3491535 8.50244902,15.7503163 11.5586843,16.9058047" id="Stroke-1" stroke="#231F20" stroke-width="1.2"></path>
                <path d="M8.19469804,18.0409767 C6.82340392,18.8826512 4.62118824,19.4050698 2.54965882,20.1306512 C0.478129412,20.8562326 0.609423529,22.5534884 0.609423529,22.5534884 L0.609423529,24.2096279" id="Stroke-3" stroke="#231F20" stroke-width="1.2"></path>
                <path d="M17.0784471,21.1251814 L13.3730353,17.785693 C13.2271529,17.6006698 13.3596627,17.329786 13.5961137,17.329786 L17.0784471,17.329786 C17.0784471,16.2402047 17.9665059,15.317507 19.0624471,15.317507 L28.1503098,15.317507 C29.246251,15.317507 30.1343098,16.2009023 30.1343098,17.2910884 L30.1343098,23.3611814 C30.1343098,24.4513674 29.246251,25.3347628 28.1503098,25.3347628 L18.8721922,25.3347628 C17.8880941,25.3347628 17.0887804,24.5420651 17.0857412,23.5631349 L17.0784471,21.1251814 Z" id="Stroke-5" stroke="#231F20" stroke-width="1.2"></path>
                <path d="M23.4482176,18.0409767 L23.4482176,20.7951628" id="Stroke-7" stroke="#231F20" stroke-width="1.2"></path>
                <path d="M23.4482176,21.8155116 L23.4482176,22.7980698" id="Stroke-9" stroke="#231F20" stroke-width="1.2"></path>
                <mask id="mask-2" fill="white">
                    <use xlink:href="#path-1"></use>
                </mask>
                <g id="Clip-12"></g>
                <polygon id="Fill-11" fill="#231F20" mask="url(#mask-2)" points="29.1393922 24.9901116 29.9320196 24.9901116 29.9320196 15.3864372 29.1393922 15.3864372"></polygon>
                <path d="M27.9057137,24.7128186 C27.9057137,24.7128186 29.1390275,24.4860744 29.1390275,23.2138884 C29.1390275,21.9417023 29.5797137,23.6522605 29.5797137,23.6522605 L29.5797137,24.838586 L27.9057137,24.838586 L27.9057137,24.7128186 Z" id="Fill-13" fill="#231F20" mask="url(#mask-2)"></path>
            </g>
        </g>
    </g>
</svg>