<?xml version="1.0" encoding="UTF-8"?>
<svg width="28px" height="30px" viewBox="0 0 28 30" version="1.1" xmlns="http://www.w3.org/2000/svg" xmlns:xlink="http://www.w3.org/1999/xlink">
    <!-- Generator: Sketch 52.2 (67145) - http://www.bohemiancoding.com/sketch -->
    <title>group_19 copy 2_slice</title>
    <desc>Created with Sketch.</desc>
    <g id="关于我们" stroke="none" stroke-width="1" fill="none" fill-rule="evenodd">
        <g id="Artboard" transform="translate(-405.000000, -309.000000)" stroke="#1E5ADC">
            <g id="Group-19-Copy-2" transform="translate(405.000000, 309.000000)">
                <path d="M16.3331,4.22644068 C16.3331,4.22644068 16.6681,9.09 13.8286,9.09 C10.9886,9.09 11.3236,4.22644068 11.3236,4.22644068" id="Stroke-1"></path>
                <path d="M15.2193,8.27191525 L15.2193,9.78208475 C15.2193,10.2224237 16.7753,10.9902203 16.7753,10.9902203 L18.5388,11.0802203 C20.0048,11.1544576 21.2143,12.3529322 21.2303,13.8453051 C21.2308,13.8605593 21.2308,13.8753051 21.2308,13.8905593 L21.2308,19.6281864 C21.2308,20.6054746 17.0033,24.377339 17.0033,24.377339 L15.9693,25.5392034 L12.9113,25.5392034 C12.5148,25.5392034 12.3358,24.9219153 12.6408,24.606661 C12.9838,24.2522542 13.3648,23.8586949 13.6693,23.5444576 C13.8973,23.3090339 13.4168,22.2854746 13.5113,22.1893729 C13.5628,22.1364915 14.8403,22.6124237 15.4228,22.277339 C15.9733,21.9610678 16.4978,21.6646271 16.4978,21.6646271 C16.4978,21.6646271 17.9318,21.0127627 17.9318,15.8085254 C17.9318,15.5614068 17.7148,15.4307288 17.5453,15.5603898 C16.4978,16.3612373 15.1993,16.7593729 13.8283,16.7593729 C11.6793,16.7593729 10.2923,16.167 9.7093,15.8537797 C9.5593,15.7729322 9.3943,15.9122542 9.3943,16.1156441 L9.3943,18.3722542 L13.2858,23.6192034" id="Stroke-3"></path>
                <path d="M16.6278,1.28344068 C16.6683,1.35920339 18.8608,3.37937288 18.6578,7.1929322 L18.2248,10.9841186" id="Stroke-5"></path>
                <path d="M16.7406,1.4899322 C15.9751,0.464847458 14.8161,-0.374135593 12.8471,0.171966102 C10.8461,0.727220339 9.5031,2.79874576 9.0971,6.73840678 L9.3946,10.7614576" id="Stroke-7"></path>
                <path d="M12.41175,8.27191525 L12.41175,9.78208475 C12.41175,10.2224237 10.85575,10.9902203 10.85575,10.9902203 L9.98675,11.0507288 C8.25725,11.1712373 6.73625,12.406322 6.40325,14.1361525 C6.36575,14.3319153 6.34425,14.5307288 6.34425,14.7295424 L6.34425,19.3917458 C6.34425,19.7761525 6.49525,20.136661 6.74825,20.357339 L12.54175,25.2610678" id="Stroke-9"></path>
                <path d="M18.38125,22.9869153 L24.28775,22.9869153 C25.30025,22.9869153 26.28775,23.7064068 26.57425,24.852 L27.57475,27.9003051 C27.57475,28.9304746 26.75375,29.7653898 25.74075,29.7653898 L1.83425,29.7653898 C0.82125,29.7653898 0.00025,28.9304746 0.00025,27.9003051 L1.00075,24.852 C1.42475,23.7714915 2.07125,22.9869153 3.08425,22.9869153 L9.68325,22.9869153" id="Stroke-13"></path>
                <path d="M0.02345,28.1841356 L27.57495,28.1841356" id="Stroke-15"></path>
                <path d="M9.6,4.59635593 C9.6,4.59635593 14.5185,4.18347458 16.628,0.592118644" id="Stroke-17"></path>
            </g>
        </g>
    </g>
</svg>