<?xml version="1.0" encoding="UTF-8"?>
<svg width="23px" height="27px" viewBox="0 0 23 27" version="1.1" xmlns="http://www.w3.org/2000/svg" xmlns:xlink="http://www.w3.org/1999/xlink">
    <!-- Generator: Sketch 52.2 (67145) - http://www.bohemiancoding.com/sketch -->
    <title>group_19_slice</title>
    <desc>Created with Sketch.</desc>
    <g id="关于我们" stroke="none" stroke-width="1" fill="none" fill-rule="evenodd">
        <g id="Artboard" transform="translate(-32.000000, -1054.000000)">
            <g id="Group-19" transform="translate(32.000000, 1054.000000)">
                <path d="M7.81660476,22.2557143 L15.2817476,26.3316122 C16.1979143,26.8319388 17.3320333,26.6660816 18.0691286,25.9244082 L22.1434143,21.8248163 C22.8383429,21.1255714 23.0617714,20.0819388 22.7151286,19.1567755 L21.4665571,15.8269592 C21.1987714,15.1122857 20.782581,14.4637347 20.2459143,13.9237347 L16.3873905,10.0417959 C15.6634381,9.31334694 14.4898905,9.31334694 13.7659381,10.0417959 C13.0419857,10.7696939 13.0419857,11.9510816 13.7659381,12.6795306 L16.8550571,15.7872857" id="Stroke-1" stroke="#231F20" stroke-width="1.12"></path>
                <path d="M4.63318571,11.613251 L1.36061429,11.613251 C0.609280952,11.613251 -0.000219047619,10.9999653 -0.000219047619,10.2439653 C-0.000219047619,9.48796531 0.609280952,8.87467959 1.36061429,8.87467959 L4.63318571,8.87467959" id="Stroke-3" stroke="#231F20" stroke-width="1.12"></path>
                <path d="M5.29197143,14.5834714 L3.42185238,14.5834714 C2.66997143,14.5834714 2.06101905,13.9701857 2.06101905,13.2141857 C2.06101905,12.4581857 2.66997143,11.8449 3.42185238,11.8449 L5.29197143,11.8449 C6.04330476,11.8449 6.65280476,12.4581857 6.65280476,13.2141857 C6.65280476,13.9701857 6.04330476,14.5834714 5.29197143,14.5834714 Z" id="Stroke-5" stroke="#231F20" stroke-width="1.12"></path>
                <path d="M5.29197143,17.5537469 L3.42185238,17.5537469 C2.66997143,17.5537469 2.06101905,16.9404612 2.06101905,16.1844612 L2.06101905,15.9524816 C2.06101905,15.1964816 2.66997143,14.5837469 3.42185238,14.5837469 L5.29197143,14.5837469 C6.04330476,14.5837469 6.65280476,15.1964816 6.65280476,15.9524816 L6.65280476,16.1844612 C6.65280476,16.9404612 6.04330476,17.5537469 5.29197143,17.5537469 Z" id="Stroke-7" stroke="#231F20" stroke-width="1.12"></path>
                <path d="M5.29197143,20.5240224 L3.9744,20.5240224 C3.22306667,20.5240224 2.61356667,19.9107367 2.61356667,19.1547367 L2.61356667,18.9227571 C2.61356667,18.1667571 3.22306667,17.5540224 3.9744,17.5540224 L5.29197143,17.5540224 C6.04330476,17.5540224 6.65280476,18.1667571 6.65280476,18.9227571 L6.65280476,19.1547367 C6.65280476,19.9107367 6.04330476,20.5240224 5.29197143,20.5240224 Z" id="Stroke-9" stroke="#231F20" stroke-width="1.12"></path>
                <path d="M4.63318571,11.8450102 L4.63318571,1.99827551 C4.63318571,0.894581633 5.52251905,-0.000275510204 6.6194,-0.000275510204 L15.9705429,-0.000275510204 C17.0674238,-0.000275510204 17.9567571,0.894581633 17.9567571,1.99827551 L17.9567571,11.3821531" id="Stroke-11" stroke="#231F20" stroke-width="1.12"></path>
                <path d="M17.9567571,17.9601245 L17.9567571,20.2573286 C17.9567571,21.3610224 17.0674238,22.2558796 15.9705429,22.2558796 L6.6194,22.2558796 C5.52251905,22.2558796 4.63318571,21.3610224 4.63318571,20.2573286" id="Stroke-13" stroke="#231F20" stroke-width="1.12"></path>
                <path d="M12.2806857,19.1547918 C12.2806857,19.7025061 11.8393048,20.1466286 11.2949714,20.1466286 C10.7506381,20.1466286 10.3092571,19.7025061 10.3092571,19.1547918 C10.3092571,18.6070776 10.7506381,18.1629551 11.2949714,18.1629551 C11.8393048,18.1629551 12.2806857,18.6070776 12.2806857,19.1547918" id="Fill-15" fill="#231F20"></path>
                <polygon id="Fill-17" fill="#231F20" points="10.7315262 24.0152878 16.5729786 22.7066143 9.33947857 22.7066143"></polygon>
            </g>
        </g>
    </g>
</svg>