<?xml version="1.0" encoding="UTF-8"?>
<svg width="35px" height="30px" viewBox="0 0 35 30" version="1.1" xmlns="http://www.w3.org/2000/svg" xmlns:xlink="http://www.w3.org/1999/xlink">
    <!-- Generator: Sketch 52.2 (67145) - http://www.bohemiancoding.com/sketch -->
    <title>fill_1_slice</title>
    <desc>Created with Sketch.</desc>
    <g id="关于我们" stroke="none" stroke-width="1" fill="none" fill-rule="evenodd">
        <g id="Artboard" transform="translate(-13.000000, -15.000000)" fill="#1E5ADC">
            <path d="M27.7765227,36.8054 C27.833,36.8626308 27.833,36.8626308 27.833,36.9198615 L27.8910682,36.9770923 C27.8910682,36.9770923 27.8910682,37.0343231 27.9483409,37.0343231 L27.9483409,37.0915538 C28.0048182,37.2060154 28.0048182,37.2632462 28.0620909,37.3196821 C29.2656136,39.2082974 31.3274318,40.5826308 33.7320909,41.2694 C33.9039091,41.3258359 34.133,41.3838615 34.3056136,41.3838615 C35.1074318,41.5555538 35.90925,41.6700154 36.7102727,41.6700154 C37.913,41.6700154 39.0011818,41.4410923 40.0893636,41.1549385 L43.7556136,42.9290923 L42.83925,39.8378359 C45.1293636,38.2934 46.6184545,35.9469385 46.6184545,33.2570923 C46.6184545,29.3073744 43.3547045,25.9887846 39.0011818,25.1303231 C38.9447045,25.0730923 38.9447045,25.0730923 38.8874318,25.0730923 L38.7720909,25.0730923 C38.7156136,25.0730923 38.7156136,25.0730923 38.6583409,25.0158615 L38.4865227,25.0158615 L38.42925,25.0158615 C38.3711818,25.0158615 38.3147045,25.0158615 38.2574318,24.9586308 L38.2001591,24.9586308 L37.9702727,24.9586308 C37.5701591,24.9006051 37.1111818,24.9006051 36.7102727,24.9006051 C31.2120909,24.9006051 26.8601591,28.6214 26.8601591,33.2570923 C26.8601591,34.2872462 27.08925,35.3174 27.4901591,36.2330923 L27.4901591,36.2903231 C27.5474318,36.2903231 27.5474318,36.3475538 27.5474318,36.4047846 L27.6039091,36.4047846 C27.6039091,36.4612205 27.6039091,36.5192462 27.6611818,36.5192462 L27.6611818,36.5764769 C27.6611818,36.6337077 27.71925,36.6337077 27.71925,36.6901436 L27.7765227,36.7481692 L27.7765227,36.8054 Z M26.1156136,36.2330923 C25.7711818,35.3174 25.6001591,34.2872462 25.6001591,33.2570923 C25.6001591,30.5672462 26.8601591,28.1063231 28.8639091,26.3894 C30.9265227,24.6724769 33.6756136,23.6415282 36.7102727,23.6415282 L37.3983409,23.6415282 C36.0802727,19.4072462 31.49925,16.2595538 26.0583409,16.2595538 C19.52925,16.2595538 14.2601591,20.7235538 14.2601591,26.2177077 C14.2601591,29.4226308 15.9783409,32.2269385 18.7274318,34.0583231 L17.6957273,37.7210923 L22.04925,35.6607846 C23.30925,36.0041692 24.683,36.2330923 26.0583409,36.2330923 L26.1156136,36.2330923 Z M40.0893636,29.5362974 C39.4020909,29.5362974 38.8874318,30.1094 38.8874318,30.7953744 C38.8874318,31.4829385 39.4020909,31.9980154 40.0893636,31.9980154 C40.7774318,31.9980154 41.3493636,31.4829385 41.3493636,30.7953744 C41.3493636,30.1094 40.7774318,29.5362974 40.0893636,29.5362974 Z M33.7320909,29.5362974 C33.0456136,29.5362974 32.5301591,30.1094 32.5301591,30.7953744 C32.5301591,31.4829385 33.0456136,31.9980154 33.7320909,31.9980154 C34.4201591,31.9980154 34.9920909,31.4829385 34.9920909,30.7953744 C34.9920909,30.1094 34.4201591,29.5362974 33.7320909,29.5362974 Z M29.8956136,21.2386308 C29.0365227,21.2386308 28.2911818,21.9826308 28.2911818,22.8410923 C28.2911818,23.7567846 29.0365227,24.4435538 29.8956136,24.4435538 C30.8111818,24.4435538 31.49925,23.7567846 31.49925,22.8410923 C31.49925,21.9826308 30.8111818,21.2386308 29.8956136,21.2386308 Z M22.163,21.2386308 C21.2474318,21.2386308 20.5601591,21.9826308 20.5601591,22.8410923 C20.5601591,23.7567846 21.2474318,24.4435538 22.163,24.4435538 C23.0220909,24.4435538 23.7674318,23.7567846 23.7674318,22.8410923 C23.7674318,21.9826308 23.0220909,21.2386308 22.163,21.2386308 Z M43.1820909,44.0164769 L39.9756136,42.4712462 C39.5174318,42.5849128 39.05925,42.7001692 38.6002727,42.7574 C37.9702727,42.8718615 37.3402727,42.9290923 36.7102727,42.9290923 C35.7374318,42.9290923 34.763,42.8146308 33.8474318,42.5849128 C33.7901591,42.5849128 33.7320909,42.5284769 33.6756136,42.5284769 C31.8420909,42.0706308 30.1811818,41.2694 28.8639091,40.1247846 C28.0048182,39.3807846 27.2610682,38.4650923 26.6883409,37.4921692 L26.0583409,37.4921692 C25.313,37.4921692 24.56925,37.4349385 23.8239091,37.3196821 C23.2519773,37.2632462 22.7365227,37.1487846 22.163,36.9770923 L18.2119773,38.8657077 L15.6919773,40.0675538 L16.493,37.3777077 L17.2948182,34.5726051 C16.0928864,33.6004769 15.0619773,32.5130923 14.3174318,31.1967846 C13.4583409,29.7087846 13.0001591,27.9918615 13.0001591,26.2177077 C13.0001591,23.0700154 14.48925,20.2649128 16.8939091,18.2054 C19.2420909,16.2023231 22.5074318,14.9996821 26.0583409,14.9996821 C29.5511818,14.9996821 32.8165227,16.2023231 35.1639091,18.2054 C36.9401591,19.6934 38.2001591,21.6392462 38.7720909,23.8140154 C41.0065227,24.1574 42.9537955,25.0730923 44.4993636,26.3894 C46.6184545,28.1063231 47.8784545,30.5672462 47.8784545,33.2570923 C47.8784545,34.8015282 47.4783409,36.2330923 46.7337955,37.5494 C46.1037955,38.578759 45.3011818,39.5524769 44.3283409,40.3537077 L44.9583409,42.5849128 L45.7593636,45.2755538 L43.1820909,44.0164769 Z" id="Fill-1"></path>
        </g>
    </g>
</svg>