<?xml version="1.0" encoding="UTF-8"?>
<svg width="31px" height="22px" viewBox="0 0 31 22" version="1.1" xmlns="http://www.w3.org/2000/svg" xmlns:xlink="http://www.w3.org/1999/xlink">
    <!-- Generator: Sketch 52.2 (67145) - http://www.bohemiancoding.com/sketch -->
    <title>分组_slice</title>
    <desc>Created with Sketch.</desc>
    <defs>
        <polygon id="path-1" points="0 -6.875e-05 30.5629 -6.875e-05 30.5629 21.9344125 0 21.9344125"></polygon>
    </defs>
    <g id="关于我们" stroke="none" stroke-width="1" fill="none" fill-rule="evenodd">
        <g id="Artboard" transform="translate(-15.000000, -19.000000)">
            <g id="分组" transform="translate(15.000000, 19.000000)">
                <mask id="mask-2" fill="white">
                    <use xlink:href="#path-1"></use>
                </mask>
                <g id="Clip-2"></g>
                <path d="M15.2365,7.16743125 C16.9731889,7.16743125 18.4109,7.76143125 19.4525,8.99893125 C20.3949,10.0879312 20.8413,11.4244312 20.8413,13.0579312 C20.8413,14.5924312 20.3949,15.9289312 19.4029,17.0179312 C18.3613,18.2554312 16.9229,18.8494312 15.1373,18.8494312 C13.3021,18.8494312 11.8637,18.2554312 10.7731889,17.0179312 C9.8301,15.9289312 9.3837,14.5924312 9.3837,13.0579312 C9.3837,11.4244312 9.88038889,10.0879312 10.8717,8.99893125 C11.9133,7.76143125 13.4013,7.16743125 15.2365,7.16743125 Z M15.1869,6.52393125 C17.2701,6.52393125 18.9069,7.21693125 20.1469,8.55343125 C21.2381,9.79093125 21.7837,11.2759312 21.7837,13.0579312 C21.7837,14.7904312 21.2381,16.2754313 20.1469,17.5129312 C18.9069,18.8494312 17.2701,19.5424312 15.1869,19.5424312 C13.1037,19.5424312 11.4173,18.8494312 10.2275889,17.5129312 C9.13638889,16.2754313 8.59078889,14.7904312 8.59078889,13.0579312 C8.59078889,11.2759312 9.13638889,9.79093125 10.2275889,8.55343125 C11.4173,7.21693125 13.1037,6.52393125 15.1869,6.52393125 Z M18.4605,2.76193125 L18.4605,4.24693125 C18.4605,4.59343125 18.3613,4.79143125 18.1133,4.89043125 C18.0141,4.98943125 17.7171889,5.03893125 17.3693,5.03893125 L17.1213,5.08843125 L13.3517,5.08843125 C12.9549,5.08843125 12.7069,5.03893125 12.5085,4.93993125 C12.2109,4.74193125 12.0627889,4.44493125 12.0627889,4.04893125 L12.0627889,2.66293125 C13.0541,2.91043125 14.1453,3.00943125 15.3363889,3.00943125 C16.5261,3.05893125 17.5677,2.95993125 18.4605,2.76193125 Z M19.3037,2.01943125 L19.3037,4.34593125 C19.3037,4.89043125 19.1053,5.28643125 18.7581,5.48443125 C18.4109,5.68243125 17.8653,5.78143125 17.0221,5.78143125 L13.2029,5.78143125 C12.5581,5.78143125 12.1117,5.68243125 11.8141,5.48443125 C11.4173,5.28643125 11.2189,4.89043125 11.2189,4.44493125 L11.2189,1.92043125 C12.4093,2.16793125 13.5501,2.26693125 14.5917,2.31643125 C15.9805,2.36593125 17.4685,2.26693125 19.0557,2.01943125 L19.3037,2.01943125 Z M24.4125,20.1364312 L4.6221,20.1364312 C3.9773,20.1364312 3.5805,20.1364312 3.4317,20.0374313 C3.2333,19.9879312 3.1341,19.7899312 3.1341,19.4434312 C3.1837,19.1464313 3.2333,18.8989313 3.2829,18.6514312 C3.3325,18.5524313 3.4317,18.4039313 3.5309,18.2059313 C3.6301,17.9584313 3.7293,17.7604312 3.8285,17.5624312 C3.9277,17.2654313 4.0269,16.8199312 4.0765,16.3249313 C4.2253,15.5329313 4.4733,14.7409313 4.8205,14.0479312 C5.1677,13.4539313 5.5149,12.9094313 5.9117,12.4639312 L6.6061,11.7709313 C7.69798889,10.6324312 8.4909,9.79093125 8.9373,9.09793125 C9.68198889,7.95943125 10.0781,6.72193125 10.1773,5.33593125 C10.2765,3.99943125 10.2765,3.10843125 10.1773,2.61343125 C10.0781,2.06893125 9.7309,1.77193125 9.2845,1.87093125 C8.59078889,1.92043125 7.9949,2.11843125 7.4493,2.51443125 C6.9037,2.91043125 6.5565,3.35593125 6.4573,3.90043125 C6.4573,4.19743125 6.5069,4.49443125 6.6061,4.74193125 C6.6557,4.89043125 6.7549,5.13793125 6.9037,5.43493125 L7.0525,5.83093125 C7.2509,6.32593125 6.8045,6.82093125 5.8125,7.26643125 C4.9693,7.66243125 3.6797,8.00893125 1.9437,8.30593125 C1.4973,8.35543125 1.1997,8.20693125 1.0013,7.90993125 C0.8525,7.56343125 0.8029,7.06843125 0.8525,6.32593125 C1.2493,4.04893125 2.9853,2.31643125 6.2093,1.12843125 C8.78918889,0.18793125 11.8637,-0.30706875 15.3853,-0.30706875 C18.7085,-0.30706875 21.6349,0.18793125 24.2141,1.07893125 C27.2893,2.11843125 29.0749,3.60343125 29.5213,5.58343125 C29.6701,6.57343125 29.6701,7.26643125 29.5213,7.61293125 C29.3731889,7.95943125 29.0259889,8.10793125 28.5293,8.10793125 C27.6365,7.95943125 26.7933,7.81093125 25.9997,7.61293125 C25.0083889,7.36543125 24.3133,7.06843125 23.9171889,6.77143125 C23.7187889,6.57343125 23.6189,6.32593125 23.6189,6.02893125 C23.6685,5.83093125 23.7677,5.58343125 23.9171889,5.18743125 C24.2141,4.59343125 24.3133,4.09843125 24.3133,3.85093125 C24.3133,3.35593125 23.9661,2.91043125 23.3715889,2.51443125 C22.1805,2.06893125 21.3869,1.92043125 20.9405,2.06893125 C20.5437,2.26693125 20.3453,2.71311875 20.3453,3.50443125 C20.2957,5.08843125 20.4941,6.47443125 20.9405,7.61293125 C21.4861,9.04843125 22.5277,10.4344312 24.0157,11.8699312 C24.7101,12.6124312 25.2557,13.3549312 25.6029,14.1469313 C25.8013,14.5924313 25.9501,15.1864313 26.0995889,15.9784312 C26.1485,16.4239312 26.1981,16.7704312 26.2979889,16.9684312 C26.3965,17.3644312 26.5453,17.7109312 26.7437,18.0574312 C27.1907889,18.8494312 27.1907889,19.4434312 26.7437,19.7899312 C26.3469,20.0869313 25.5539889,20.2354313 24.4125,20.1364312 Z M3.2333,20.9284312 L25.3549,20.9284312 C26.1981,20.9779313 26.8925,20.7304312 27.4877,20.2354312 C28.0333,19.6909313 28.1325,19.0969312 27.7853,18.4534312 C27.5373,18.1069312 27.3389,17.7604312 27.2397,17.3644312 C27.1907889,17.1169312 27.0909,16.7209312 26.9917,16.2259312 C26.8925,15.3844312 26.6941,14.6914312 26.4957,14.1964312 C26.1485,13.3054312 25.5539889,12.3649312 24.7101,11.4739312 L24.6109,11.3254312 C23.5197,10.2859313 22.7757,9.34543125 22.3293,8.60293125 C21.5363889,7.21693125 21.1389,5.73193125 21.1891889,4.04893125 L21.2381,2.86093125 C21.7837,2.81143125 22.2301,2.86093125 22.6275889,3.00943125 C23.0237,3.20743125 23.3213,3.45493125 23.4205,3.85093125 C23.3715889,4.09843125 23.3213,4.29643125 23.2221,4.54393125 C23.1731889,4.64293125 23.1229,4.84093125 23.0237,5.03893125 C22.9245,5.28643125 22.8749,5.43493125 22.8259889,5.53393125 C22.7261,5.78143125 22.7261,5.97943125 22.7261,6.22693125 C22.8259889,6.91993125 23.5197,7.51393125 24.8589,8.00893125 C26.0493,8.45443125 27.3389,8.70193125 28.6781,8.80093125 C29.3229,8.80093125 29.8189,8.65243125 30.1171889,8.40493125 C30.4141,8.05843125 30.5629,7.36543125 30.5629,6.42493125 C30.3645,3.99943125 29.1245,2.16793125 26.7933,0.97993125 C24.2637,-0.35656875 20.3949,-1.00006875 15.2365,-1.00006875 C10.0285,-1.00006875 6.1101,-0.20806875 3.4813,1.37593125 C1.3485,2.71311875 0.2077,4.44493125 0.0093,6.62293125 C-0.0403,7.56343125 0.1085,8.20693125 0.4557,8.60293125 C0.7533,8.94943125 1.1997,9.09793125 1.7453,9.04843125 C3.5805,8.85043125 5.0685,8.50393125 6.2093,8.00893125 C7.4493,7.46443125 7.9949,6.87043125 7.8957,6.22693125 C7.9453,5.97943125 7.8957,5.73193125 7.7965,5.53393125 C7.7469,5.38543125 7.69798889,5.23693125 7.5981,5.03893125 C7.4493,4.89043125 7.3997,4.79143125 7.3501,4.64293125 C7.3005,4.49443125 7.3005,4.34593125 7.3005,4.14793125 C7.3997,3.65293125 7.6477,3.25693125 7.9949,2.95993125 C8.3917,2.61343125 8.78918889,2.46493125 9.2845,2.56393125 L9.33478889,4.44493125 C9.33478889,6.02893125 8.9373,7.46443125 8.1437,8.75143125 C7.69798889,9.49393125 6.9037,10.4344312 5.7133,11.5729312 L5.1677,12.1174312 C4.5229,12.8599312 4.0269,13.7014312 3.7293,14.5429312 C3.5309,14.9884312 3.3325,15.6319313 3.2333,16.4734312 C3.1341,16.8694312 3.0845,17.1664312 3.0349,17.3149313 C2.9853,17.5624312 2.8861,17.8099312 2.7373,17.9584313 C2.3901,18.4039312 2.2413,18.9484312 2.3405,19.6414313 C2.4397,20.3839312 2.7373,20.7799312 3.2333,20.9284312 Z" id="Fill-1" fill="#1E5ADC" mask="url(#mask-2)"></path>
            </g>
        </g>
    </g>
</svg>