<?xml version="1.0" encoding="UTF-8"?>
<svg width="16px" height="17px" viewBox="0 0 16 17" version="1.1" xmlns="http://www.w3.org/2000/svg" xmlns:xlink="http://www.w3.org/1999/xlink">
    <!-- Generator: Sketch 52.2 (67145) - http://www.bohemiancoding.com/sketch -->
    <title>fill_1_slice</title>
    <desc>Created with Sketch.</desc>
    <g id="优惠活动" stroke="none" stroke-width="1" fill="none" fill-rule="evenodd">
        <g id="Artboard" transform="translate(-25.000000, -11.000000)" fill="#FFFFFF">
            <path d="M32.4090485,13.7626569 C32.4090485,13.7626569 28.4349173,10.9337839 27.6266679,11.0011856 C26.8184185,11.0683017 27.0880253,13.7626569 27.0880253,13.7626569 L32.4090485,13.7626569 Z M33.4195031,13.7626569 C33.4195031,13.7626569 37.3933486,10.9337839 38.201598,11.0011856 C39.0098475,11.0683017 38.7405262,13.7626569 38.7405262,13.7626569 L33.4195031,13.7626569 Z M39.5487756,14.4361029 L26.2123742,14.4361029 C25.5386426,14.4361029 25,14.9750311 25,15.6484771 C25,16.3222087 25.5386426,16.8608513 26.2123742,16.8608513 L26.4142937,16.8608513 L26.4142937,25.1458365 C26.4142937,26.4930141 27.4918645,27.5705848 28.8390421,27.5705848 L32.4090485,27.5705848 L32.4090485,14.4361029 L33.5543065,14.4361029 L33.5543065,27.5705848 L37.1240273,27.5705848 C38.4712049,27.5705848 39.5487756,26.4930141 39.5487756,25.1458365 L39.5487756,16.8608513 L39.7509808,16.8608513 C40.4244268,16.8608513 40.963355,16.3222087 40.963355,15.6484771 C40.963355,14.9750311 40.2222216,14.4361029 39.5487756,14.4361029 Z" id="Fill-1"></path>
        </g>
    </g>
</svg>