<?xml version="1.0" encoding="UTF-8"?>
<svg width="34px" height="22px" viewBox="0 0 34 22" version="1.1" xmlns="http://www.w3.org/2000/svg" xmlns:xlink="http://www.w3.org/1999/xlink">
    <!-- Generator: Sketch 52.2 (67145) - http://www.bohemiancoding.com/sketch -->
    <title>group_21_slice</title>
    <desc>Created with Sketch.</desc>
    <g id="关于我们" stroke="none" stroke-width="1" fill="none" fill-rule="evenodd">
        <g id="Artboard" transform="translate(-26.000000, -15.000000)">
            <g id="Group-21" transform="translate(26.000000, 15.000000)">
                <path d="M16.8497767,13.0832216 C16.8497767,13.0832216 20.1041433,12.8543027 21.0340433,8.67787027 C21.5570767,8.5863027 22.1016433,8.25868108 22.2761767,7.28295135 C22.4501433,6.30722162 22.39971,5.6496 21.57691,5.51819459 C21.6964767,4.92954595 22.39971,0.77332973 17.74341,0.064572973 C15.5855433,-0.240454054 15.4767433,0.632410811 15.4767433,0.632410811 C15.4767433,0.632410811 12.3606433,0.545005405 12.1424767,3.06014054 C12.0410433,4.01268108 12.0988433,5.04192432 12.2223767,5.49143784 C11.6704433,5.56041081 11.2091767,6.18116757 11.4052433,7.16462703 C11.60131,8.14808649 12.28811,8.5863027 12.74541,8.63208649 C12.9125767,9.32538378 13.91501,12.5801946 16.8497767,13.0832216 Z" id="Stroke-1" stroke="#231F20" stroke-width="1.152"></path>
                <g id="Group-5" transform="translate(7.366667, 13.582146)" stroke="#231F20" stroke-width="1.152">
                    <path d="M6.11983,0.156556757 C5.09586333,0.81952973 3.45026333,1.23098919 1.90326333,1.80298919 C0.355696667,2.37439459 0.45373,3.71223243 0.45373,3.71223243 L0.45373,8.3245027" id="Stroke-3"></path>
                </g>
                <g id="Group-8" transform="translate(18.133333, 12.392957)" stroke="#231F20" stroke-width="1.152">
                    <path d="M0.503313333,0.363951351 C1.52728,1.02692432 4.77031333,2.42065405 6.31788,2.99205946 C7.86488,3.56405946 7.76684667,4.9013027 7.76684667,4.9013027 L7.76684667,9.51357297" id="Stroke-6"></path>
                </g>
                <path d="M15.0942433,13.1995243 C16.8582767,14.3774162 23.0054767,15.4173622 23.0054767,15.4173622 L18.09701,12.8790378 C18.09701,12.8790378 13.33021,12.0216324 15.0942433,13.1995243" id="Fill-9" fill="#231F20"></path>
                <path d="M26.4396467,14.3120703 C26.4396467,14.3120703 28.96868,14.1342865 29.6917467,10.8878 C30.0980467,10.8170432 30.5213467,10.5619622 30.65678,9.80385405 C30.7922133,9.04574595 30.7531133,8.53498919 30.1133467,8.43271892 C30.2068467,7.97488108 30.7531133,4.74504324 27.1338133,4.19385405 C26.0985133,4.0130973 25.3726133,4.63504324 25.3726133,4.63504324" id="Stroke-11" stroke="#231F20" stroke-width="1.152"></path>
                <path d="M27.8283767,14.0584757 C28.6245433,14.5739892 31.14451,15.6567459 32.3475433,16.1009081 C33.55001,16.5456649 33.47351,17.5850162 33.47351,17.5850162 L33.47351,18.5988" id="Stroke-13" stroke="#231F20" stroke-width="1.152"></path>
                <path d="M9.15025,4.64247568 C8.76548333,4.43912432 8.29288333,4.28215135 7.71318333,4.19415135 C6.03641667,3.95690811 5.95141667,4.63534054 5.95141667,4.63534054 C5.95141667,4.63534054 3.52948333,4.56696216 3.36005,6.52198919 C3.28128333,7.26285405 3.32605,8.06258378 3.42238333,8.41161081 C2.99341667,8.46512432 2.63471667,8.94793514 2.78715,9.71198919 C2.93958333,10.4766378 3.47281667,10.8167459 3.82868333,10.8524216 C3.95845,11.3917189 4.73761667,13.9211243 7.01845,14.3123676" id="Stroke-15" stroke="#231F20" stroke-width="1.152"></path>
                <path d="M0.000963333333,18.5990378 L0.000963333333,17.5852541 C0.000963333333,17.5852541 -0.0755366667,16.5453081 1.12749667,16.1011459 C2.32996333,15.6569838 3.60836333,15.3370919 4.40453,14.8215784 C4.40453,14.8215784 5.22619667,14.3007135 5.74583,13.8916324" id="Stroke-17" stroke="#231F20" stroke-width="1.152"></path>
                <polygon id="Fill-19" fill="#231F20" points="26.4683767 14.9199838 31.8896767 16.4439297 27.8283767 13.6380378"></polygon>
            </g>
        </g>
    </g>
</svg>