<?xml version="1.0" encoding="UTF-8"?>
<svg width="22px" height="24px" viewBox="0 0 22 24" version="1.1" xmlns="http://www.w3.org/2000/svg" xmlns:xlink="http://www.w3.org/1999/xlink">
    <!-- Generator: Sketch 52.2 (67145) - http://www.bohemiancoding.com/sketch -->
    <title>group_31_slice</title>
    <desc>Created with Sketch.</desc>
    <defs>
        <path d="M0.115076923,7.75854545 C0.115076923,11.8396364 3.53635897,15.1478182 7.75697436,15.1478182 C11.9781538,15.1478182 15.4,11.8396364 15.4,7.75854545 C15.4,3.67690909 11.9781538,0.368181818 7.75697436,0.368181818 C3.53635897,0.368181818 0.115076923,3.67690909 0.115076923,7.75854545 Z" id="path-1"></path>
        <path d="M0.115076923,7.75854545 C0.115076923,11.8396364 3.53635897,15.1478182 7.75697436,15.1478182 C11.9781538,15.1478182 15.4,11.8396364 15.4,7.75854545 C15.4,3.67690909 11.9781538,0.368181818 7.75697436,0.368181818 C3.53635897,0.368181818 0.115076923,3.67690909 0.115076923,7.75854545 Z" id="path-3"></path>
        <path d="M0.115076923,7.75854545 C0.115076923,11.8396364 3.53635897,15.1478182 7.75697436,15.1478182 C11.9781538,15.1478182 15.4,11.8396364 15.4,7.75854545 C15.4,3.67690909 11.9781538,0.368181818 7.75697436,0.368181818 C3.53635897,0.368181818 0.115076923,3.67690909 0.115076923,7.75854545 Z" id="path-5"></path>
        <path d="M0.115076923,7.75854545 C0.115076923,11.8396364 3.53635897,15.1478182 7.75697436,15.1478182 C11.9781538,15.1478182 15.4,11.8396364 15.4,7.75854545 C15.4,3.67690909 11.9781538,0.368181818 7.75697436,0.368181818 C3.53635897,0.368181818 0.115076923,3.67690909 0.115076923,7.75854545 Z" id="path-7"></path>
        <path d="M0.115076923,7.75854545 C0.115076923,11.8396364 3.53635897,15.1478182 7.75697436,15.1478182 C11.9781538,15.1478182 15.4,11.8396364 15.4,7.75854545 C15.4,3.67690909 11.9781538,0.368181818 7.75697436,0.368181818 C3.53635897,0.368181818 0.115076923,3.67690909 0.115076923,7.75854545 Z" id="path-9"></path>
    </defs>
    <g id="关于我们" stroke="none" stroke-width="1" fill="none" fill-rule="evenodd">
        <g id="Artboard" transform="translate(-32.000000, -794.000000)">
            <g id="Group-31" transform="translate(32.000000, 794.000000)">
                <g id="Group-5" transform="translate(3.948718, 8.470691)">
                    <path d="M15.3997179,7.75827273 C15.3997179,11.8393636 11.9778718,15.1480909 7.75725641,15.1480909 C3.53664103,15.1480909 0.114794872,11.8393636 0.114794872,7.75827273 C0.114794872,3.67718182 3.53664103,0.368454545 7.75725641,0.368454545 C11.9778718,0.368454545 15.3997179,3.67718182 15.3997179,7.75827273 Z" id="Stroke-1" stroke="#231F20" stroke-width="1.1"></path>
                    <polygon id="Fill-3" fill="#231F20" points="6.28556923 9.17110909 5.3762359 6.46456364 7.75731282 4.79165455 10.1383897 6.46456364 9.22905641 9.17110909"></polygon>
                </g>
                <g id="Group-21" transform="translate(3.948718, 8.470691)">
                    <g id="Group-8">
                        <mask id="mask-2" fill="white">
                            <use xlink:href="#path-1"></use>
                        </mask>
                        <g id="Clip-7"></g>
                        <polygon id="Fill-6" fill="#231F20" mask="url(#mask-2)" points="16.7414359 9.59001818 14.6604615 7.57783636 12.0379487 8.86947273 12.4982564 11.6807455 15.4050769 12.1258364"></polygon>
                    </g>
                    <g id="Group-11">
                        <mask id="mask-4" fill="white">
                            <use xlink:href="#path-3"></use>
                        </mask>
                        <g id="Clip-10"></g>
                        <polygon id="Fill-9" fill="#231F20" mask="url(#mask-4)" points="-1.3942359 9.4866 0.686738462 7.47441818 3.30925128 8.76605455 2.84894359 11.5773273 -0.0578769231 12.0224182"></polygon>
                    </g>
                    <g id="Group-14">
                        <mask id="mask-6" fill="white">
                            <use xlink:href="#path-5"></use>
                        </mask>
                        <g id="Clip-13"></g>
                        <polygon id="Fill-12" fill="#231F20" mask="url(#mask-6)" points="9.22888718 15.8181818 10.1382205 13.1116364 7.75714359 11.4387273 5.37606667 13.1116364 6.2854 15.8181818"></polygon>
                    </g>
                    <g id="Group-17">
                        <mask id="mask-8" fill="white">
                            <use xlink:href="#path-7"></use>
                        </mask>
                        <g id="Clip-16"></g>
                        <polygon id="Fill-15" fill="#231F20" mask="url(#mask-8)" points="14.7107795 1.44049091 13.9170872 4.1814 10.9764205 4.29867273 9.95257436 1.63030909 12.2603179 -0.135872727"></polygon>
                    </g>
                    <g id="Group-20">
                        <mask id="mask-10" fill="white">
                            <use xlink:href="#path-9"></use>
                        </mask>
                        <g id="Clip-19"></g>
                        <polygon id="Fill-18" fill="#231F20" mask="url(#mask-10)" points="0.50594359 1.44049091 1.2996359 4.1814 4.24030256 4.29867273 5.26414872 1.63030909 2.95640513 -0.135872727"></polygon>
                    </g>
                </g>
                <g id="Group-30" transform="translate(0.000000, 0.288873)" stroke="#231F20" stroke-width="1.1">
                    <path d="M5.45966667,20.8766727 L2.24992308,20.8766727 C1.31858974,20.8766727 0.563820513,20.1468545 0.563820513,19.2468545 L0.563820513,1.88667273 C0.563820513,0.986127273 1.31858974,0.256309091 2.24992308,0.256309091 L19.4685897,0.256309091 C20.399359,0.256309091 21.1541282,0.986127273 21.1541282,1.88667273 L21.1541282,9.06976364" id="Stroke-22"></path>
                    <path d="M14.2737692,3.49521818 L3.80289744,3.49521818" id="Stroke-24"></path>
                    <path d="M11.1770718,5.96110909 L3.80255897,5.96110909" id="Stroke-26"></path>
                    <path d="M21.1543538,10.5666 L21.1543538,12.1429636" id="Stroke-28"></path>
                </g>
            </g>
        </g>
    </g>
</svg>