<?xml version="1.0" encoding="UTF-8"?>
<svg width="29px" height="23px" viewBox="0 0 29 23" version="1.1" xmlns="http://www.w3.org/2000/svg" xmlns:xlink="http://www.w3.org/1999/xlink">
    <!-- Generator: Sketch 52.2 (67145) - http://www.bohemiancoding.com/sketch -->
    <title>Group 9</title>
    <desc>Created with Sketch.</desc>
    <g id="关于我们" stroke="none" stroke-width="1" fill="none" fill-rule="evenodd">
        <g id="联系我们-联系我们" transform="translate(-405.000000, -845.000000)" stroke="#1E5ADC" stroke-width="1.2">
            <g id="分组-4-copy-3" transform="translate(389.000000, 826.000000)">
                <g id="分组-3">
                    <g id="分组-2">
                        <g id="Group-9" transform="translate(17.000000, 20.000000)">
                            <path d="M22.50168,-7.10542736e-15 L2.22228,-7.10542736e-15 C0.99528,-7.10542736e-15 -0.00012,0.9948 -0.00012,2.2224 L-0.00012,6.216 L-0.00012,14.1984 L-0.00012,18.192 C-0.00012,19.4196 0.99528,20.4144 2.22228,20.4144 L24.55548,20.4144 C25.78308,20.4144 26.77788,19.4196 26.77788,18.192 L26.77788,2.2224 C26.77788,0.9948 25.78308,-7.10542736e-15 24.55548,-7.10542736e-15 L22.45188,-7.10542736e-15" id="Stroke-1"></path>
                            <path d="M0.49392,2.02758 L12.23772,11.24658 C13.04292,11.75478 14.06952,11.74878 14.86812,11.23098 L26.28432,2.02758" id="Stroke-3"></path>
                            <path d="M16.35168,10.20714 L25.83948,19.35714" id="Stroke-5"></path>
                            <path d="M10.19568,10.20714 L0.70788,19.35714" id="Stroke-7"></path>
                        </g>
                    </g>
                </g>
            </g>
        </g>
    </g>
</svg>