<?xml version="1.0" encoding="UTF-8"?>
<svg width="28px" height="33px" viewBox="0 0 28 33" version="1.1" xmlns="http://www.w3.org/2000/svg" xmlns:xlink="http://www.w3.org/1999/xlink">
    <!-- Generator: Sketch 52.2 (67145) - http://www.bohemiancoding.com/sketch -->
    <title>分组</title>
    <desc>Created with Sketch.</desc>
    <defs>
        <polygon id="path-1" points="0.0209149018 0.0267617778 27.9774428 0.0267617778 27.9774428 32.3336242 0.0209149018 32.3336242"></polygon>
    </defs>
    <g id="关于我们" stroke="none" stroke-width="1" fill="none" fill-rule="evenodd">
        <g id="联系我们-联系我们" transform="translate(-405.000000, -706.000000)">
            <g id="分组-4-copy-2" transform="translate(389.000000, 693.000000)">
                <g id="分组-3">
                    <g id="分组-2">
                        <g id="分组" transform="translate(16.000000, 13.000000)">
                            <g transform="translate(0.000000, 0.037629)">
                                <mask id="mask-2" fill="white">
                                    <use xlink:href="#path-1"></use>
                                </mask>
                                <g id="Clip-2"></g>
                                <path d="M25.1529987,16.353291 L24.0250134,12.8357391 C24.0250134,1.38340127 14.4922015,1.34540765 13.9992193,1.34540765 C13.4868669,1.34540765 3.97409326,1.38340127 3.97409326,12.8357391 L2.84548175,16.353291 C2.84548175,16.353291 -0.984116079,21.0243971 1.59864468,25.0899572 C1.88790487,25.2844666 1.9107401,25.9986817 3.46887941,22.7974054 C3.46887941,22.7974054 4.19860492,25.2939549 6.52303951,27.3510436 C6.40230918,27.3769538 6.28303997,27.4048915 6.16610856,27.4354243 C4.61185166,27.8410679 3.65657082,28.5905599 3.6613299,29.4005903 C3.65657082,30.2107423 4.61185166,30.9602748 6.16610856,31.3659185 C7.72032371,31.7715621 9.63660462,31.7715621 11.1908198,31.3659185 C12.3462324,31.0643619 13.1701794,30.5727156 13.5153379,30.0074338 C13.6572336,30.0127051 13.8008409,30.0161517 13.9465772,30.0171654 L13.9465772,30.0200443 L13.9992193,30.0186251 L14.0519032,30.0200443 L14.0519032,30.0171654 C14.1925465,30.0161922 14.3313112,30.0129889 14.4684896,30.0080421 C14.8127297,30.5737698 15.6365514,31.0659433 16.792465,31.3678242 C18.3475151,31.7740761 20.2652571,31.7740761 21.8203072,31.3678242 C23.3753573,30.961694 24.3301372,30.211391 24.3236247,29.4005903 C24.3281751,28.5905599 23.3728942,27.8410679 21.8186791,27.4354243 C21.7052126,27.4057836 21.5896171,27.3786163 21.4725604,27.3533143 C23.7990823,25.2958201 24.5295593,22.7974054 24.5295593,22.7974054 C26.0883665,25.998033 26.1196763,25.349587 26.3996688,25.0899572 C28.9823878,21.0243971 25.1529987,16.353291 25.1529987,16.353291 Z" id="Stroke-1" stroke="#1E5ADC" stroke-width="0.8645" mask="url(#mask-2)"></path>
                            </g>
                            <g transform="translate(2.811989, 6.144532)">
                                <path d="M6.41723873,2.77806716 C6.41723873,4.30685399 7.32438607,5.54612705 8.44356292,5.54612705 C9.56253103,5.54612705 10.4697201,4.30685399 10.4697201,2.77806716 C10.4697201,1.24928033 9.56253103,0.010007283 8.44356292,0.010007283 C7.32438607,0.010007283 6.41723873,1.24928033 6.41723873,2.77806716 Z M11.6260512,2.77806716 C11.6260512,3.76691485 12.0123715,4.68082956 12.6392341,5.17531423 C13.2662637,5.66963671 14.0385705,5.66963671 14.6655583,5.17531423 C15.2924209,4.68082956 15.6785743,3.76691485 15.6785743,2.77806716 C15.6785743,1.24928033 14.7713852,0.010007283 13.6524171,0.010007283 C12.5332403,0.010007283 11.6260512,1.24928033 11.6260512,2.77806716 Z" id="Stroke-3" stroke="#1E5ADC" stroke-width="0.5"></path>
                                <path d="M8.06377168,2.77806716 C8.06377168,3.55655106 8.52561112,4.18776408 9.09536477,4.18776408 C9.66516017,4.18776408 10.1271248,3.55655106 10.1271248,2.77806716 C10.1271248,1.99942108 9.66516017,1.36837025 9.09536477,1.36837025 C8.52561112,1.36837025 8.06377168,1.99942108 8.06377168,2.77806716" id="Fill-5" fill="#1E5ADC"></path>
                                <path d="M12.3956027,3.64860347 C12.2858516,3.64892785 12.1938845,3.56843978 12.1824878,3.46248747 C12.1689202,3.33861287 12.0663495,2.23764956 12.5501893,1.71652476 C12.8786075,1.36221504 13.486392,1.36221504 13.8148103,1.71652476 C14.29865,2.23764956 14.1946182,3.33861287 14.1817186,3.46248747 C14.1777944,3.51807898 14.1502419,3.56953458 14.1055733,3.60456818 C14.0610717,3.63956123 14.0035036,3.65509117 13.9465616,3.64718428 C13.829004,3.63530367 13.7435493,3.53312234 13.755614,3.41893876 C13.7862975,3.13303376 13.7998233,2.32000284 13.4969956,1.99403628 C13.4169262,1.9072227 13.3026248,1.85767286 13.1824371,1.85767286 C13.0624165,1.85767286 12.9480734,1.9072227 12.8678787,1.99403628 C12.5637151,2.32125984 12.5772826,3.13380418 12.6085924,3.41893876 C12.6146038,3.4737193 12.5978218,3.52870259 12.56192,3.57160253 C12.5260599,3.61438083 12.474211,3.64162919 12.417603,3.64718428 C12.4097964,3.64860347 12.4019481,3.64860347 12.3956027,3.64860347" id="Fill-7" fill="#1E5ADC"></path>
                                <path d="M9.09468848,2.38697622 C9.09468848,2.62552098 9.23625022,2.81893564 9.41108377,2.81893564 C9.58570859,2.81893564 9.72743731,2.62552098 9.72743731,2.38697622 C9.72743731,2.14863421 9.58570859,1.95521954 9.41108377,1.95521954 C9.23625022,1.95521954 9.09468848,2.14863421 9.09468848,2.38697622" id="Fill-9" fill="#FFFFFF"></path>
                                <path d="M16.5984459,6.84367184 C14.9504268,6.09430152 12.3086785,5.84866083 11.2399312,5.84866083 C10.1711839,5.84866083 7.52935211,6.0935311 5.88137474,6.84367184 C5.09487424,7.10326109 4.78273707,7.30535306 4.78273707,7.55022332 C4.78273707,7.79525578 6.77207403,9.23743177 8.89449822,10.1161912 C9.89198457,10.6062562 10.1861291,11.0248752 11.2399312,11.0248752 C12.2936916,11.0248752 12.5872099,10.6068644 13.5853642,10.1163534 C15.7079136,9.236783 17.6970418,7.79525578 17.6970418,7.55022332 C17.6970418,7.30519086 17.3849464,7.10326109 16.5984459,6.84367184 Z" id="Stroke-11" stroke="#1E5ADC" stroke-width="0.5"></path>
                                <path d="M6.01543049,7.62214357 C6.01543049,7.62214357 8.21182915,9.12177628 11.1066853,9.12177628 C14.0015415,9.12177628 16.3611682,7.62214357 16.3611682,7.62214357 C16.3611682,7.62214357 14.6099522,8.74670591 13.2590834,9.52518981 C11.9081728,10.3038764 11.7301247,10.520363 11.0474891,10.520363 C10.3650204,10.520363 9.48868181,9.712725 9.09534807,9.52518981 C8.70218131,9.33846559 7.61840534,8.55998169 6.01543049,7.62214357" id="Fill-13" fill="#1E5ADC"></path>
                                <path d="M21.2145108,6.72883543 C21.2145108,6.72883543 18.4687307,11.5155443 11.1878819,11.5155443 C3.90724179,11.5155443 1.16125296,6.72883543 1.16125296,6.72883543 C0.00362775442,9.81381964 0.0334763667,10.2463873 0.0334763667,10.2463873 C1.15703658,11.457601 2.49730189,12.4610055 3.98910631,13.2082673 C3.89221312,14.2365683 3.75966858,15.8192031 3.77398757,16.6260302 C3.79602962,17.880671 4.58478442,17.9673224 6.41723873,18.1402602 C8.24902511,18.3132386 7.87067829,17.8371223 7.87067829,17.0372289 L7.87067829,14.5105927 C9.81350986,14.8739447 11.1878819,14.7451638 11.1878819,14.7451638 C11.1878819,14.7451638 17.5630028,15.3798234 22.3423292,10.2469955 C22.3423292,10.2463873 22.372303,9.81381964 21.2145108,6.72883543 Z" id="Stroke-15" stroke="#1E5ADC" stroke-width="0.5"></path>
                            </g>
                        </g>
                    </g>
                </g>
            </g>
        </g>
    </g>
</svg>