<?xml version="1.0" encoding="UTF-8"?>
<svg width="14px" height="24px" viewBox="0 0 14 24" version="1.1" xmlns="http://www.w3.org/2000/svg" xmlns:xlink="http://www.w3.org/1999/xlink">
    <!-- Generator: Sketch 52.1 (67048) - http://www.bohemiancoding.com/sketch -->
    <title>Shape</title>
    <desc>Created with Sketch.</desc>
    <g id="Page-1" stroke="none" stroke-width="1" fill="none" fill-rule="evenodd">
        <g id="Log-In---By-Login" transform="translate(-543.000000, -188.000000)" fill="#000000" fill-rule="nonzero">
            <g id="Content">
                <g id="Form" transform="translate(465.000000, 117.000000)">
                    <g id="Tabs" transform="translate(50.000000, 58.000000)">
                        <g id="Tab-1">
                            <g id="Text" transform="translate(28.000000, 13.000000)">
                                <path d="M12.2009009,0 L1.7990991,0 C0.803603604,0 0,0.783616354 0,1.74826908 L0,22.2534801 C0,23.2172582 0.803603604,24 1.7990991,24 L12.2009009,24 C13.1945946,24 14,23.2172582 14,22.2534801 L14,1.74826908 C14,0.783616354 13.1945946,0 12.2009009,0 Z M4.43333333,1.06173019 L9.56846847,1.06173019 C9.6981982,1.06173019 9.8036036,1.24976314 9.8036036,1.48239924 C9.8036036,1.71503535 9.6981982,1.90394286 9.56846847,1.90394286 L4.43333333,1.90394286 C4.3027027,1.90394286 4.1990991,1.71503535 4.1990991,1.48239924 C4.1990991,1.24976314 4.3027027,1.06173019 4.43333333,1.06173019 Z M7.0009009,22.2744698 C6.36756757,22.2744698 5.85225225,21.7742147 5.85225225,21.1585161 C5.85225225,20.5428176 6.36756757,20.0443116 7.0009009,20.0443116 C7.63243243,20.0443116 8.14774775,20.5428176 8.14774775,21.1585161 C8.14774775,21.7742147 7.63243243,22.2744698 7.0009009,22.2744698 Z M12.6522523,18.4534655 L1.34864865,18.4534655 L1.34864865,2.94993076 L12.6522523,2.94993076 L12.6522523,18.4534655 Z" id="Shape"></path>
                            </g>
                        </g>
                    </g>
                </g>
            </g>
        </g>
    </g>
</svg>