<?xml version="1.0" encoding="UTF-8"?>
<svg width="23px" height="22px" viewBox="0 0 23 22" version="1.1" xmlns="http://www.w3.org/2000/svg" xmlns:xlink="http://www.w3.org/1999/xlink">
    <!-- Generator: Sketch 52.1 (67048) - http://www.bohemiancoding.com/sketch -->
    <title>Support</title>
    <desc>Created with Sketch.</desc>
    <g id="Page-1" stroke="none" stroke-width="1" fill="none" fill-rule="evenodd">
        <g id="Text" fill="#1E5ADC" fill-rule="nonzero">
            <path d="M12.7955494,18.5889047 L10.1724618,18.5889047 C9.02086231,18.5889047 8.02920723,19.4025605 7.77329624,20.4978663 C5.43810848,19.2147937 3.87065369,16.7738265 3.87065369,13.9886202 C3.87065369,9.85775249 7.29346314,6.54054054 11.4840056,6.54054054 C15.674548,6.54054054 19.0973574,9.85775249 19.0973574,13.9886202 C19.0973574,15.9914651 18.2976356,17.7752489 16.9860918,19.1209104 L14.3310153,19.1209104 C13.9151599,18.7766714 13.3713491,18.5889047 12.7955494,18.5889047 Z M0.223922114,14.6145092 C0.223922114,14.5832148 0.191933241,14.5832148 0.159944367,14.5519203 C0.0639777469,14.458037 0,14.3328592 0,14.1763869 L0,11.5789474 C0,10.9217639 0.0319888734,10.2645804 0.159944367,9.63869132 C0.255910987,8.98150782 0.447844228,8.35561878 0.671766342,7.72972973 C0.92767733,7.10384068 1.21557719,6.50924609 1.53546592,5.94594595 C1.85535466,5.3826458 2.23922114,4.85064011 2.68706537,4.34992888 C2.75104312,4.28733997 2.78303199,4.25604552 2.84700974,4.22475107 C2.78303199,3.943101 2.87899861,3.59886202 3.10292072,3.37980085 C5.43810848,1.12660028 8.44506259,0 11.4840056,0 C14.5229485,0 17.5299026,1.12660028 19.8331015,3.37980085 C20.0570236,3.59886202 20.1529903,3.943101 20.0890125,4.22475107 C20.1529903,4.25604552 20.216968,4.28733997 20.2489569,4.34992888 C20.6968011,4.85064011 21.0806676,5.3826458 21.4005563,5.94594595 C21.7524339,6.50924609 22.0403338,7.10384068 22.2642559,7.72972973 C22.488178,8.35561878 22.6481224,8.98150782 22.8400556,9.63869132 C22.9360223,10.2645804 23,10.9217639 23,11.5789474 L23,14.1763869 C23,14.3015647 22.9360223,14.458037 22.8400556,14.5519203 C22.8400556,14.5832148 22.8080668,14.5832148 22.7760779,14.6145092 C22.6801113,15.3968706 22.2962448,16.116643 21.7524339,16.6486486 C21.7204451,16.6799431 21.6884562,16.7112376 21.6564673,16.742532 L21.6564673,16.8364154 L21.6564673,19.3399716 C21.6564673,19.6842105 21.5924896,19.997155 21.5285118,20.2475107 C21.4325452,20.5291607 21.3045897,20.7482219 21.1446453,20.9359886 C20.9527121,21.1237553 20.7607789,21.2489331 20.5048679,21.3428165 C20.3129346,21.4054054 20.1210014,21.4679943 19.8970793,21.4679943 L19.6731572,21.4679943 L13.7232267,21.4679943 C13.5312935,21.7809388 13.1794159,22 12.7955494,22 L10.1724618,22 C9.59666203,22 9.1488178,21.5618777 9.11682893,20.9985775 C9.11682893,20.4665718 9.56467316,19.997155 10.1404729,19.997155 L12.7635605,19.997155 C13.1794159,19.997155 13.4993046,20.2162162 13.6912378,20.5291607 L19.5771905,20.5291607 L19.6091794,20.5291607 C19.7691238,20.5291607 19.8970793,20.4978663 20.0250348,20.4665718 C20.1210014,20.4352774 20.216968,20.3726885 20.2809458,20.3100996 C20.3449235,20.2162162 20.4089013,20.1223329 20.4408901,19.9658606 C20.472879,19.8093883 20.5048679,19.5903272 20.5048679,19.371266 L20.5048679,17.3997155 C20.3449235,17.4623044 20.1849791,17.5248933 20.0250348,17.5561878 C20.0570236,17.4623044 20.0570236,17.3371266 20.0570236,17.2119488 L20.0570236,11.1721195 C20.0570236,11.0469417 20.0570236,10.9217639 20.0250348,10.7965861 C20.6328234,10.9843528 21.1766342,11.2972973 21.5924896,11.7041252 C21.6244784,11.7354196 21.6884562,11.7667141 21.7204451,11.829303 L21.7204451,11.5789474 C21.7204451,10.9843528 21.6564673,10.3897582 21.5605007,9.82645804 C21.4325452,9.23186344 21.2726008,8.6685633 21.0806676,8.10526316 C20.8567455,7.54196302 20.6008345,7.00995733 20.3129346,6.50924609 C20.0250348,6.00853485 19.6731572,5.50782361 19.2892907,5.06970128 C19.2573018,5.03840683 19.2573018,4.97581792 19.2253129,4.94452347 C18.9694019,4.97581792 18.6815021,4.91322902 18.45758,4.69416785 C16.5382476,2.78520626 13.9471488,1.84637269 11.4200278,1.84637269 C8.89290682,1.84637269 6.33379694,2.78520626 4.38247566,4.69416785 C4.19054242,4.88193457 3.90264256,4.97581792 3.6147427,4.94452347 C3.6147427,4.97581792 3.58275382,5.03840683 3.55076495,5.06970128 C3.16689847,5.50782361 2.81502086,6.00853485 2.527121,6.50924609 C2.20723227,7.00995733 1.95132128,7.54196302 1.75938804,8.10526316 C1.53546592,8.63726885 1.37552156,9.20056899 1.27955494,9.79516358 C1.18358832,10.3584637 1.11961057,10.9530583 1.11961057,11.5476529 L1.11961057,11.7980085 C1.15159944,11.7667141 1.21557719,11.7041252 1.24756606,11.6728307 C1.69541029,11.2347084 2.20723227,10.9217639 2.81502086,10.7652916 C2.78303199,10.8904694 2.78303199,11.0156472 2.78303199,11.140825 L2.78303199,17.2119488 C2.78303199,17.3058321 2.78303199,17.43101 2.81502086,17.5561878 C2.20723227,17.3684211 1.66342142,17.0554765 1.24756606,16.6486486 C0.703755216,16.116643 0.319888734,15.3968706 0.223922114,14.6145092 Z" id="Support"></path>
        </g>
    </g>
</svg>