<?xml version="1.0" encoding="utf-8"?>
<!-- Generator: Adobe Illustrator 22.1.0, SVG Export Plug-In . SVG Version: 6.00 Build 0)  -->
<svg version="1.1" id="Layer_1" xmlns="http://www.w3.org/2000/svg" xmlns:xlink="http://www.w3.org/1999/xlink" x="0px" y="0px"
	 viewBox="0 0 14.1 18" style="enable-background:new 0 0 14.1 18;" xml:space="preserve">
<g id="Content" transform="translate(24.000000, 9.000000)">
	<path id="Shape" d="M-10.9-1.7h-0.4v-1.6c0-3-2.5-5.6-5.5-5.6c-0.1,0-0.3,0-0.3,0c-3.1,0.1-5.5,2.6-5.5,5.6v1.6H-23
		c-0.6,0-1,0.6-1,1.2v8.2c0,0.7,0.5,1.3,1,1.3h12.1c0.6,0,1-0.6,1-1.3v-8.2C-9.9-1.2-10.3-1.7-10.9-1.7z M-15.8,3.6v2.5
		c0,0.3-0.2,0.5-0.5,0.5h-1.2c-0.3,0-0.5-0.2-0.5-0.5V3.6c-0.3-0.3-0.4-0.6-0.4-1.1c0-0.8,0.6-1.5,1.4-1.5c0.1,0,0.3,0,0.3,0
		c0.8,0,1.4,0.7,1.4,1.5C-15.3,3-15.5,3.4-15.8,3.6z M-13.6-1.7h-3.2h-0.3h-3.2v-1.6c0-1.8,1.5-3.3,3.3-3.3s3.3,1.5,3.3,3.3V-1.7z"
		/>
</g>
</svg>
